<?xml version="1.0" encoding="UTF-8" standalone="no"?><!DOCTYPE svg PUBLIC "-//W3C//DTD SVG 1.1//EN" "http://www.w3.org/Graphics/SVG/1.1/DTD/svg11.dtd"><svg width="100%" height="100%" viewBox="0 0 2132 2132" version="1.1" xmlns="http://www.w3.org/2000/svg" xmlns:xlink="http://www.w3.org/1999/xlink" xml:space="preserve" xmlns:serif="http://www.serif.com/" style="fill-rule:evenodd;clip-rule:evenodd;stroke-linejoin:round;stroke-miterlimit:2;"><g><g><path d="M799.729,0l0,177.779l177.779,0l0,88.888c62.221,-8.888 115.554,-8.888 177.78,-0l-0,-88.888l177.779,0l-0,-177.779l-533.338,-0Z" style="fill:#fff;fill-rule:nonzero;"/></g></g><g><g><path d="M1670.84,586.667l62.221,-62.221l71.112,71.112l124.446,-124.445l-266.667,-266.667l-124.446,124.446l71.113,71.108l-80,80c-426.667,-257.779 -977.779,-124.446 -1226.67,302.221c-248.887,426.667 -115.558,960 302.221,1217.78c417.779,257.779 968.887,124.446 1217.78,-302.221c222.221,-364.446 160,-826.666 -151.112,-1111.11Zm-604.446,1271.11c-346.667,0 -622.221,-275.554 -622.221,-622.221c-0,-346.666 275.554,-622.225 622.221,-622.225l-0,622.221l622.221,0c0.004,346.667 -275.555,622.225 -622.221,622.225Z" style="fill:#fff;fill-rule:nonzero;"/></g></g></svg>