<?xml version="1.0" encoding="UTF-8" standalone="no"?><!DOCTYPE svg PUBLIC "-//W3C//DTD SVG 1.1//EN" "http://www.w3.org/Graphics/SVG/1.1/DTD/svg11.dtd"><svg width="100%" height="100%" viewBox="0 0 209 225" version="1.1" xmlns="http://www.w3.org/2000/svg" xmlns:xlink="http://www.w3.org/1999/xlink" xml:space="preserve" xmlns:serif="http://www.serif.com/" style="fill-rule:evenodd;clip-rule:evenodd;stroke-linejoin:round;stroke-miterlimit:2;"><g><circle cx="21.738" cy="95.545" r="3.692" style="fill:#08f;fill-opacity:0.46;"/><clipPath id="_clip1"><rect id="piggy-bank_126193.svg" x="5.331" y="6.994" width="202.759" height="202.759"/></clipPath><g clip-path="url(#_clip1)"><g><g><path d="M70.889,6.994c28.163,0 51.028,22.875 51.028,51.049c-0,28.175 -22.865,51.049 -51.028,51.049c-28.163,-0 -51.027,-22.874 -51.027,-51.049c-0,-28.174 22.864,-51.049 51.027,-51.049Zm14.662,60.148c-1.84,-1.817 -4.138,-1.817 -5.967,0c-1.395,1.383 -2.79,2.767 -4.161,4.173c-0.375,0.387 -0.692,0.469 -1.149,0.211c-0.903,-0.492 -1.864,-0.89 -2.731,-1.43c-4.045,-2.544 -7.432,-5.814 -10.433,-9.495c-1.489,-1.829 -2.814,-3.786 -3.74,-5.99c-0.188,-0.446 -0.152,-0.739 0.211,-1.102c1.395,-1.348 2.755,-2.732 4.126,-4.115c1.911,-1.922 1.911,-4.173 -0.011,-6.107c-1.091,-1.102 -2.181,-2.181 -3.271,-3.283c-1.125,-1.125 -2.239,-2.262 -3.376,-3.376c-1.841,-1.793 -4.138,-1.793 -5.967,0.012c-1.407,1.383 -2.755,2.802 -4.185,4.161c-1.325,1.255 -1.993,2.79 -2.133,4.584c-0.223,2.919 0.492,5.674 1.5,8.358c2.063,5.557 5.205,10.492 9.015,15.017c5.146,6.119 11.289,10.961 18.475,14.454c3.235,1.571 6.588,2.778 10.234,2.977c2.508,0.141 4.689,-0.492 6.435,-2.45c1.196,-1.336 2.544,-2.555 3.81,-3.833c1.876,-1.899 1.888,-4.197 0.024,-6.072c-2.228,-2.239 -4.467,-4.467 -6.706,-6.694Zm-2.239,-9.343l4.326,-0.738c-0.68,-3.974 -2.556,-7.573 -5.404,-10.433c-3.013,-3.013 -6.823,-4.912 -11.02,-5.498l-0.609,4.349c3.247,0.457 6.201,1.922 8.534,4.255c2.204,2.204 3.646,4.994 4.173,8.065Zm6.764,-18.803c-4.994,-4.994 -11.312,-8.147 -18.287,-9.12l-0.61,4.349c6.026,0.844 11.489,3.575 15.802,7.878c4.092,4.091 6.776,9.26 7.749,14.946l4.326,-0.739c-1.137,-6.588 -4.244,-12.566 -8.98,-17.314Z" style="fill:#0093ff;"/><path d="M185.363,113.358l-5.956,0c-3.928,-12.039 -11.616,-22.726 -21.881,-31.005c0,-0.38 -0.084,-0.803 -0.169,-1.183c-2.154,-7.561 0.507,-14.446 3.591,-19.389c2.154,-3.463 -0.634,-7.899 -4.689,-7.392c-9.082,1.141 -15.333,4.478 -19.642,8.237c-2.957,2.577 -5.069,6.041 -5.998,9.885c-6.506,26.95 -30.794,47.014 -59.73,47.014c-14.066,0 -26.992,-4.731 -37.341,-12.672c-3.591,7.772 -5.534,16.263 -5.534,25.176c0,4.815 0.592,9.504 1.69,14.024c-0,-0 -0,0.084 0.042,0.211c1.141,4.689 2.873,9.209 5.069,13.475c2.915,6.294 7.139,13.644 12.968,19.6c8.406,8.66 9.843,19.389 10.054,24.036l-0,2.281c0.169,2.281 2.07,4.097 4.393,4.097l26.696,-0c2.408,-0 4.393,-1.943 4.393,-4.393l0,-6.59c3.887,0.507 7.857,0.803 11.87,0.803c3.168,-0 6.252,-0.169 9.336,-0.507l-0,6.294c-0,2.408 1.943,4.393 4.393,4.393l26.781,-0c2.408,-0 4.393,-1.943 4.393,-4.393l-0,-6.59c0.042,-2.196 0.802,-10.94 9.082,-18.417c0.295,-0.253 0.591,-0.507 0.887,-0.76c0.084,-0.085 0.169,-0.127 0.253,-0.212c9.209,-8.194 16.01,-18.417 19.516,-29.822l5.618,0c4.478,0 8.11,-3.633 8.11,-8.11l0,-19.98c-0.084,-4.478 -3.717,-8.111 -8.195,-8.111Zm-33.412,1.436c-3.675,0 -6.632,-2.957 -6.632,-6.632c-0,-3.675 2.957,-6.631 6.632,-6.631c3.675,-0 6.631,2.956 6.631,6.631c0,3.675 -2.956,6.632 -6.631,6.632Z" style="fill:#0093ff;fill-rule:nonzero;"/></g></g></g><path d="M146.698,0c10.785,0 19.542,8.757 19.542,19.542c-0,10.786 -8.757,19.543 -19.542,19.543c-10.786,-0 -19.543,-8.757 -19.543,-19.543c0,-10.785 8.757,-19.542 19.543,-19.542Zm-0,9.771c5.392,0 9.771,4.378 9.771,9.771c-0,5.393 -4.379,9.772 -9.771,9.772c-5.393,-0 -9.772,-4.379 -9.772,-9.772c0,-5.393 4.379,-9.771 9.772,-9.771Z" style="fill:#ff972c;"/><path d="M10.188,188.539l-7.662,-0c-1.394,-0 -2.526,1.132 -2.526,2.526c-0,1.395 1.132,2.527 2.526,2.527l7.662,-0l0,7.662c0,1.394 1.133,2.526 2.527,2.526c1.394,0 2.526,-1.132 2.526,-2.526l0,-7.662l7.662,-0c1.395,-0 2.527,-1.132 2.527,-2.527c-0,-1.394 -1.132,-2.526 -2.527,-2.526l-7.662,-0l0,-7.662c0,-1.395 -1.132,-2.527 -2.526,-2.527c-1.394,0 -2.527,1.132 -2.527,2.527l0,7.662Z" style="fill:#ff972c;"/><circle cx="21.738" cy="95.545" r="3.692" style="fill:#08f;fill-opacity:0.46;"/><circle cx="127.155" cy="150.558" r="73.842" style="fill:#0093ff;fill-opacity:0.16;"/></g></svg>