<?xml version="1.0" encoding="UTF-8" standalone="no"?><!DOCTYPE svg PUBLIC "-//W3C//DTD SVG 1.1//EN" "http://www.w3.org/Graphics/SVG/1.1/DTD/svg11.dtd"><svg width="100%" height="100%" viewBox="0 0 21 21" version="1.1" xmlns="http://www.w3.org/2000/svg" xmlns:xlink="http://www.w3.org/1999/xlink" xml:space="preserve" xmlns:serif="http://www.serif.com/" style="fill-rule:evenodd;clip-rule:evenodd;stroke-linejoin:round;stroke-miterlimit:2;"><circle cx="10.31" cy="10.31" r="10.31" style="fill:#2298ff;"/><clipPath id="_clip1"><circle cx="10.31" cy="10.31" r="10.31"/></clipPath><g clip-path="url(#_clip1)"><g><rect x="-12.201" y="-4.294" width="59.738" height="30.493" style="fill:#fff;fill-rule:nonzero;"/><rect x="-12.201" y="0.309" width="59.688" height="2.412" style="fill:#b22234;fill-rule:nonzero;"/><rect x="-12.201" y="5.028" width="59.688" height="2.412" style="fill:#b22234;fill-rule:nonzero;"/><rect x="-12.201" y="9.746" width="59.688" height="2.412" style="fill:#b22234;fill-rule:nonzero;"/><rect x="-12.201" y="14.464" width="59.688" height="2.412" style="fill:#b22234;fill-rule:nonzero;"/><rect x="-12.201" y="19.182" width="59.688" height="2.412" style="fill:#b22234;fill-rule:nonzero;"/><rect x="-12.202" y="-4.409" width="23.839" height="16.568" style="fill:#3c3b6e;fill-rule:nonzero;"/><path d="M-0.244,-2.075l0.223,0.677l0.722,-0l-0.584,0.418l0.223,0.676l-0.584,-0.418l-0.584,0.418l0.223,-0.676l-0.584,-0.418l0.722,-0l0.223,-0.677Z" style="fill:#fff;fill-rule:nonzero;"/><path d="M-0.244,1.247l0.223,0.676l0.722,0l-0.584,0.418l0.223,0.676l-0.584,-0.418l-0.584,0.418l0.223,-0.676l-0.584,-0.418l0.722,0l0.223,-0.676Z" style="fill:#fff;fill-rule:nonzero;"/><path d="M-0.244,4.568l0.223,0.677l0.722,-0l-0.584,0.418l0.223,0.676l-0.584,-0.418l-0.584,0.418l0.223,-0.676l-0.584,-0.418l0.722,-0l0.223,-0.677Z" style="fill:#fff;fill-rule:nonzero;"/><path d="M-0.244,7.89l0.223,0.676l0.722,0l-0.584,0.418l0.223,0.676l-0.584,-0.418l-0.584,0.418l0.223,-0.676l-0.584,-0.418l0.722,0l0.223,-0.676Z" style="fill:#fff;fill-rule:nonzero;"/><path d="M3.738,-2.075l0.224,0.677l0.721,-0l-0.584,0.418l0.223,0.676l-0.584,-0.418l-0.584,0.418l0.223,-0.676l-0.584,-0.418l0.722,-0l0.223,-0.677Z" style="fill:#fff;fill-rule:nonzero;"/><path d="M3.738,1.247l0.224,0.676l0.721,0l-0.584,0.418l0.223,0.676l-0.584,-0.418l-0.584,0.418l0.223,-0.676l-0.584,-0.418l0.722,0l0.223,-0.676Z" style="fill:#fff;fill-rule:nonzero;"/><path d="M3.738,4.568l0.224,0.677l0.721,-0l-0.584,0.418l0.223,0.676l-0.584,-0.418l-0.584,0.418l0.223,-0.676l-0.584,-0.418l0.722,-0l0.223,-0.677Z" style="fill:#fff;fill-rule:nonzero;"/><path d="M3.738,7.89l0.224,0.676l0.721,0l-0.584,0.418l0.223,0.676l-0.584,-0.418l-0.584,0.418l0.223,-0.676l-0.584,-0.418l0.722,0l0.223,-0.676Z" style="fill:#fff;fill-rule:nonzero;"/><path d="M7.721,-2.075l0.223,0.677l0.722,-0l-0.584,0.418l0.223,0.676l-0.584,-0.418l-0.584,0.418l0.223,-0.676l-0.584,-0.418l0.722,-0l0.223,-0.677Z" style="fill:#fff;fill-rule:nonzero;"/><path d="M7.721,1.247l0.223,0.676l0.722,0l-0.584,0.418l0.223,0.676l-0.584,-0.418l-0.584,0.418l0.223,-0.676l-0.584,-0.418l0.722,0l0.223,-0.676Z" style="fill:#fff;fill-rule:nonzero;"/><path d="M7.721,4.568l0.223,0.677l0.722,-0l-0.584,0.418l0.223,0.676l-0.584,-0.418l-0.584,0.418l0.223,-0.676l-0.584,-0.418l0.722,-0l0.223,-0.677Z" style="fill:#fff;fill-rule:nonzero;"/><path d="M7.721,7.89l0.223,0.676l0.722,0l-0.584,0.418l0.223,0.676l-0.584,-0.418l-0.584,0.418l0.223,-0.676l-0.584,-0.418l0.722,0l0.223,-0.676Z" style="fill:#fff;fill-rule:nonzero;"/><path d="M1.747,-0.453l0.223,0.676l0.722,0l-0.584,0.418l0.223,0.676l-0.584,-0.418l-0.584,0.418l0.223,-0.676l-0.584,-0.418l0.722,0l0.223,-0.676Z" style="fill:#fff;fill-rule:nonzero;"/><path d="M1.747,2.868l0.223,0.677l0.722,-0l-0.584,0.418l0.223,0.676l-0.584,-0.418l-0.584,0.418l0.223,-0.676l-0.584,-0.418l0.722,-0l0.223,-0.677Z" style="fill:#fff;fill-rule:nonzero;"/><path d="M1.747,6.19l0.223,0.676l0.722,0l-0.584,0.418l0.223,0.676l-0.584,-0.418l-0.584,0.418l0.223,-0.676l-0.584,-0.418l0.722,0l0.223,-0.676Z" style="fill:#fff;fill-rule:nonzero;"/><path d="M1.747,9.511l0.223,0.677l0.722,-0l-0.584,0.418l0.223,0.676l-0.584,-0.418l-0.584,0.418l0.223,-0.676l-0.584,-0.418l0.722,-0l0.223,-0.677Z" style="fill:#fff;fill-rule:nonzero;"/><path d="M5.703,-0.453l0.223,0.676l0.722,0l-0.584,0.418l0.223,0.676l-0.584,-0.418l-0.584,0.418l0.223,-0.676l-0.584,-0.418l0.722,0l0.223,-0.676Z" style="fill:#fff;fill-rule:nonzero;"/><path d="M5.703,2.868l0.223,0.677l0.722,-0l-0.584,0.418l0.223,0.676l-0.584,-0.418l-0.584,0.418l0.223,-0.676l-0.584,-0.418l0.722,-0l0.223,-0.677Z" style="fill:#fff;fill-rule:nonzero;"/><path d="M5.703,6.19l0.223,0.676l0.722,0l-0.584,0.418l0.223,0.676l-0.584,-0.418l-0.584,0.418l0.223,-0.676l-0.584,-0.418l0.722,0l0.223,-0.676Z" style="fill:#fff;fill-rule:nonzero;"/><path d="M5.703,9.511l0.223,0.677l0.722,-0l-0.584,0.418l0.223,0.676l-0.584,-0.418l-0.584,0.418l0.223,-0.676l-0.584,-0.418l0.722,-0l0.223,-0.677Z" style="fill:#fff;fill-rule:nonzero;"/><path d="M9.739,-0.453l0.223,0.676l0.722,0l-0.584,0.418l0.223,0.676l-0.584,-0.418l-0.584,0.418l0.223,-0.676l-0.584,-0.418l0.722,0l0.223,-0.676Z" style="fill:#fff;fill-rule:nonzero;"/><path d="M9.739,2.868l0.223,0.677l0.722,-0l-0.584,0.418l0.223,0.676l-0.584,-0.418l-0.584,0.418l0.223,-0.676l-0.584,-0.418l0.722,-0l0.223,-0.677Z" style="fill:#fff;fill-rule:nonzero;"/><path d="M9.739,6.19l0.223,0.676l0.722,0l-0.584,0.418l0.223,0.676l-0.584,-0.418l-0.584,0.418l0.223,-0.676l-0.584,-0.418l0.722,0l0.223,-0.676Z" style="fill:#fff;fill-rule:nonzero;"/><path d="M9.739,9.511l0.223,0.677l0.722,-0l-0.584,0.418l0.223,0.676l-0.584,-0.418l-0.584,0.418l0.223,-0.676l-0.584,-0.418l0.722,-0l0.223,-0.677Z" style="fill:#fff;fill-rule:nonzero;"/></g></g></svg>