<?xml version="1.0" encoding="UTF-8" standalone="no"?><!DOCTYPE svg PUBLIC "-//W3C//DTD SVG 1.1//EN" "http://www.w3.org/Graphics/SVG/1.1/DTD/svg11.dtd"><svg width="100%" height="100%" viewBox="0 0 2134 2134" version="1.1" xmlns="http://www.w3.org/2000/svg" xmlns:xlink="http://www.w3.org/1999/xlink" xml:space="preserve" xmlns:serif="http://www.serif.com/" style="fill-rule:evenodd;clip-rule:evenodd;stroke-linejoin:round;stroke-miterlimit:2;"><g><path d="M1497.08,1386.25c-25.833,-25.833 -67.916,-25.833 -93.75,0l-131.25,131.25c-37.5,37.5 -95.416,56.25 -144.166,35c-280,-120.417 -431.25,-271.25 -547.084,-546.667c-20.416,-48.333 -1.666,-105.833 35.417,-142.916l132.083,-132.084c25.834,-25.833 25.834,-67.916 0,-93.75l-397.916,-397.5c-25.834,-25.833 -67.917,-25.833 -93.75,0l-151.25,151.25c-90.834,90.834 -120.417,226.25 -77.917,347.5c233.333,667.5 689.583,1122.92 1367.92,1366.67c121.666,43.75 258.333,14.583 350,-77.083l149.583,-149.584c25.833,-25.833 25.833,-67.916 0,-93.75l-397.917,-398.333Z" style="fill:#fff;fill-rule:nonzero;"/><path d="M1437.13,454.679c145.083,-33.693 295.955,-2.546 412.796,85.221c9.01,6.225 12.829,17.787 9.405,28.479c-2.893,10.646 -11.827,18.758 -22.637,20.554c-126.07,18.934 -244.899,74.721 -341.495,160.323c-33.327,29.963 -63.342,63.459 -89.491,99.87l103.506,89.088c8.157,7.069 11.133,18.568 7.514,29.034c-3.471,10.694 -13.166,18.35 -24.261,19.157l-420.847,37.427c-7.148,0.818 -14.24,-1.336 -19.607,-5.955c-5.367,-4.619 -8.552,-11.311 -8.807,-18.501l-25.649,-421.729c-0.853,-11.092 5.273,-21.818 15.331,-26.843c9.811,-5.137 21.625,-3.906 29.829,3.108l99.447,85.594c69.112,-90.438 166.074,-155.614 274.966,-184.827Z" style="fill:#fff;fill-rule:nonzero;"/></g></svg>