<?xml version="1.0" encoding="UTF-8" standalone="no"?><!DOCTYPE svg PUBLIC "-//W3C//DTD SVG 1.1//EN" "http://www.w3.org/Graphics/SVG/1.1/DTD/svg11.dtd"><svg width="100%" height="100%" viewBox="0 0 2134 2134" version="1.1" xmlns="http://www.w3.org/2000/svg" xmlns:xlink="http://www.w3.org/1999/xlink" xml:space="preserve" xmlns:serif="http://www.serif.com/" style="fill-rule:evenodd;clip-rule:evenodd;stroke-linejoin:round;stroke-miterlimit:2;"><path d="M1688.88,1070.77c-49.153,0 -88.883,39.828 -88.883,88.884l0,711.116c0,48.975 -39.827,88.884 -88.883,88.884l-1244.45,-0c-49.073,-0 -88.884,-39.909 -88.884,-88.884l0,-1244.45c0,-48.974 39.811,-88.883 88.884,-88.883l711.116,-0c49.154,-0 88.884,-39.828 88.884,-88.884c-0,-49.072 -39.73,-88.899 -88.884,-88.899l-711.116,-0c-147.022,-0 -266.667,119.645 -266.667,266.666l-0,1244.45c-0,147.022 119.645,266.667 266.667,266.667l1244.45,-0c147.021,-0 266.666,-119.645 266.666,-266.667l0,-711.116c0,-49.154 -39.746,-88.884 -88.9,-88.884Z" style="fill:#fff;fill-rule:nonzero;"/><path d="M833.415,989.795c-6.218,6.217 -10.401,14.128 -12.175,22.656l-62.842,314.323c-2.929,14.567 1.693,29.59 12.175,40.169c8.447,8.448 19.824,12.972 31.478,12.972c2.832,0 5.778,-0.26 8.707,-0.879l314.226,-62.841c8.707,-1.791 16.618,-5.957 22.754,-12.191l703.287,-703.288l-314.225,-314.209l-703.385,703.288Z" style="fill:#fff;fill-rule:nonzero;"/><path d="M2068.26,69.173c-86.654,-86.67 -227.637,-86.67 -314.226,0l-123.014,123.015l314.225,314.225l123.015,-123.031c41.959,-41.862 65.071,-97.689 65.071,-157.064c0,-59.375 -23.112,-115.201 -65.071,-157.145Z" style="fill:#fff;fill-rule:nonzero;"/></svg>