<?xml version="1.0" encoding="UTF-8" standalone="no"?><!DOCTYPE svg PUBLIC "-//W3C//DTD SVG 1.1//EN" "http://www.w3.org/Graphics/SVG/1.1/DTD/svg11.dtd"><svg width="100%" height="100%" viewBox="0 0 1080 180" version="1.1" xmlns="http://www.w3.org/2000/svg" xmlns:xlink="http://www.w3.org/1999/xlink" xml:space="preserve" xmlns:serif="http://www.serif.com/" style="fill-rule:evenodd;clip-rule:evenodd;stroke-linejoin:round;stroke-miterlimit:2;"><g><path d="M82.323,123.889l-1.679,0l0.002,-2.598l1.679,0l-0.002,2.598Zm-0,3.674l-1.679,-0.002l0,-2.596l1.679,0l-0,2.598Zm-6.721,-2.6l3.551,0l-0.002,2.598l-3.549,-0.002l0,-2.596Zm-1.074,-1.076l-3.997,-0.002l0.002,-2.598l3.995,0.002l0,2.598Zm-0.002,3.672l-3.999,0l0.002,-2.598l3.999,0.002l-0.002,2.596Zm-6.718,-2.598l1.022,0l-0.002,2.596l-1.02,0l-0,-2.596Zm-1.074,-1.078l-6.528,-0.002l0.002,-2.596l6.526,0.002l-0,2.596Zm-0.002,3.674l-6.528,-0.002l0.002,-2.598l6.528,0.002l-0.002,2.598Zm-14.513,-2.602l6.286,0.002l-0.002,2.598l-6.284,-0.002l-0,-2.598Zm-1.074,-1.076l-1.261,0l0.002,-2.598l1.259,-0l-0,2.598Zm-0.002,3.672l-1.263,0l0.002,-2.596l1.261,-0l-0,2.596Zm-6.719,-2.598l3.758,-0l-0.004,2.598l-3.756,-0.002l0.002,-2.596Zm-1.076,-1.078l-3.789,-0l0.002,-2.598l3.789,0.002l-0.002,2.596Zm0,3.674l-3.793,0l0.004,-2.598l3.789,0.002l0,2.596Zm-6.719,-2.6l1.607,0.002l-0.002,2.596l-1.607,-0l0.002,-2.598Zm0,-3.672l1.607,-0l0,2.598l-1.607,-0.002l0,-2.596Zm11.555,0.004l-0.002,2.596l-3.758,0l-0,-2.598l3.76,0.002Zm-8.617,-6.723l8.624,-0.014l-0.004,5.661l-8.624,-0.004l0.004,-5.643Zm18.948,-0.031l-0.006,5.68l-8.623,-0.002l0.006,-5.663l8.623,-0.015Zm-0.008,9.354l-6.288,-0.002l0.002,-2.598l6.288,0.002l-0.002,2.598Zm10.325,-2.594l-0.002,2.598l-1.022,-0.002l0.002,-2.596l1.022,0Zm0.006,-6.776l-0.004,5.7l-8.623,-0.002l0.004,-5.684l8.623,-0.014Zm10.319,6.78l-0.002,2.596l-3.551,0l0,-2.598l3.553,0.002Zm0.006,-6.797l-0.006,5.721l-8.624,-0.004l0.006,-5.702l8.624,-0.015Zm6.441,6.799l-0,-1.076l-4.958,-0.002l0.002,-7.175l-42.408,-0.014l-0.004,7.175l-4.958,-0.002l0,1.076l2.278,0.002l-0.002,2.596l-2.276,-0l0,1.076l2.276,-0l-0,2.598l-2.278,-0l0,1.076l52.324,0.016l0.002,-1.076l-2.205,0l0.002,-2.598l2.203,0.002l-0,-1.078l-2.203,0l-0,-2.598l2.205,0.002Z" style="fill:#a0c6a2;fill-rule:nonzero;"/><path d="M45.278,83.425l6.218,0.002l-0.002,5.6l-6.218,-0.002l0.002,-5.6Zm7.445,0.002l6.218,0.002l-0.002,5.602l-6.219,-0.002l0.003,-5.602Zm7.444,0.002l6.219,0.003l-0.002,5.601l-6.219,-0.002l0.002,-5.602Zm7.445,0.005l6.219,0.002l-0.002,5.599l-6.219,-0.002l0.002,-5.599Zm7.642,7.317l0.002,-8.727l-31.614,0l-0.002,8.727l31.614,-0Z" style="fill:#a0c6a2;fill-rule:nonzero;"/><path d="M76.507,94.917l-5.009,-0l0,-1.938l5.009,0.002l0,1.936Zm-0.002,2.74l-5.009,-0.002l0,-1.936l5.011,-0l-0.002,1.938Zm-34.062,-1.948l5.009,0.002l-0.002,1.935l-5.009,-0.002l0.002,-1.935Zm-0,-2.738l5.009,-0l0,1.937l-5.009,-0.002l-0,-1.935Zm23.244,1.944l-0,-1.938l5.009,0.002l-0,1.936l-5.009,-0Zm-0,0.802l5.009,-0l-0.002,1.938l-5.009,-0.002l0.002,-1.936Zm-5.812,-0.002l5.009,-0l0,1.938l-5.009,-0.002l0,-1.936Zm-5.811,-0.002l5.009,0.002l-0,1.936l-5.009,-0.003l-0,-1.935Zm-0.803,-0l0,1.935l-5.009,-0.002l0,-1.935l5.009,0.002Zm0.003,-0.803l-5.012,-0.002l0.002,-1.935l5.01,-0l-0,1.937Zm6.611,-1.935l5.009,0.002l0,1.935l-5.009,0l0,-1.937Zm-0.802,1.937l-5.009,-0.002l0.002,-1.937l5.009,0.002l-0.002,1.937Zm19.878,-1.929l0,-0.802l-39.005,-0.015l-0,0.802l1.695,0l-0,1.938l-1.697,-0.002l-0,0.803l1.697,0.002l-0,1.935l-1.697,0l-0,0.803l39.005,0.012l0.002,-0.802l-1.644,-0l0,-1.936l1.644,-0l0,-0.802l-1.644,-0l0.002,-1.938l1.642,0.002Z" style="fill:#a0c6a2;fill-rule:nonzero;"/><path d="M87.861,111.398l-56.833,-0.018l-0,-2.841l56.833,0.019l-0,2.84Z" style="fill:#a0c6a2;fill-rule:nonzero;"/><path d="M78.309,100.57l-37.726,-0.013c-6.525,1.054 -12.84,1.953 -15.371,1.95c0,2.897 15.326,4.298 34.233,4.304c18.905,0.006 34.233,-1.382 34.235,-4.279c-2.53,-0.002 -8.845,-0.905 -15.371,-1.962Z" style="fill:#a0c6a2;fill-rule:nonzero;"/><path d="M50.39,58.707l3.956,-0l-0,4.351l-3.958,-0.002l0.002,-4.349Zm4.737,-0l3.956,0.002l-0.002,4.351l-3.956,-0.002l0.002,-4.351Zm4.736,0.002l3.958,0.002l-0.002,4.351l-3.956,-0.002l-0,-4.351Zm4.737,0.002l3.958,0.002l-0.002,4.349l-3.956,-0l0,-4.351Zm5.115,5.359l0.002,-6.464l-20.522,0l-0.003,6.464l20.523,-0Z" style="fill:#a0c6a2;fill-rule:nonzero;"/><path d="M73.263,67.699l-4.055,-0.003l0,-1.567l4.057,0.002l-0.002,1.568Zm0,2.215l-4.055,0l0,-1.567l4.055,-0l0,1.567Zm-27.578,-1.576l4.057,0.002l-0.002,1.568l-4.055,-0.002l0,-1.568Zm0.002,-2.217l4.055,0.002l-0,1.567l-4.057,-0.002l0.002,-1.567Zm18.817,1.573l-0,-1.567l4.056,0.002l0,1.567l-4.056,-0.002Zm-0,0.65l4.054,0.003l0,1.567l-4.054,-0.002l-0,-1.568Zm-4.705,-0.002l4.055,0.002l-0,1.568l-4.055,-0.002l0,-1.568Zm-4.705,-0.002l4.057,0.002l-0.002,1.568l-4.055,-0.002l0,-1.568Zm-0.648,0l-0.002,1.568l-4.054,-0l-0,-1.568l4.056,0Zm0,-0.648l-4.056,-0.002l-0,-1.567l4.056,0.002l0,1.567Zm5.353,-1.567l4.057,0.002l-0,1.567l-4.057,-0.002l0,-1.567Zm-0.648,1.567l-4.057,0l0,-1.567l4.057,-0l0,1.567Zm16.093,-1.561l0,-0.65l-31.579,-0.01l-0.002,0.65l1.374,-0l0,1.567l-1.374,0l-0,0.65l1.374,0l-0.002,1.568l-1.372,-0l-0,0.648l31.579,0.012l0,-0.65l-1.329,0l0,-1.567l1.329,-0l0.002,-0.65l-1.331,-0l0,-1.568l1.331,-0Z" style="fill:#a0c6a2;fill-rule:nonzero;"/><path d="M79.099,31.834l-39.275,-0.012l0.002,-2.637l39.275,0.014l-0.002,2.635Z" style="fill:#a0c6a2;fill-rule:nonzero;"/><path d="M57.094,19.321l-0,1.376l4.744,-0l-0,-1.376l-1.827,-0l0.002,-0.84c0.595,-0.1 1.02,-0.364 1.02,-0.676c0,-0.311 -0.425,-0.574 -1.02,-0.677l0,-0.675c0.595,-0.103 1.02,-0.366 1.02,-0.677c0,-0.31 -0.425,-0.574 -1.02,-0.677l0,-0.674c0.595,-0.103 1.02,-0.366 1.022,-0.677c0,-0.311 -0.425,-0.574 -1.022,-0.677l0.002,-0.675c0.595,-0.102 1.02,-0.366 1.02,-0.676c0,-0.311 -0.425,-0.574 -1.02,-0.679l0,-0.675c0.595,-0.101 1.02,-0.364 1.02,-0.675c0,-0.312 -0.425,-0.576 -1.02,-0.679l0,-0.674c0.595,-0.103 1.02,-0.367 1.022,-0.677c0,-0.311 -0.425,-0.574 -1.022,-0.677l0.002,-0.675c0.595,-0.103 1.02,-0.366 1.02,-0.677c0,-0.31 -0.425,-0.573 -1.02,-0.676l0,-0.675c0.595,-0.103 1.02,-0.366 1.02,-0.677c0,-0.31 -0.425,-1.129 -1.02,-1.232l0,-2.084c0,-0.158 -0.243,-0.288 -0.545,-0.288c-0.302,-0 -0.547,0.128 -0.547,0.288l-0,2.082c-0.595,0.103 -1.021,0.921 -1.021,1.232c0,0.311 0.426,0.574 1.021,0.679l-0.002,0.675c-0.595,0.103 -1.019,0.364 -1.019,0.676c0,0.311 0.424,0.574 1.019,0.677l-0,0.675c-0.595,0.103 -1.021,0.366 -1.021,0.677c0,0.31 0.426,0.574 1.021,0.677l-0,0.674c-0.595,0.103 -1.021,0.367 -1.021,0.677c0,0.311 0.426,0.574 1.021,0.677l-0.002,0.675c-0.595,0.103 -1.019,0.366 -1.019,0.676c0,0.311 0.424,0.574 1.019,0.677l-0,0.677c-0.595,0.101 -1.021,0.364 -1.021,0.675c0,0.313 0.426,0.576 1.021,0.679l-0,0.674c-0.595,0.103 -1.021,0.367 -1.021,0.677c0,0.311 0.426,0.574 1.021,0.677l-0.002,0.675c-0.595,0.103 -1.019,0.366 -1.019,0.677c0,0.31 0.424,0.574 1.019,0.676l-0,0.84l-1.825,-0Z" style="fill:#a0c6a2;fill-rule:nonzero;"/><path d="M61.583,21.904l-4.234,0c-5.155,0.932 -18.181,3.23 -21.542,3.228c-0,2.002 10.59,2.971 23.657,2.975c13.065,0.004 23.657,0.339 23.657,-1.662c-3.359,-0.002 -16.385,-3.602 -21.538,-4.541Z" style="fill:#a0c6a2;fill-rule:nonzero;"/><path d="M82.463,56.281l-46.012,-0.014l-0,-2.302l46.012,0.017l-0,2.299Z" style="fill:#a0c6a2;fill-rule:nonzero;"/><path d="M74.73,48.003l-30.543,-0.01c-5.284,0.852 -10.396,1.025 -12.445,1.025c-0,2.345 12.408,4.034 27.716,4.038c15.305,0.006 27.715,-1.119 27.715,-3.464c-2.048,-0 -7.16,-0.733 -12.443,-1.589Z" style="fill:#a0c6a2;fill-rule:nonzero;"/><path d="M82.456,80.71l-46.012,-0.016l0,-2.3l46.012,0.014l0,2.302Z" style="fill:#a0c6a2;fill-rule:nonzero;"/><path d="M92.802,132.357l-66.728,-0.023l0.002,-2.302l66.726,0.023l-0,2.302Z" style="fill:#a0c6a2;fill-rule:nonzero;"/><path d="M96.815,136.008l-74.756,-0.025l0.002,-2.302l74.756,0.027l-0.002,2.3Z" style="fill:#a0c6a2;fill-rule:nonzero;"/><path d="M74.724,71.969l-30.543,-0.01c-5.285,0.852 -10.397,1.024 -12.445,1.024c-0,2.343 12.408,4.032 27.715,4.039c15.306,0.004 27.716,-1.12 27.716,-3.465c-2.049,-0.002 -7.161,-0.732 -12.443,-1.588Z" style="fill:#a0c6a2;fill-rule:nonzero;"/><path d="M73.269,43.899l-4.054,-0.002l-0,-1.567l4.056,0.002l-0.002,1.567Zm0,2.218l-4.054,-0.002l-0,-1.568l4.054,0.002l0,1.568Zm-27.578,-1.578l4.057,0.002l-0.002,1.568l-4.055,-0.002l0,-1.568Zm0.002,-2.217l4.055,0.002l-0,1.567l-4.057,-0.002l0.002,-1.567Zm18.817,1.573l-0,-1.567l4.057,0.002l-0,1.567l-4.057,-0.002Zm-0,0.65l4.055,0.002l-0,1.568l-4.055,-0.002l-0,-1.568Zm-4.705,-0.002l4.057,0.002l-0.002,1.568l-4.055,-0.002l0,-1.568Zm-4.704,0l4.056,0l-0.002,1.568l-4.054,-0l-0,-1.568Zm-0.648,0l-0.002,1.568l-4.055,-0.002l-0,-1.568l4.057,0.002Zm-0,-0.65l-4.057,-0.002l0.002,-1.567l4.055,0.002l-0,1.567Zm5.352,-1.565l4.057,-0l-0,1.567l-4.057,0l0,-1.567Zm-0.648,1.567l-4.056,-0.002l-0,-1.567l4.056,0.002l0,1.567Zm16.093,-1.563l0,-0.648l-31.579,-0.012l-0.002,0.65l1.374,-0l0,1.567l-1.374,0l0,0.65l1.374,0l0,1.568l-1.374,-0l0,0.65l31.579,0.01l0,-0.65l-1.329,0l0,-1.568l1.329,0l0.002,-0.65l-1.331,0l0,-1.567l1.331,-0Z" style="fill:#a0c6a2;fill-rule:nonzero;"/><path d="M50.412,34.599l3.958,0.002l-0.002,4.349l-3.956,-0l0,-4.351Zm4.738,0.002l3.958,0l-0.002,4.351l-3.958,0l0.002,-4.351Zm4.738,0l3.957,0.002l-0.002,4.351l-3.958,-0.002l0.003,-4.351Zm4.737,0.002l3.958,0.002l-0.002,4.351l-3.958,-0.002l0.002,-4.351Zm5.096,5.861l0.002,-7.432l-20.52,-0.009l-0.004,7.441l20.522,0Z" style="fill:#a0c6a2;fill-rule:nonzero;"/><path d="M963.327,92.561l-31.464,0c-5.898,4.518 -15.282,7.535 -15.282,7.535l62.029,0.003c-0,-0 -9.385,-3.02 -15.283,-7.538Z" style="fill:#a0c6a2;fill-rule:nonzero;"/><path d="M915.982,104.491l10.072,3.569l43.216,0.002l10.072,-3.569l-63.36,-0.002Z" style="fill:#a0c6a2;fill-rule:nonzero;"/><path d="M915.389,102.898l63.953,0.002c0.393,0 0.712,-0.318 0.712,-0.711c-0,-0.393 -0.319,-0.712 -0.712,-0.712l-63.953,-0.002c-0.392,-0 -0.711,0.319 -0.711,0.712c-0,0.392 0.319,0.711 0.711,0.711Z" style="fill:#a0c6a2;fill-rule:nonzero;"/><rect x="930.888" y="89.325" width="33.305" height="1.858" style="fill:#a0c6a2;fill-rule:nonzero;"/><rect x="953.046" y="83.561" width="6.521" height="4.773" style="fill:#a0c6a2;fill-rule:nonzero;"/><path d="M944.751,83.561l0,4.773l7.716,-0l0.003,-4.773l-7.719,0Z" style="fill:#a0c6a2;fill-rule:nonzero;"/><rect x="936.167" y="83.561" width="8.006" height="4.773" style="fill:#a0c6a2;fill-rule:nonzero;"/><path d="M958.898,71.926l-22.731,-0c-4.263,3.263 -11.041,5.445 -11.041,5.445l44.813,0c-0,0 -6.779,-2.18 -11.041,-5.445Z" style="fill:#a0c6a2;fill-rule:nonzero;"/><path d="M924.692,79.91l7.276,2.579l31.223,0l7.276,-2.577l-45.775,-0.002Z" style="fill:#a0c6a2;fill-rule:nonzero;"/><path d="M924.266,79.077l46.204,-0c0.283,-0 0.512,-0.231 0.512,-0.515c-0,-0.284 -0.229,-0.514 -0.512,-0.514l-46.204,0c-0.284,0 -0.514,0.23 -0.514,0.514c-0,0.284 0.228,0.515 0.514,0.515Z" style="fill:#a0c6a2;fill-rule:nonzero;"/><path d="M935.461,70.904l24.062,0.002l0,-1.344l-24.062,0l0,1.342Z" style="fill:#a0c6a2;fill-rule:nonzero;"/><path d="M948.487,49.964l-1.996,-0c-3.622,6.114 -15.885,12.03 -15.885,12.03l33.766,0.002c0,0 -12.263,-5.918 -15.885,-12.032Z" style="fill:#a0c6a2;fill-rule:nonzero;"/><path d="M930.378,63.432l33.978,0.002c0.209,0 0.378,-0.169 0.378,-0.378c0,-0.208 -0.169,-0.379 -0.378,-0.379l-33.978,0c-0.21,0 -0.379,0.169 -0.379,0.379c0,0.207 0.169,0.376 0.379,0.376Z" style="fill:#a0c6a2;fill-rule:nonzero;"/><path d="M946.93,48.285c-0.237,0.177 -0.4,0.447 -0.4,0.766l0,0.16l1.945,-0l-0,-0.16c-0,-0.319 -0.163,-0.589 -0.4,-0.766c0.521,-0.224 0.887,-0.74 0.887,-1.341c0,-0.806 -0.654,-1.458 -1.458,-1.458c-0.807,-0 -1.459,0.652 -1.459,1.458c0,0.601 0.364,1.117 0.885,1.341Z" style="fill:#a0c6a2;fill-rule:nonzero;"/><rect x="951.472" y="64.578" width="4.711" height="4.065" style="fill:#a0c6a2;fill-rule:nonzero;"/><rect x="945.477" y="64.578" width="5.577" height="4.065" style="fill:#a0c6a2;fill-rule:nonzero;"/><path d="M939.277,64.578l-0.002,4.065l5.785,-0l-0,-4.065l-5.783,-0Z" style="fill:#a0c6a2;fill-rule:nonzero;"/><path d="M939.228,109.849l-0.002,4.403l16.593,-0l-0,-4.403l-16.591,0Z" style="fill:#a0c6a2;fill-rule:nonzero;"/><path d="M957.162,109.849l-0,4.403l9.016,-0l0,-4.401l-9.016,-0.002Z" style="fill:#a0c6a2;fill-rule:nonzero;"/><rect x="929.736" y="109.849" width="8.146" height="4.402" style="fill:#a0c6a2;fill-rule:nonzero;"/><path d="M926.535,116.866l11.901,0l-0,2.286l-11.901,-0.002l0,-2.284Zm12.382,9.153l-1.915,-0l-0,-6.388l1.915,0l0,6.388Zm2.608,-6.388l1.996,0l-0,6.388l-1.996,-0l0,-6.388Zm0.038,-2.765l11.9,0l0,2.286l-11.9,-0l-0,-2.286Zm12.141,9.153l-1.917,-0l0.002,-6.388l1.915,0l-0,6.388Zm2.246,-6.386l1.998,0l-0.002,6.386l-1.996,-0l0,-6.386Zm0.638,-2.767l11.903,0.002l-0,2.284l-11.903,-0l-0,-2.286Zm11.54,9.153l-1.915,-0l0,-6.386l1.915,0l0,6.386Zm-2.538,-0l-1.915,-0l-0,-6.386l1.915,0l-0,6.386Zm-2.353,-0l-1.996,-0l0,-6.386l1.996,0l-0,6.386Zm-2.726,-0l-1.915,-0l-0,-6.386l1.915,0l-0,6.386Zm-9.348,-0l-1.915,-0l0,-6.388l1.917,0l-0.002,6.388Zm-2.351,-0l-1.998,-0l0.002,-6.388l1.996,0l-0,6.388Zm-2.726,-0l-1.915,-0l-0,-6.388l1.915,0l0,6.388Zm-9.708,-0l-1.917,-0l0.002,-6.388l1.915,0l0,6.388Zm-2.353,-0l-1.995,-0l-0,-6.388l1.995,0l0,6.388Zm-2.726,-0l-1.915,-0l0,-6.388l1.915,0l0,6.388Zm-2.565,-0l-1.995,-0l-0,-6.388l1.995,0l0,6.388Zm-2.538,0.508l42.687,0.002l0,-10.749l-42.687,0l-0,10.747Z" style="fill:#a0c6a2;fill-rule:nonzero;"/><path d="M920.818,129.25l54.058,0.002l-0,-1.946l-54.058,-0.002l0,1.946Z" style="fill:#a0c6a2;fill-rule:nonzero;"/><path d="M917.554,132.383l60.587,0.002l-0,-1.917l-60.587,0l-0,1.915Z" style="fill:#a0c6a2;fill-rule:nonzero;"/><path d="M914.828,133.531l-0,1.917l66.036,0.003l0,-1.918l-66.036,-0.002Z" style="fill:#a0c6a2;fill-rule:nonzero;"/><path d="M637.369,127.524l-17.04,0l-3.622,-5.712l13.83,-0l-0,-3.497l-16.046,-0l-3.622,-5.713l12.834,-0l0,-3.497l-15.052,-0l-3.623,-5.713l11.841,0l0,-3.497l-14.058,-0l-3.621,-5.713l10.845,0l0,-3.497l-13.062,0l-3.623,-5.713l9.852,0l-0,-3.124l-13.516,-0l33.746,54.467l2.47,-0l-3.355,-5.293l14.822,-0l-0,-3.498Zm-66.611,-45.676l0,3.124l6.684,0l-0.831,5.713l-5.853,0l0,3.497l12.179,0l-0.829,5.713l-11.35,-0l0,3.497l17.673,0l-0.829,5.713l-16.844,-0l0,3.497l23.17,-0l-0.831,5.713l-22.339,-0l0,3.497l28.665,-0l-0.829,5.712l-27.836,0l0,3.498l34.159,-0l-0.767,5.293l8.782,-0l-31.744,-54.467l-10.43,-0Zm15.343,-13.582l-2.808,0l-0,7.69l2.806,-0l0.002,-7.69Zm-3.786,0l-2.806,0l0,7.69l2.806,-0l0,-7.69Zm-3.783,0l-2.808,0l0,7.69l2.808,-0l0,-7.69Zm12.644,11.742l-20.543,0l-0,-17.553l20.543,-0l-0,17.553Zm0.94,-22.92l-21.483,-0l-0,3.417l21.483,-0l-0,-3.417Zm-37.763,24.782l-31.728,54.445l3.265,-0l31.908,-54.445l-3.445,0Zm-10.566,0l0.017,-0.022l-9.373,-0l0,3.124l6.534,0l-3.623,5.713l-9.744,0l-0,3.497l7.527,0l-3.621,5.713l-10.74,-0l-0,3.497l8.522,0l-3.622,5.713l-11.734,-0l-0,3.497l9.516,-0l-3.622,5.713l-12.728,-0l0,3.497l10.512,-0l-3.623,5.712l-13.721,0l0,3.498l11.504,-0l-3.355,5.293l2.53,-0l33.733,-54.445l-0.889,0Zm-10.39,49.152l33.478,-0l-0,-3.498l-33.478,0l-0,3.498Zm27.172,-46.05l6.306,0l-0,-3.124l-6.306,-0l0,3.124Zm-21.709,36.84l28.015,-0l-0,-3.497l-28.015,-0l0,3.497Zm5.707,-9.21l22.308,-0l-0,-3.497l-22.308,-0l-0,3.497Zm5.466,-9.21l16.842,0l-0,-3.497l-16.842,-0l-0,3.497Zm5.387,-9.21l11.455,0l-0,-3.497l-11.455,0l0,3.497Zm-5.023,-18.226l2.806,-0l-0,-7.69l-2.806,0l-0,7.69Zm3.783,-0l2.808,-0l-0,-7.69l-2.808,0l-0,7.69Zm3.783,-0l2.808,-0l-0,-7.69l-2.808,0l-0,7.69Zm-12.086,4.052l0,-17.553l20.543,-0l-0,17.553l-20.543,0Zm20.543,-19.503l-21.481,-0l0,-3.417l21.481,-0l-0,3.417Z" style="fill:#a0c6a2;fill-rule:nonzero;"/><path d="M670.544,25.385l-1.102,0c0.185,11.263 1.001,26.984 3.68,42.285l-0.716,-0c-0.232,-1.699 -0.44,-3.156 -0.63,-4.479c-0.516,-3.612 -0.888,-6.22 -1.236,-10.047l-0.092,-1.012l-2.57,0l-0.092,1.012c-0.346,3.816 -0.716,6.416 -1.231,10.019c-0.189,1.328 -0.399,2.795 -0.633,4.507l-0.718,-0c2.678,-15.305 3.495,-31.022 3.682,-42.285l-1.102,0c-0.19,11.502 -1.045,27.687 -3.909,43.398l3.02,-0c0.95,-7.04 1.5,-10.023 1.999,-15.538l0.537,0c0.5,5.515 1.049,8.5 2.002,15.538l3.02,-0c-2.866,-15.709 -3.722,-31.894 -3.909,-43.398Z" style="fill:#a0c6a2;fill-rule:nonzero;"/><path d="M663.998,74.956l10.331,0l6.131,23.314l1.152,-0l-6.425,-24.427l-12.048,0l-6.423,24.427l1.152,-0l6.13,-23.314Z" style="fill:#a0c6a2;fill-rule:nonzero;"/><path d="M671.754,78.299l-5.182,-0l-5.213,19.971l1.15,-0l4.925,-18.858l3.46,-0l4.925,18.858l1.152,-0l-5.217,-19.971Z" style="fill:#a0c6a2;fill-rule:nonzero;"/><rect x="669.756" y="102.752" width="6.717" height="3.715" style="fill:#a0c6a2;fill-rule:nonzero;"/><rect x="661.853" y="102.752" width="6.719" height="3.715" style="fill:#a0c6a2;fill-rule:nonzero;"/><rect x="653.939" y="100.09" width="30.45" height="1.549" style="fill:#a0c6a2;fill-rule:nonzero;"/><rect x="677.658" y="102.752" width="6.731" height="3.715" style="fill:#a0c6a2;fill-rule:nonzero;"/><rect x="653.939" y="102.752" width="6.731" height="3.715" style="fill:#a0c6a2;fill-rule:nonzero;"/><path d="M685.502,98.975l-0,8.605l-32.676,0l0,-8.605l32.676,0Zm-33.791,-1.195l0,10.915l34.904,0l-0,-10.915l-34.904,0Z" style="fill:#a0c6a2;fill-rule:nonzero;"/><rect x="663.468" y="70.965" width="5.104" height="1.712" style="fill:#a0c6a2;fill-rule:nonzero;"/><rect x="669.756" y="70.965" width="5.176" height="1.712" style="fill:#a0c6a2;fill-rule:nonzero;"/><path d="M676.045,73.79l-13.69,-0l-0,-3.94l13.69,0l0,3.94Zm-14.805,-5.192l-0,6.307l15.92,-0l-0,-6.307l-15.92,-0Z" style="fill:#a0c6a2;fill-rule:nonzero;"/><path d="M669.835,17.619l-0.509,-13.213l-0.325,0l-0.508,13.213l-0.932,0l0,1.658l3.203,0l0,-1.655l-0.929,-0.003Z" style="fill:#a0c6a2;fill-rule:nonzero;"/><path d="M670.487,24.649l-2.646,-0l0,-3.065l2.646,-0l-0,3.065Zm-3.621,-4.18l0,5.295l4.596,-0l-0,-5.295l-4.596,-0Z" style="fill:#a0c6a2;fill-rule:nonzero;"/><path d="M662.429,89.759l1.785,-6.838c-0.526,0.5 -1.04,0.986 -1.542,1.463l-1.805,6.854c0.509,-0.479 1.029,-0.973 1.562,-1.479Z" style="fill:#a0c6a2;fill-rule:nonzero;"/><path d="M678.043,93.456c-0.507,-0.477 -1.029,-0.973 -1.566,-1.481l1.424,5.447l1.184,0l-1.042,-3.966Z" style="fill:#a0c6a2;fill-rule:nonzero;"/><path d="M675.944,89.936c0.533,0.504 1.054,0.998 1.562,1.477l-1.805,-6.856c-0.501,-0.473 -1.016,-0.961 -1.542,-1.461l1.785,6.84Z" style="fill:#a0c6a2;fill-rule:nonzero;"/><path d="M660.33,93.281l-1.088,4.141l1.187,0l1.467,-5.622c-0.535,0.508 -1.057,1.002 -1.566,1.481Z" style="fill:#a0c6a2;fill-rule:nonzero;"/><path d="M675.165,82.514l-1.695,-6.443l-8.614,0l-1.648,6.268c0.5,-0.473 1.013,-0.958 1.539,-1.458l0.965,-3.697l6.902,0l1.012,3.872c0.524,0.497 1.039,0.985 1.539,1.458Z" style="fill:#a0c6a2;fill-rule:nonzero;"/><path d="M646.422,130.157c-0.938,2.043 -1.907,4.144 -2.888,6.271c1.265,-0.996 2.621,-2.062 4.038,-3.179c-0.374,-1.004 -0.757,-2.034 -1.15,-3.092Z" style="fill:#a0c6a2;fill-rule:nonzero;"/><path d="M649.985,136.539c0.646,-1.987 1.405,-3.845 2.263,-5.559c-1.144,0.906 -2.267,1.79 -3.357,2.65c0.397,1.057 0.781,2.08 1.094,2.909Z" style="fill:#a0c6a2;fill-rule:nonzero;"/><path d="M643.343,137.993l5.998,0c-0.432,-1.154 -0.888,-2.376 -1.362,-3.647c-1.635,1.29 -3.19,2.512 -4.636,3.647Z" style="fill:#a0c6a2;fill-rule:nonzero;"/><path d="M647.924,127.87l5.836,-0c-0.422,-1.125 -0.864,-2.312 -1.325,-3.549c-1.588,1.251 -3.1,2.44 -4.511,3.549Z" style="fill:#a0c6a2;fill-rule:nonzero;"/><path d="M648.481,132.533c1.455,-1.145 2.967,-2.338 4.518,-3.565l-5.824,0c0.331,0.936 0.806,2.228 1.306,3.565Z" style="fill:#a0c6a2;fill-rule:nonzero;"/><path d="M653.355,123.597c0.391,1.047 0.763,2.043 1.121,3.006c0.959,-2.074 1.901,-4.123 2.814,-6.11c-1.345,1.064 -2.662,2.102 -3.935,3.104Z" style="fill:#a0c6a2;fill-rule:nonzero;"/><path d="M660.588,118.123l7.432,0c-0.874,-1.388 -1.804,-2.863 -2.777,-4.41c-1.648,1.561 -3.207,3.04 -4.655,4.41Z" style="fill:#a0c6a2;fill-rule:nonzero;"/><path d="M668.571,116.91l0,-6.363c-0.851,0.81 -1.686,1.604 -2.505,2.382c0.878,1.395 1.715,2.728 2.505,3.981Z" style="fill:#a0c6a2;fill-rule:nonzero;"/><path d="M656.805,124.216c2.069,-2.277 4.387,-3.974 6.864,-4.994l-4.569,-0c-0.746,1.625 -1.514,3.293 -2.295,4.994Z" style="fill:#a0c6a2;fill-rule:nonzero;"/><path d="M652.822,118.123l5.264,0c-0.382,-1.024 -0.78,-2.09 -1.195,-3.201c-1.424,1.121 -2.785,2.193 -4.069,3.201Z" style="fill:#a0c6a2;fill-rule:nonzero;"/><path d="M661.507,111.283c-1.263,0.996 -2.499,1.973 -3.696,2.915c0.368,0.99 0.719,1.932 1.061,2.845c0.93,-2.026 1.816,-3.966 2.635,-5.76Z" style="fill:#a0c6a2;fill-rule:nonzero;"/><path d="M694.819,136.481c-1,-2.162 -1.984,-4.297 -2.938,-6.375c-0.399,1.076 -0.788,2.123 -1.169,3.143c1.442,1.138 2.821,2.222 4.107,3.232Z" style="fill:#a0c6a2;fill-rule:nonzero;"/><path d="M661.567,109.816l-5.386,0c0.418,1.126 0.825,2.22 1.222,3.286c1.344,-1.06 2.736,-2.158 4.164,-3.286Z" style="fill:#a0c6a2;fill-rule:nonzero;"/><path d="M667.724,109.816l-3.615,0c0.457,0.729 0.91,1.447 1.352,2.15c0.741,-0.701 1.496,-1.419 2.263,-2.15Z" style="fill:#a0c6a2;fill-rule:nonzero;"/><path d="M650.938,120.296c-0.838,1.835 -1.747,3.822 -2.703,5.914c1.195,-0.942 2.464,-1.94 3.793,-2.985c-0.356,-0.953 -0.718,-1.93 -1.09,-2.929Z" style="fill:#a0c6a2;fill-rule:nonzero;"/><path d="M655.737,109.816l-0.033,0c-0.006,0.011 -0.012,0.027 -0.019,0.037c0.011,-0.006 0.021,-0.012 0.031,-0.018c0.007,-0.006 0.013,-0.014 0.021,-0.019Z" style="fill:#a0c6a2;fill-rule:nonzero;"/><path d="M657.103,119.222l-5.375,-0c0.417,1.123 0.822,2.215 1.219,3.279c1.34,-1.058 2.732,-2.154 4.156,-3.279Z" style="fill:#a0c6a2;fill-rule:nonzero;"/><path d="M655.313,110.678c-0.658,1.451 -1.648,3.633 -2.878,6.332c1.269,-0.997 2.627,-2.065 4.049,-3.184c-0.381,-1.023 -0.772,-2.072 -1.171,-3.148Z" style="fill:#a0c6a2;fill-rule:nonzero;"/><path d="M664.636,112.75c-0.487,-0.778 -0.985,-1.57 -1.489,-2.374c-0.942,2.063 -1.969,4.31 -3.055,6.684c1.405,-1.331 2.929,-2.777 4.544,-4.31Z" style="fill:#a0c6a2;fill-rule:nonzero;"/><path d="M680.935,120.446c0.926,2.016 1.882,4.096 2.855,6.202c0.364,-0.975 0.743,-1.987 1.138,-3.051c-1.29,-1.016 -2.627,-2.071 -3.993,-3.151Z" style="fill:#a0c6a2;fill-rule:nonzero;"/><path d="M691.109,128.968l-5.825,0c1.551,1.227 3.065,2.42 4.519,3.565c0.498,-1.337 0.975,-2.629 1.306,-3.565Z" style="fill:#a0c6a2;fill-rule:nonzero;"/><path d="M685.847,124.321c-0.46,1.237 -0.903,2.424 -1.324,3.549l5.838,-0c-1.412,-1.109 -2.926,-2.298 -4.514,-3.549Z" style="fill:#a0c6a2;fill-rule:nonzero;"/><path d="M674.659,119.222c2.411,0.993 4.671,2.629 6.7,4.813c-0.755,-1.637 -1.494,-3.246 -2.214,-4.813l-4.486,-0Z" style="fill:#a0c6a2;fill-rule:nonzero;"/><path d="M653.437,136.247l5.414,-0c0.955,-5.756 2.675,-10.531 4.845,-13.563c-4.248,2.234 -7.906,7.023 -10.259,13.563Z" style="fill:#a0c6a2;fill-rule:nonzero;"/><path d="M674.632,122.684c2.17,3.034 3.89,7.807 4.844,13.563l5.413,-0c-2.352,-6.54 -6.011,-11.329 -10.257,-13.563Z" style="fill:#a0c6a2;fill-rule:nonzero;"/><path d="M669.472,119.222l-0.617,-0c-8.103,0.191 -15.278,7.914 -18.483,19.884l-9.307,0c6.353,-13.705 12.516,-27.302 13.921,-30.405l28.356,0c1.405,3.103 7.568,16.7 13.918,30.405l-9.306,0c-3.203,-11.97 -10.378,-19.693 -18.482,-19.884Zm14.588,-11.635l-29.794,-0c0,-0 -7.416,16.416 -14.945,32.634l11.915,0c2.896,-11.678 9.831,-19.905 17.928,-19.905c8.097,0 15.029,8.227 17.928,19.905l11.915,0c-7.531,-16.218 -14.947,-32.634 -14.947,-32.634Z" style="fill:#a0c6a2;fill-rule:nonzero;"/><path d="M673.169,113.711c-0.973,1.549 -1.903,3.024 -2.777,4.412l7.432,0c-1.448,-1.37 -3.007,-2.849 -4.655,-4.412Z" style="fill:#a0c6a2;fill-rule:nonzero;"/><path d="M690.118,126.263c-0.969,-2.116 -1.893,-4.137 -2.753,-6.021c-0.378,1.018 -0.748,2.012 -1.108,2.983c1.351,1.066 2.645,2.082 3.861,3.038Z" style="fill:#a0c6a2;fill-rule:nonzero;"/><path d="M686.106,131.038c0.84,1.681 1.582,3.497 2.216,5.439c0.309,-0.819 0.683,-1.816 1.07,-2.847c-1.068,-0.843 -2.164,-1.707 -3.286,-2.592Z" style="fill:#a0c6a2;fill-rule:nonzero;"/><path d="M690.303,134.346c-0.473,1.271 -0.93,2.493 -1.36,3.647l5.997,0c-1.446,-1.135 -3.001,-2.357 -4.637,-3.647Z" style="fill:#a0c6a2;fill-rule:nonzero;"/><path d="M680.326,118.123l5.264,0c-1.284,-1.008 -2.645,-2.08 -4.069,-3.201c-0.415,1.111 -0.812,2.177 -1.195,3.201Z" style="fill:#a0c6a2;fill-rule:nonzero;"/><path d="M685.843,116.905c-1.1,-2.419 -2.049,-4.509 -2.781,-6.124c-0.387,1.041 -0.765,2.055 -1.134,3.045c1.373,1.08 2.685,2.113 3.915,3.079Z" style="fill:#a0c6a2;fill-rule:nonzero;"/><path d="M685.337,122.501c0.395,-1.064 0.8,-2.156 1.218,-3.279l-5.375,-0c1.425,1.125 2.816,2.221 4.157,3.279Z" style="fill:#a0c6a2;fill-rule:nonzero;"/><path d="M682.231,109.816l-5.386,0c1.428,1.128 2.821,2.226 4.164,3.286c0.397,-1.066 0.804,-2.16 1.222,-3.286Z" style="fill:#a0c6a2;fill-rule:nonzero;"/><path d="M680.602,114.198c-1.28,-1.008 -2.605,-2.053 -3.958,-3.121c0.872,1.912 1.822,3.989 2.822,6.168c0.362,-0.975 0.741,-1.985 1.136,-3.047Z" style="fill:#a0c6a2;fill-rule:nonzero;"/><path d="M669.756,110.467l0,6.578c0.815,-1.294 1.681,-2.67 2.59,-4.116c-0.847,-0.804 -1.709,-1.625 -2.59,-2.462Z" style="fill:#a0c6a2;fill-rule:nonzero;"/><path d="M674.303,109.816l-3.615,0c0.768,0.731 1.523,1.449 2.263,2.15c0.442,-0.703 0.895,-1.421 1.352,-2.15Z" style="fill:#a0c6a2;fill-rule:nonzero;"/><path d="M678.028,116.782c-1.014,-2.214 -1.973,-4.312 -2.857,-6.254c-0.473,0.753 -0.938,1.494 -1.395,2.222c1.502,1.428 2.927,2.777 4.252,4.032Z" style="fill:#a0c6a2;fill-rule:nonzero;"/><path d="M670.968,42.534l-4.071,4.13c0.012,0.206 0.021,0.412 -0,0.619c-0.006,0.066 -0.029,0.118 -0.037,0.181l0.389,0.385l3.814,-3.871c-0.111,-0.461 -0.138,-0.953 -0.095,-1.444Z" style="fill:#a0c6a2;fill-rule:nonzero;"/><path d="M670.466,34.282l-2.96,3.004c0.01,0.205 0.02,0.411 -0,0.617c-0.006,0.066 -0.029,0.119 -0.039,0.183l0.389,0.385l2.795,-2.839c-0.133,-0.451 -0.189,-0.912 -0.185,-1.35Z" style="fill:#a0c6a2;fill-rule:nonzero;"/><path d="M671.13,47.806c-0.15,-0.658 -0.306,-1.317 -0.436,-1.981l-3.242,-3.291c0.044,0.491 0.017,0.983 -0.094,1.444l3.772,3.828Z" style="fill:#a0c6a2;fill-rule:nonzero;"/><path d="M670.304,38.032c-0.017,-0.434 0.026,-0.855 0.098,-1.267l-2.448,-2.483c0.004,0.438 -0.051,0.899 -0.185,1.35l2.539,2.577c-0.002,-0.059 -0.002,-0.117 -0.004,-0.177Z" style="fill:#a0c6a2;fill-rule:nonzero;"/><path d="M752.99,97.716l0.029,-9.598c0.008,-2.292 1.942,-4.143 4.32,-4.143c2.378,-0 4.314,1.851 4.32,4.143l0.033,9.596c-1.201,-0.002 -2.411,-0.004 -3.637,-0.004c-1.716,0 -3.4,0.002 -5.065,0.006Zm-5.574,0.017c-2.843,0.012 -5.592,0.029 -8.241,0.049l0.123,-9.288c0.029,-2.215 1.833,-4.118 4.065,-4.258c2.275,-0.144 4.137,1.59 4.12,3.882l-0.067,9.615Zm-13.746,0.099c-2.607,0.028 -5.094,0.059 -7.449,0.092l0.193,-8.432c0.045,-2.012 1.634,-3.892 3.627,-4.215c2.088,-0.34 3.826,1.146 3.789,3.336l-0.16,9.219Zm-11.856,0.16c-2.709,0.047 -5.2,0.097 -7.451,0.148l0.233,-7.371c0.055,-1.754 1.572,-3.571 3.53,-4.095c2.135,-0.574 3.968,0.582 3.915,2.633l-0.227,8.685Zm-10.024,0.212c-2.454,0.064 -4.542,0.132 -6.235,0.197l0.224,-5.897c0.053,-1.403 1.222,-3.084 2.804,-3.849c1.845,-0.891 3.534,-0.231 3.47,1.623l-0.263,7.926Zm-7.77,0.263c-1.004,0.045 -1.808,0.093 -2.384,0.138l0.195,-4.793c0.048,-1.136 0.525,-2.497 1.144,-3.119c0.722,-0.722 1.356,-0.187 1.296,1.317l-0.251,6.457Zm109.942,2.944l-0.113,-2.73c-0.002,-0.037 -0.335,-0.078 -0.948,-0.121l-0.079,-1.942c0,-0 -18.144,-3.065 -45.469,-2.979c-1.02,0.004 -2.738,-7.432 -4.367,-11.759c-1.335,-0.053 -2.678,-0.102 -4.044,-0.137c-27.706,-0.708 -49.372,2.481 -56.998,5.62l-0.46,11.254c-0.613,0.052 -0.947,0.101 -0.949,0.146l-0.109,2.629c-0.006,0.14 28.294,0.325 57.633,0.325c27.348,0 55.909,-0.164 55.903,-0.306Z" style="fill:#a0c6a2;fill-rule:nonzero;"/><path d="M700.529,136.265l0.22,-10.086c0.113,-2.752 0.735,-4.978 1.389,-4.978c0.654,-0 1.098,2.226 0.991,4.978l-0.211,10.086l1.857,0l0.161,-8.87c0.102,-2.759 1.621,-4.987 3.388,-4.987c1.767,0 3.127,2.228 3.034,4.987l-0.138,8.87l2.631,0l0.109,-8.173c0.087,-2.763 1.761,-4.993 3.742,-4.993c1.979,0 3.528,2.23 3.456,4.993l-0.092,8.173l4.562,0l0.058,-7.233c0.062,-2.765 1.806,-4.997 3.894,-4.997c2.088,0 3.742,2.232 3.693,4.997l-0.044,7.233l5.719,0l0.027,-6.624c0.035,-2.767 1.889,-5.003 4.135,-5.003c2.248,0 4.055,2.236 4.034,5.003l-0.014,6.624l5.755,0l0.007,-6.35c0.008,-2.769 2.001,-5.005 4.451,-5.005c2.45,-0 4.446,2.236 4.454,5.005l0.006,6.35l5.528,0l-0.015,-6.624c-0.02,-2.767 1.786,-5.003 4.032,-5.003c2.249,0 4.1,2.236 4.137,5.003l0.025,6.624l5.721,0l-0.045,-7.233c-0.048,-2.765 1.606,-4.997 3.694,-4.997c2.088,0 3.831,2.232 3.894,4.997l0.058,7.233l4.563,0l-0.093,-8.173c-0.072,-2.763 1.475,-4.993 3.456,-4.993c1.981,0 3.656,2.23 3.742,4.993l0.109,8.173l2.631,0l-0.14,-8.87c-0.09,-2.759 1.27,-4.987 3.037,-4.987c1.767,0 3.283,2.228 3.388,4.987l0.158,8.87l1.86,0l-0.212,-10.086c-0.109,-2.752 0.335,-4.978 0.989,-4.978c0.657,-0 1.278,2.226 1.389,4.978l0.222,10.086l0.325,0l-0.442,-15.455c-5.628,1.454 -31.133,2.929 -55.738,2.929c-26.385,0 -51.877,-1.658 -57.493,-3.135l-0.453,15.661l0.399,0Z" style="fill:#a0c6a2;fill-rule:nonzero;"/><path d="M810.979,116.922l-0.335,-8.607c-0.093,-2.36 0.356,-4.267 1.004,-4.267c0.646,0 1.248,1.907 1.345,4.267l0.34,8.331c-0.661,0.093 -1.449,0.185 -2.354,0.276Zm-8.195,0.621l-0.305,-9.228c-0.078,-2.36 1.271,-4.267 3.018,-4.267c1.744,0 3.23,1.907 3.318,4.267l0.331,8.778c-1.812,0.156 -3.958,0.306 -6.362,0.45Zm-9.737,0.481l-0.253,-9.709c-0.06,-2.36 1.473,-4.267 3.427,-4.267c1.955,0 3.596,1.907 3.67,4.267l0.292,9.374c-2.211,0.119 -4.602,0.231 -7.136,0.335Zm-12.04,0.395l-0.173,-10.104c-0.041,-2.36 1.594,-4.267 3.651,-4.267c2.059,0 3.771,1.907 3.824,4.267l0.225,9.878c-2.424,0.082 -4.937,0.159 -7.527,0.226Zm-13.769,0.249l-0.076,-10.353c-0.016,-2.36 1.765,-4.267 3.979,-4.267c2.215,0 4.036,1.907 4.067,4.267l0.135,10.23c-2.664,0.051 -5.373,0.095 -8.105,0.123Zm-9.15,0.05c-1.728,-0 -3.45,-0.006 -5.163,-0.017l0.032,-10.386c0.007,-2.36 1.971,-4.267 4.384,-4.267c2.415,0 4.378,1.907 4.386,4.267l0.035,10.392c-1.226,0.007 -2.452,0.011 -3.674,0.011Zm-10.866,-0.07c-2.748,-0.035 -5.457,-0.08 -8.105,-0.138l0.134,-10.195c0.031,-2.36 1.851,-4.267 4.067,-4.267c2.213,0 3.995,1.907 3.978,4.267l-0.074,10.333Zm-13.77,-0.276c-2.596,-0.074 -5.112,-0.154 -7.525,-0.245l0.222,-9.812c0.053,-2.36 1.765,-4.267 3.824,-4.267c2.057,0 3.693,1.907 3.653,4.267l-0.174,10.057Zm-12.039,-0.426c-2.54,-0.111 -4.929,-0.23 -7.134,-0.356l0.288,-9.275c0.074,-2.36 1.718,-4.267 3.67,-4.267c1.954,0 3.489,1.907 3.427,4.267l-0.251,9.631Zm-9.734,-0.512c-2.407,-0.152 -4.553,-0.311 -6.361,-0.473l0.325,-8.646c0.089,-2.36 1.576,-4.267 3.32,-4.267c1.745,0 3.094,1.907 3.018,4.267l-0.302,9.119Zm-7.863,-9.119l-0.331,8.469c-0.903,-0.095 -1.691,-0.189 -2.353,-0.284l0.333,-8.185c0.097,-2.36 0.7,-4.267 1.346,-4.267c0.648,0 1.096,1.907 1.005,4.267Zm110.584,8.163c-0.224,0.041 -0.483,0.082 -0.759,0.123l-0.57,-13.9c-6.455,0.123 -31.178,0.247 -55.001,0.247c-25.546,-0 -50.306,-0.138 -56.753,-0.266l-0.564,13.763c-0.277,-0.042 -0.534,-0.085 -0.759,-0.126l-0.105,2.504c-0.065,1.58 28.492,3.707 58.181,3.707c27.672,-0 56.503,-1.893 56.437,-3.5l-0.107,-2.552Z" style="fill:#a0c6a2;fill-rule:nonzero;"/><path d="M730.975,73.788l-4.341,0.724l0.089,-3.933c0.033,-1.381 1.024,-2.66 2.217,-2.858c1.193,-0.199 2.14,0.757 2.111,2.138l-0.076,3.929Zm-16.86,3.579l-3.352,1.164l0.112,-3.188c0.039,-1.121 0.818,-2.286 1.74,-2.604c0.921,-0.319 1.639,0.329 1.602,1.446l-0.102,3.182Zm48.521,2.193c0.735,-0.109 -0.294,-4.631 -1.812,-4.727c-0.296,-0.004 -0.601,-0.002 -0.899,-0.006c-0.099,-0.151 -0.189,-0.264 -0.269,-0.323c-1.327,-0.994 -5.649,0.308 -6.423,-1.163c-2.09,-3.972 -3.153,-8.485 -4.032,-11.497c-23.285,2.063 -39.859,9.679 -46.851,16.321c0.057,-0.366 0.179,-1.008 0.327,-1.16c6.706,-6.774 23.466,-14.665 47.158,-16.469c-0.498,-1.549 -0.969,-2.514 -1.568,-2.498c-25.638,2.292 -44.134,12.215 -46.629,19.399c-0.305,0.874 0.675,0.987 0.675,0.987l-0.262,6.361c-0.504,0.492 -0.787,0.969 -0.806,1.413l-0.031,0.768c5.631,-3.318 27.844,-7.445 56.847,-7.445c1.545,-0 3.069,0.014 4.575,0.039Z" style="fill:#a0c6a2;fill-rule:nonzero;"/><path d="M832.904,130.581l-5.412,0c-0.708,0 -1.282,0.574 -1.282,1.282l0,4.371l7.976,0l-0,-4.371c-0,-0.708 -0.574,-1.282 -1.282,-1.282Z" style="fill:#a0c6a2;fill-rule:nonzero;"/><path d="M864.578,130.581l-5.41,0c-0.708,0 -1.282,0.574 -1.282,1.282l0,4.371l7.974,0l-0,-4.371c-0,-0.708 -0.574,-1.282 -1.282,-1.282Z" style="fill:#a0c6a2;fill-rule:nonzero;"/><rect x="828.383" y="99.076" width="3.678" height="1.088" style="fill:#a0c6a2;fill-rule:nonzero;"/><rect x="860.301" y="99.076" width="3.678" height="1.088" style="fill:#a0c6a2;fill-rule:nonzero;"/><path d="M872.416,108.329l-52.47,0c-0.644,0 -1.166,0.521 -1.166,1.165c-0,0.645 0.522,1.166 1.166,1.166l52.47,-0c0.644,-0 1.166,-0.521 1.166,-1.166c0,-0.644 -0.522,-1.165 -1.166,-1.165Z" style="fill:#a0c6a2;fill-rule:nonzero;"/><path d="M878.137,81.967c-28.412,5.375 -34.665,5.174 -63.914,-0c-1.687,-0.298 -2.631,0.839 -2.221,1.851l2.312,5.731c0.347,0.86 1.812,1.543 3.279,1.543l57.174,0c1.467,0 2.934,-0.683 3.281,-1.543l2.312,-5.731c0.41,-1.012 -0.536,-2.17 -2.223,-1.851Z" style="fill:#a0c6a2;fill-rule:nonzero;"/><path d="M831.97,105.338l0,-4.68l-3.499,0l0,4.526c1.226,0.057 2.388,0.107 3.499,0.154Z" style="fill:#a0c6a2;fill-rule:nonzero;"/><path d="M863.889,105.202l-0,-4.544l-3.497,0l-0,4.705c1.115,-0.048 2.279,-0.101 3.497,-0.161Z" style="fill:#a0c6a2;fill-rule:nonzero;"/><rect x="860.392" y="111.437" width="3.497" height="18.368" style="fill:#a0c6a2;fill-rule:nonzero;"/><rect x="828.471" y="111.437" width="3.499" height="18.368" style="fill:#a0c6a2;fill-rule:nonzero;"/><path d="M820.436,106.046l1.74,1.187c0.261,0.179 1.366,0.321 2.471,0.321l43.066,-0c1.105,-0 2.21,-0.142 2.471,-0.321l1.742,-1.187c0.309,-0.21 -0.405,-0.451 -1.674,-0.385c-21.401,1.115 -26.112,1.072 -48.142,0c-1.271,-0.062 -1.983,0.175 -1.674,0.385Z" style="fill:#a0c6a2;fill-rule:nonzero;"/><path d="M874.777,92.325l-57.192,-0c0.518,0.594 1.617,1.028 2.725,1.028l51.742,0c1.108,0 2.207,-0.434 2.725,-1.028Z" style="fill:#a0c6a2;fill-rule:nonzero;"/><path d="M866.816,97.307l0.87,-3.057l-43.027,0l0.912,3.152c0.203,0.705 1.444,1.263 2.77,1.261l35.71,-0.083c1.327,-0.002 2.564,-0.567 2.765,-1.273Z" style="fill:#a0c6a2;fill-rule:nonzero;"/><path d="M416.403,71.965c49.46,0.021 41.422,-2.047 41.422,-2.047c0,0 -20.19,-2.993 -30.059,-8.276c-6.196,-0.002 -15.835,-0.006 -22.721,-0.01c-8.724,5.964 -30.065,8.251 -30.065,8.251c0,0 -8.498,2.061 41.423,2.082Z" style="fill:#a0c6a2;fill-rule:nonzero;"/><path d="M426.045,83.551l-0,-1.36l2.059,-2.067l4.024,0.002l1.944,1.956l-0.003,1.473l-8.024,-0.004Zm0.002,-6.108l1.977,-1.985l4.186,0l1.864,1.876l-0.002,1.553l-8.025,-0.004l-0,-1.44Zm9.063,9.525l2.165,-2.173l3.861,0.003l1.999,2.013l0,1.414l-8.025,-0.002l0,-1.255Zm0.002,-4.748l2.082,-2.092l4.024,0.002l1.919,1.931l0,1.496l-8.025,-0.002l0,-1.335Zm0.003,-4.75l1.999,-2.01l4.186,0.002l1.839,1.852l0,1.577l-8.024,-0.004l-0,-1.417Zm-10.109,1.413l-8.027,-0.004l0.002,-1.465l1.952,-1.96l4.186,0.002l1.887,1.899l-0,1.528Zm-9.068,-0.004l-8.025,-0.004l-0,-1.489l1.927,-1.936l4.187,0.002l1.911,1.923l-0,1.504Zm-9.068,-0.004l-8.025,-0.002l0,-1.514l1.905,-1.913l4.186,0.002l1.934,1.948l-0,1.479Zm-0.002,4.668l-8.025,-0.004l-0,-1.432l1.985,-1.994l4.024,0.002l2.016,2.029l-0,1.399Zm-9.066,-4.672l-8.025,-0.002l0.002,-1.539l1.878,-1.888l4.187,0.002l1.96,1.972l-0.002,1.455Zm-0.002,4.668l-8.025,-0.003l0.002,-1.456l1.961,-1.971l4.023,0.002l2.041,2.053l-0.002,1.375Zm-0.002,4.667l-8.025,-0.004l0.002,-1.374l2.041,-2.051l3.861,0.002l2.123,2.135l-0.002,1.292Zm46.212,1.041l0.006,-15.091c-6.194,0.325 -15.061,0.551 -27.755,0.547c-12.512,-0.006 -21.3,-0.216 -27.473,-0.516l-0.007,15.037l13.952,0.007l0,-1.023l-3.892,-0.002l-0,-1.349l2.067,-2.076l3.862,0.002l2.096,2.111l-0,0.683c0.638,-0.459 1.063,-1.109 1.534,-1.848c0.476,-0.74 1.023,-1.569 1.866,-2.184l-2.355,-0.002l-0,-1.407l2.01,-2.019l4.023,0.003l1.992,2.003l-0,0.527l1.043,0.002l-0,-0.488l2.032,-2.042l4.024,-0l1.969,1.981l-0,1.448l-2.22,-0.002c1.006,0.658 1.709,1.569 2.318,2.38c0.323,0.432 0.624,0.827 0.941,1.168l-0,-0.156l2.139,-2.15l3.861,0.002l2.026,2.039l-0.002,1.389l-4.149,-0c0.033,0.135 0.056,0.279 0.056,0.438l-0,0.582l14.036,0.006Z" style="fill:#a0c6a2;fill-rule:nonzero;"/><path d="M475.801,98.591c-0,-0 -18.644,-1.173 -29.854,-7.379c-2.201,-0.002 -8.804,-0.004 -16.866,-0.009l-0,3.784l-0.955,-0.029c-0.205,-0.006 -0.421,-0.017 -0.623,-0.025c-0.239,-0.012 -0.455,-0.023 -0.607,-0.023c-2.265,0 -3.339,-1.129 -4.285,-2.123c-0.707,-0.742 -1.304,-1.355 -2.386,-1.586c-2.506,-0.002 -5.044,-0.002 -7.55,-0.004c-0.847,0.204 -1.249,0.696 -1.785,1.356c-0.852,1.047 -1.909,2.349 -4.884,2.349c-0.167,0 -1.206,-0.016 -1.533,-0.016l-0.923,-0.004l-0,-3.689c-7.817,-0.002 -14.254,-0.006 -16.626,-0.006c-9.187,5.316 -29.86,7.354 -29.86,7.354c0,0 15.137,1.848 59.645,1.866c44.101,0.019 59.092,-1.816 59.092,-1.816Z" style="fill:#a0c6a2;fill-rule:nonzero;"/><path d="M419.665,84.507l-6.424,-0.004c-4.865,-0.002 -3.246,5.534 -8.764,5.608l0,2.689c0.614,0.002 1.179,0.016 1.525,0.016c4.894,0.002 3.437,-3.81 7.673,-3.808l5.554,0.003c4.236,0.002 3.835,3.811 7.669,3.813c0.286,0 0.798,0.035 1.255,0.048l0,-2.775c-4.015,-0.329 -3.738,-5.587 -8.488,-5.59Z" style="fill:#a0c6a2;fill-rule:nonzero;"/><path d="M456.766,109.358l-8.264,-0.002l0.002,-1.5l2.019,-2.028l4.143,0.002l2.1,2.112l-0,1.416Zm-0.002,4.312l-8.262,-0.005l0,-1.499l2.018,-2.029l4.144,0.002l2.1,2.115l-0,1.416Zm-7.566,0.808l-0,-0.031l0.031,0c-0.011,0.01 -0.021,0.021 -0.031,0.031Zm6.249,3.501l-6.251,-0.004l0.002,-2.199l1.32,-1.327l4.143,0l0.788,0.792l-0.002,2.738Zm-7.792,-8.625l-8.262,-0.002l0,-1.5l2.018,-2.028l4.144,0.002l2.1,2.114l-0,1.414Zm-0.002,4.311l-8.262,-0.004l0,-1.499l2.018,-2.029l4.143,0.002l2.101,2.115l-0,1.415Zm-1.457,4.31l-5.655,-0.002l0.002,-2.66l0.864,-0.868l4.143,0l0.646,0.65l0,2.88Zm-7.652,-8.626l-8.262,-0.002l0,-1.499l2.018,-2.029l4.143,0.003l2.101,2.114l-0,1.413Zm-0.002,4.312l-8.262,-0.004l0,-1.499l2.02,-2.029l4.141,0.002l2.103,2.115l-0.002,1.415Zm-1,4.31l-7.264,-0.004l0,-1.498l2.02,-2.028l4.141,0.002l1.103,1.109l-0,2.419Zm-8.109,-8.624l-8.262,-0.004l0,-1.499l2.02,-2.029l4.141,0.002l2.103,2.115l-0.002,1.415Zm-0.002,4.31l-8.262,-0.004l0.002,-1.5l2.018,-2.026l4.143,0l2.101,2.115l-0.002,1.415Zm-0,4.31l-8.264,-0.002l0.002,-1.5l2.018,-2.028l4.143,0.002l2.101,2.113l-0,1.415Zm-9.107,-8.624l-8.264,-0.004l0.002,-1.499l2.018,-2.029l4.143,0.002l2.101,2.115l-0,1.415Zm-0.002,4.31l-8.262,-0.004l0,-1.498l2.018,-2.028l4.143,0.002l2.101,2.113l-0,1.415Zm-0.002,4.31l-8.262,-0.002l0,-1.5l2.018,-2.028l4.143,0.002l2.101,2.114l-0,1.414Zm-9.107,-8.624l-8.262,-0.004l0,-1.5l2.018,-2.026l4.143,0l2.101,2.115l-0,1.415Zm-0.002,4.31l-8.262,-0.002l0,-1.5l2.018,-2.028l4.143,0.002l2.101,2.113l-0,1.415Zm-0.003,4.312l-8.261,-0.004l-0,-1.5l2.018,-2.028l4.143,0.002l2.1,2.114l0,1.416Zm-9.107,-8.626l-8.261,-0.004l-0,-1.498l2.018,-2.028l4.143,0.002l2.1,2.113l0,1.415Zm-0.002,4.31l-8.261,-0.002l-0,-1.5l2.02,-2.028l4.141,0.002l2.102,2.115l-0.002,1.413Zm-0.002,4.312l-7.241,-0.005l0,-2.524l1,-1.004l4.141,0.003l2.102,2.114l-0.002,1.416Zm-9.107,-8.626l-8.261,-0.002l-0,-1.5l2.02,-2.028l4.141,0.002l2.102,2.113l-0.002,1.415Zm-0.002,4.312l-8.261,-0.004l0.002,-1.5l2.018,-2.028l4.143,0.002l2.1,2.114l-0.002,1.416Zm-1.133,4.309l-6.252,-0.004l0.002,-2.382l1.14,-1.144l4.143,0l0.969,0.978l-0.002,2.552Zm-7.974,-8.625l-8.263,-0.002l0.002,-1.5l2.018,-2.028l4.143,0.002l2.1,2.115l0,1.413Zm-0.002,4.312l-8.261,-0.004l-0,-1.5l2.018,-2.028l4.143,0.002l2.1,2.114l0,1.416Zm-1.275,4.309l-5.653,-0.002l-0,-2.843l0.683,-0.685l4.143,0.002l0.827,0.833l-0,2.695Zm75.129,-15.136l-82.839,-0.035l-0.006,10.868l-0.936,-0l-0.011,23.141l0.938,-0l0,0.119l0.14,-0l0,-17.543l3.748,-0l0,17.545l4.499,0.002l0,-17.547l3.748,-0l0,17.547l4.499,0.002l0,-17.549l3.748,-0l0,17.551l6.954,0.002l-0,-16.008l27.66,-0l-0,16.021l7.727,0.004l-0,-17.57l3.748,-0l-0,17.57l4.499,0.002l-0,-17.572l3.748,-0l-0,17.574l4.499,0.002l-0,-17.576l3.748,-0l-0,17.459l0.596,-0l0.009,-23.141l-0.72,-0l0.004,-10.868Z" style="fill:#a0c6a2;fill-rule:nonzero;"/><path d="M906.196,22.147c0,0 -0.006,-0.006 -0.006,-0.008l-0,-2.65c-0.405,0.099 -0.73,0.786 -0.798,1.669c-1.664,-2.16 -5.52,-7.774 -7.445,-15.69c-0.004,-0.017 -0.033,-0.023 -0.047,-0.035c-0.025,-1.631 -0.134,-2.864 -0.266,-2.864c-0.131,0 -0.24,1.241 -0.263,2.88c-0.006,0.009 -0.023,0.011 -0.025,0.019c-1.689,8.181 -5.712,13.694 -7.434,15.76c-0.056,-0.916 -0.385,-1.636 -0.8,-1.739l-0,2.646c-0.003,-0 -0.013,0.012 -0.013,0.012l0.013,0l-0,1.358l17.078,-0l-0,-1.358l0.006,0Z" style="fill:#a0c6a2;fill-rule:nonzero;"/><path d="M888.482,39.016c0.165,-0.321 0.625,-0.554 1.047,-0.554c0.424,0 0.724,0.233 0.669,0.554l-0.334,1.933l-2.363,0l0.981,-1.933Zm3.324,-4.174c0.112,-0.323 0.533,-0.556 0.957,-0.556c0.422,0 0.761,0.233 0.757,0.556l-0.021,1.932l-2.363,-0l0.67,-1.932Zm2.162,4.174c0.068,-0.321 0.459,-0.554 0.883,-0.554c0.422,0 0.792,0.233 0.833,0.554l0.241,1.933l-2.364,0l0.407,-1.933Zm2.854,-4.174c0.053,-0.323 0.434,-0.556 0.855,-0.556c0.424,0 0.805,0.233 0.858,0.556l0.325,1.932l-2.363,-0l0.325,-1.932Zm2.839,4.174c0.041,-0.321 0.411,-0.554 0.835,-0.554c0.422,0 0.812,0.233 0.88,0.554l0.408,1.933l-2.364,0l0.241,-1.933Zm2.74,-4.73c0.423,0 0.845,0.233 0.956,0.556l0.669,1.932l-2.362,-0l-0.022,-1.932c-0.002,-0.323 0.337,-0.556 0.759,-0.556Zm3.554,4.176c0.422,0 0.883,0.233 1.045,0.554l0.984,1.933l-2.364,0l-0.333,-1.933c-0.058,-0.321 0.245,-0.554 0.668,-0.554Zm4.781,3.442l-5.573,-8.73l-15.179,-0l-5.575,8.73c-0.206,-0.796 -0.562,-1.356 -0.977,-1.463l-0,6.087l28.281,0l0,-6.087c-0.415,0.107 -0.771,0.667 -0.977,1.463Z" style="fill:#a0c6a2;fill-rule:nonzero;"/><path d="M890.726,26.389c0,-0.378 0.307,-0.685 0.685,-0.685c0.379,0 0.688,0.307 0.688,0.685l-0,3.616c-0,0.381 -0.309,0.688 -0.688,0.688c-0.378,-0 -0.685,-0.307 -0.685,-0.688l0,-3.616Zm3.088,0c0,-0.378 0.307,-0.685 0.685,-0.685c0.379,0 0.687,0.307 0.687,0.685l0,3.616c0,0.381 -0.308,0.688 -0.687,0.688c-0.378,-0 -0.685,-0.307 -0.685,-0.688l0,-3.616Zm3.086,0c-0,-0.378 0.308,-0.685 0.687,-0.685c0.378,0 0.685,0.307 0.685,0.685l0,3.616c0,0.381 -0.307,0.688 -0.685,0.688c-0.379,-0 -0.687,-0.307 -0.687,-0.688l-0,-3.616Zm3.088,0c-0,-0.378 0.308,-0.685 0.687,-0.685c0.378,0 0.685,0.307 0.685,0.685l-0,3.616c-0,0.381 -0.307,0.688 -0.685,0.688c-0.379,-0 -0.687,-0.307 -0.687,-0.688l-0,-3.616Zm3.087,0c0,-0.378 0.307,-0.685 0.688,-0.685c0.378,0 0.685,0.307 0.685,0.685l-0,3.616c-0,0.381 -0.307,0.688 -0.685,0.688c-0.381,-0 -0.688,-0.307 -0.688,-0.688l0,-3.616Zm2.321,5.069l-0,-6.373l-15.499,-0l0,6.373l15.499,-0Z" style="fill:#a0c6a2;fill-rule:nonzero;"/><path d="M907.936,86.227l0,4.472c0,0.467 -0.378,0.844 -0.843,0.844c-0.467,-0 -0.843,-0.377 -0.843,-0.844l-0,-4.472l-2.111,0l-0,4.472c-0,0.467 -0.376,0.844 -0.843,0.844c-0.465,-0 -0.844,-0.377 -0.844,-0.844l0,-4.472l-2.108,0l-0,4.472c-0,0.467 -0.379,0.844 -0.846,0.844c-0.465,-0 -0.843,-0.377 -0.843,-0.844l-0,-4.472l-2.109,0l0,4.472c0,0.467 -0.378,0.844 -0.843,0.844c-0.467,-0 -0.844,-0.377 -0.844,-0.844l0,-4.472l-2.11,0l-0,4.472c-0,0.467 -0.377,0.844 -0.844,0.844c-0.465,-0 -0.843,-0.377 -0.843,-0.844l-0,-4.472l-2.109,0l0,4.472c0,0.467 -0.378,0.844 -0.845,0.844c-0.465,-0 -0.844,-0.377 -0.844,-0.844l0,-4.472l-1.115,0l0,9.019l22.849,-0l-0,-9.019l-1.062,0Z" style="fill:#a0c6a2;fill-rule:nonzero;"/><path d="M887.264,54.638l0,-3.109c0,-0.467 0.379,-0.843 0.844,-0.843c0.467,-0 0.845,0.376 0.845,0.843l0,3.109l2.109,-0l-0,-3.109c-0,-0.467 0.378,-0.843 0.843,-0.843c0.467,-0 0.844,0.376 0.844,0.843l-0,3.109l2.11,-0l0,-3.109c0,-0.467 0.377,-0.843 0.844,-0.843c0.465,-0 0.843,0.376 0.843,0.843l0,3.109l2.109,-0l-0,-3.109c-0,-0.467 0.378,-0.843 0.845,-0.843c0.465,-0 0.844,0.376 0.844,0.843l-0,3.109l2.108,-0l0,-3.109c0,-0.467 0.379,-0.843 0.844,-0.843c0.467,-0 0.843,0.376 0.843,0.843l-0,3.109l2.111,-0l-0,-3.109c-0,-0.467 0.376,-0.843 0.843,-0.843c0.465,-0 0.843,0.376 0.843,0.843l0,3.109l1.062,-0l-0,-6.439l-22.849,-0l0,6.439l1.115,-0Z" style="fill:#a0c6a2;fill-rule:nonzero;"/><path d="M887.355,105.001c-0,-0.465 0.376,-0.844 0.843,-0.844c0.465,0 0.844,0.379 0.844,0.844l-0,21.182c-0,0.465 -0.379,0.844 -0.844,0.844c-0.467,-0 -0.843,-0.379 -0.843,-0.844l-0,-21.182Zm3.795,-0c0,-0.465 0.379,-0.844 0.846,-0.844c0.465,0 0.843,0.379 0.843,0.844l0,21.182c0,0.467 -0.378,0.844 -0.843,0.844c-0.467,-0 -0.846,-0.377 -0.846,-0.844l0,-21.182Zm3.798,-0c-0,-0.465 0.378,-0.844 0.843,-0.844c0.467,0 0.844,0.379 0.844,0.844l-0,21.182c-0,0.467 -0.377,0.844 -0.844,0.844c-0.465,-0 -0.843,-0.377 -0.843,-0.844l-0,-21.182Zm3.797,-0c0,-0.465 0.377,-0.844 0.844,-0.844c0.464,0 0.843,0.379 0.843,0.844l-0,21.182c-0,0.467 -0.379,0.844 -0.843,0.844c-0.467,-0 -0.844,-0.377 -0.844,-0.844l0,-21.182Zm3.796,-0c-0,-0.465 0.378,-0.844 0.845,-0.844c0.465,0 0.843,0.379 0.843,0.844l0,21.182c0,0.467 -0.378,0.844 -0.843,0.844c-0.467,-0 -0.845,-0.377 -0.845,-0.844l-0,-21.182Zm3.797,-0c0,-0.465 0.379,-0.844 0.843,-0.844c0.467,0 0.844,0.379 0.844,0.844l-0,21.182c-0,0.467 -0.377,0.844 -0.844,0.844c-0.464,-0 -0.843,-0.377 -0.843,-0.844l0,-21.182Zm2.66,25.728l-0,-29.059l-22.849,0l0,29.059l22.849,0Z" style="fill:#a0c6a2;fill-rule:nonzero;"/><rect x="884.22" y="96.756" width="26.708" height="3.308" style="fill:#a0c6a2;fill-rule:nonzero;"/><rect x="884.22" y="132.7" width="26.708" height="3.308" style="fill:#a0c6a2;fill-rule:nonzero;"/><path d="M897.363,78.774c-4.738,0 -8.576,-3.838 -8.576,-8.576c-0,-4.736 3.838,-8.574 8.576,-8.574c4.735,-0 8.574,3.838 8.574,8.574c-0,4.738 -3.839,8.576 -8.574,8.576Zm-13.865,-22.579l-0,28.15l28.15,-0l-0,-28.15l-28.15,-0Z" style="fill:#a0c6a2;fill-rule:nonzero;"/><path d="M897.904,71.033l-0.058,0.257l-0.819,-0.263l-0.316,-0.002l0.004,-0.097l-0.453,-0.146l2.528,-5.924l0.453,0.146l-1.105,4.972l6.478,0.572c0.004,-0.116 0.017,-0.231 0.017,-0.35c-0,-4.016 -3.255,-7.27 -7.27,-7.27c-4.018,0 -7.272,3.254 -7.272,7.27c-0,4.018 3.254,7.272 7.272,7.272c3.717,-0 6.776,-2.792 7.212,-6.392l-6.671,-0.045Z" style="fill:#a0c6a2;fill-rule:nonzero;"/><path d="M490.051,51.622c-0,1.45 -1.177,2.625 -2.625,2.625c-1.451,-0 -2.627,-1.175 -2.627,-2.625l-0,-2.625c-0,-1.45 1.176,-2.625 2.627,-2.625c1.448,0 2.625,1.175 2.625,2.625l-0,2.625Z" style="fill:#a0c6a2;fill-rule:nonzero;"/><rect x="485.979" y="52.194" width="2.89" height="5.828" style="fill:#a0c6a2;fill-rule:nonzero;"/><path d="M496.607,98.827c-1.031,-1.483 -2.636,-2.61 -4.87,-3.425l0,-39.007l3.45,0.403l1.42,42.029Z" style="fill:#a0c6a2;fill-rule:nonzero;"/><path d="M483.587,55.736c0.385,-0.096 0.843,-0.177 1.349,-0.238l0,-1.804c-0.438,-0.548 -0.701,-1.239 -0.701,-1.994l-0,-2.874c-0,-1.759 1.432,-3.19 3.191,-3.19c1.756,-0 3.188,1.431 3.188,3.19l0,2.874c0,0.755 -0.263,1.446 -0.701,1.994l-0,1.804c0.506,0.061 0.964,0.142 1.349,0.238l0.163,0.041l-0.268,-7.344c-0.07,-1.8 -1.742,-3.215 -3.731,-3.215c-1.992,0 -3.664,1.415 -3.734,3.215l-0.268,7.344l0.163,-0.041Z" style="fill:#a0c6a2;fill-rule:nonzero;"/><path d="M490.816,59.165l-0,-2.789c-0.803,-0.202 -2.024,-0.331 -3.39,-0.331c-1.368,-0 -2.59,0.129 -3.393,0.331l0,2.789c0,0.657 0.531,1.187 1.187,1.187l4.409,0c0.656,0 1.187,-0.53 1.187,-1.187Z" style="fill:#a0c6a2;fill-rule:nonzero;"/><path d="M490.133,65.561c-4.756,0 -9.368,-0.843 -13.333,-2.44c-3.635,-1.464 -6.558,-3.482 -8.489,-5.858l14.819,-0.98l0,2.975c0,1.035 0.842,1.878 1.878,1.878l4.835,0c0.354,0 0.691,-0.099 0.981,-0.28l0,4.699c-0.249,0.004 -0.475,0.006 -0.691,0.006Z" style="fill:#a0c6a2;fill-rule:nonzero;"/><path d="M490.824,95.096c-1.985,-0.611 -4.127,-0.949 -6.202,-1.276c-4.261,-0.673 -7.943,-1.253 -7.943,-3.98c0,-2.411 0.019,-6.902 0.035,-11.245c0.014,-3.834 0.027,-7.455 0.027,-9.173l-0,-0.123l-0.089,-0.084c-2.491,-2.376 -9.909,-2.662 -13.137,-2.671c-3.34,-4.12 -4.071,-6.969 -4.052,-8.695l7.801,-0.516c1.261,1.686 2.984,3.213 5.126,4.536c4.748,2.935 11.049,4.552 17.743,4.552c0.216,0 0.444,-0.002 0.691,-0.006l0,28.681Z" style="fill:#a0c6a2;fill-rule:nonzero;"/><path d="M495.963,56.847l0.461,12.744c1.328,-0.671 6.564,-3.047 14.221,-3.047c3.34,-4.12 4.071,-6.969 4.052,-8.695c0,-0 -12.888,-0.027 -18.734,-1.002Z" style="fill:#a0c6a2;fill-rule:nonzero;"/><path d="M458.792,57.843l0.002,-0.021l-1.026,-0.103c-0.889,0 -0.934,-1.629 -2.275,-1.53l-3.086,0.15c-0.206,0.01 -0.455,0.286 -0.591,0.664l-2.425,0.085c-0.43,0.014 -0.64,0.742 -0.516,1.512c0.107,0.664 0.442,1.195 0.779,1.267l4.841,1.016c0.541,0.115 1.306,-0.148 1.977,-0.701l2.744,0.273c-0.327,-1.059 -0.43,-1.929 -0.424,-2.612Z" style="fill:#a0c6a2;fill-rule:nonzero;"/><path d="M515.528,57.843l0,-0.021l1.025,-0.103c0.89,0 0.936,-1.629 2.275,-1.53l3.086,0.15c0.207,0.01 0.456,0.286 0.59,0.664l2.425,0.085c0.432,0.014 0.642,0.742 0.517,1.512c-0.107,0.664 -0.443,1.195 -0.778,1.267l-4.84,1.016c-0.543,0.115 -1.309,-0.148 -1.979,-0.701l-2.745,0.273c0.33,-1.059 0.432,-1.929 0.424,-2.612Z" style="fill:#a0c6a2;fill-rule:nonzero;"/><path d="M497.129,118.224l-0.652,-18.411l-0.42,-0.603c-0.952,-1.37 -2.439,-2.409 -4.548,-3.178l-0.42,-0.153l-0.46,-0.144c-1.94,-0.596 -4.061,-0.93 -6.11,-1.255c-2.67,-0.419 -5.25,-0.827 -6.857,-1.83l-0.905,25.574l20.372,0Z" style="fill:#a0c6a2;fill-rule:nonzero;"/><rect x="473.896" y="119.397" width="26.531" height="3.586" style="fill:#a0c6a2;fill-rule:nonzero;"/><rect x="472.174" y="124.494" width="29.973" height="11.683" style="fill:#a0c6a2;fill-rule:nonzero;"/><path d="M191.744,73.956l-85.56,0l-0,3.827c-0,0.736 0.596,1.335 1.333,1.335l82.894,-0c0.737,-0 1.333,-0.599 1.333,-1.335l0,-3.827Z" style="fill:#a0c6a2;fill-rule:nonzero;"/><path d="M101.518,71.784l94.894,0c0.736,0 1.333,-0.599 1.333,-1.335l-0,-2.271l-48.781,-17.062l-48.781,17.062l-0,2.271c-0,0.736 0.598,1.335 1.335,1.335Z" style="fill:#a0c6a2;fill-rule:nonzero;"/><path d="M106.184,121.565l-0,2.345l85.56,-0l0,-2.345c0,-0.737 -0.596,-1.335 -1.333,-1.335l-82.894,-0c-0.737,-0 -1.333,0.598 -1.333,1.335Z" style="fill:#a0c6a2;fill-rule:nonzero;"/><path d="M198.208,127.267c-0,-0.736 -0.597,-1.333 -1.333,-1.333l-95.82,0c-0.736,0 -1.335,0.597 -1.335,1.333l-0,2.347l98.488,0l-0,-2.347Z" style="fill:#a0c6a2;fill-rule:nonzero;"/><path d="M203.332,132.157l-108.736,0c-0.737,0 -1.333,0.597 -1.333,1.333l-0,2.347l111.404,0l0,-2.347c0,-0.736 -0.598,-1.333 -1.335,-1.333Z" style="fill:#a0c6a2;fill-rule:nonzero;"/><path d="M107.628,117.317l-0,0.261l8.286,0l-0,-0.261c-0,-1.212 -0.827,-2.23 -1.948,-2.518l-0,-29.977c1.121,-0.29 1.948,-1.306 1.948,-2.518l-0,-1.236l-8.286,-0l-0,1.236c-0,1.212 0.829,2.228 1.95,2.518l-0,29.977c-1.121,0.288 -1.95,1.306 -1.95,2.518Z" style="fill:#a0c6a2;fill-rule:nonzero;"/><path d="M118.232,117.317l0,0.261l8.286,0l0,-0.261c0,-1.212 -0.829,-2.23 -1.95,-2.518l0,-29.977c1.121,-0.29 1.95,-1.306 1.95,-2.518l0,-1.236l-8.286,-0l0,1.236c0,1.212 0.827,2.228 1.948,2.518l0,29.977c-1.121,0.288 -1.948,1.306 -1.948,2.518Z" style="fill:#a0c6a2;fill-rule:nonzero;"/><path d="M128.835,117.317l-0,0.261l8.286,0l-0,-0.261c-0,-1.212 -0.829,-2.23 -1.95,-2.518l-0,-29.977c1.121,-0.29 1.95,-1.306 1.95,-2.518l-0,-1.236l-8.286,-0l-0,1.236c-0,1.212 0.829,2.228 1.95,2.518l-0,29.977c-1.121,0.288 -1.95,1.306 -1.95,2.518Z" style="fill:#a0c6a2;fill-rule:nonzero;"/><path d="M139.437,117.317l0,0.261l8.286,0l0,-0.261c0,-1.212 -0.829,-2.23 -1.95,-2.518l0,-29.977c1.121,-0.29 1.95,-1.306 1.95,-2.518l0,-1.236l-8.286,-0l0,1.236c0,1.212 0.829,2.228 1.95,2.518l0,29.977c-1.121,0.288 -1.95,1.306 -1.95,2.518Z" style="fill:#a0c6a2;fill-rule:nonzero;"/><path d="M150.04,117.317l-0,0.261l8.286,0l-0,-0.261c-0,-1.212 -0.829,-2.23 -1.95,-2.518l-0,-29.977c1.121,-0.29 1.95,-1.306 1.95,-2.518l-0,-1.236l-8.286,-0l-0,1.236c-0,1.212 0.829,2.228 1.95,2.518l-0,29.977c-1.121,0.288 -1.95,1.306 -1.95,2.518Z" style="fill:#a0c6a2;fill-rule:nonzero;"/><path d="M160.642,117.317l0,0.261l8.286,0l0,-0.261c0,-1.212 -0.827,-2.23 -1.948,-2.518l0,-29.977c1.121,-0.29 1.948,-1.306 1.948,-2.518l0,-1.236l-8.286,-0l0,1.236c0,1.212 0.829,2.228 1.95,2.518l0,29.977c-1.121,0.288 -1.95,1.306 -1.95,2.518Z" style="fill:#a0c6a2;fill-rule:nonzero;"/><path d="M171.247,117.317l-0,0.261l8.286,0l0,-0.261c0,-1.212 -0.829,-2.23 -1.95,-2.518l-0,-29.977c1.121,-0.29 1.95,-1.306 1.95,-2.518l0,-1.236l-8.286,-0l-0,1.236c-0,1.212 0.827,2.228 1.948,2.518l-0,29.977c-1.121,0.288 -1.948,1.306 -1.948,2.518Z" style="fill:#a0c6a2;fill-rule:nonzero;"/><path d="M181.849,117.317l0,0.261l8.287,0l-0,-0.261c-0,-1.212 -0.829,-2.23 -1.951,-2.518l0,-29.977c1.122,-0.29 1.951,-1.306 1.951,-2.518l-0,-1.236l-8.287,-0l0,1.236c0,1.212 0.829,2.228 1.951,2.518l-0,29.977c-1.122,0.288 -1.951,1.306 -1.951,2.518Z" style="fill:#a0c6a2;fill-rule:nonzero;"/><path d="M230.77,128.6l59.343,0l-0,-0.934l-8.928,-0.002l0.002,-7.862l12.135,0.004l-0,-1.049l-19.428,-0.006l0.004,-7.861l9.881,0.004c-0.052,-0.362 -0.072,-0.709 -0.066,-1.049l-17.484,-0.006l0.002,-7.86l24.53,0.008c-0.054,-0.362 -0.072,-0.708 -0.066,-1.049l-39.662,-0.013l48.886,-66.772l1.654,2.263l9.603,27.87l-15.445,-0.004l-0,1.047l14.947,0.006l-0.002,7.86l-30.302,-0.01l-0.002,1.049l8.301,0.002l-0.004,7.86l-8.299,-0.002l0,1.05l15.655,0.004l-0.004,7.862l-7.733,-0.004l-0,1.049l32.46,0.01l15.198,44.118l-110.699,-0.037l5.523,-7.546Zm5.719,-7.809l-0.002,6.857l-5.017,-0l5.019,-6.857Zm0.755,-1.004l13.892,0.005l-0.002,7.862l-13.894,-0.006l0.004,-7.861Zm6.501,-8.907l0.103,0l-0.003,7.862l-5.854,-0.002l5.754,-7.86Zm14.751,0.004l-0.004,7.863l-13.894,-0.005l0.005,-7.862l13.893,0.004Zm6.978,-1.045l-13.894,-0.004l0.002,-7.862l13.892,0.006l0,7.86Zm0.311,9.959l-0.002,7.86l-13.894,-0.004l0.002,-7.862l13.894,0.006Zm14.649,0.004l-0.004,7.86l-13.892,-0.004l-0,-7.86l13.896,0.004Zm-7.293,-1.051l-13.894,-0.004l0.002,-7.861l13.894,0.004l-0.002,7.861Zm-22.875,-16.778l0.563,-0l-0.004,7.862l-6.313,-0.002l5.754,-7.86Zm61.167,-36.638l0.103,-0l2.709,7.862l-2.814,-0.002l0.002,-7.86Zm-22.009,16.764l0.002,-7.863l13.894,0.004l-0.003,7.863l-13.893,-0.004Zm7.354,1.049l13.894,0.004l-0.002,7.862l-13.894,-0.004l0.002,-7.862Zm20.538,-1.041l-13.244,-0.004l0.003,-7.861l10.532,0.002l2.709,7.863Zm3.07,8.911l-8.961,-0.004l0.002,-7.86l6.249,0.002l2.71,7.862Zm-20.465,-59.398l-51.311,70.083l-30.207,-41.213l-31.872,43.641c0.14,0.691 0.241,1.382 0.336,2.075l31.538,-43.183l1.656,2.26l17.714,51.219l-14.425,19.703l-50.682,0.044c-0.88,0.539 -1.789,1.037 -2.725,1.497l54.137,-0.045c0,-0.021 0.009,-0.041 0.009,-0.06l153.384,0.05l-77.552,-106.071Z" style="fill:#a0c6a2;fill-rule:nonzero;"/><path d="M991.773,105.379l50.207,-0.006l-0.839,-4.227l-48.53,0.006l-0.838,4.227Zm14.631,32.236l21.696,-0.002l0,-2.644l-21.696,0.002l-0,2.644Zm-23.439,-15.836l-2.358,-0c-0.45,0.403 -0.74,0.981 -0.74,1.633l0.002,14.386l6.245,-0l-0.95,-13.822c-0,-1.214 -0.986,-2.197 -2.199,-2.197Zm7.691,-10.761l52.441,-0.008l-0.839,-4.228l-50.764,0.006l-0.838,4.23Zm-1.115,5.636l54.673,-0.006l-0.839,-4.229l-52.997,0.008l-0.837,4.227Zm-0.039,5.123l-2.333,0.002c-0.294,0.261 -0.541,0.728 -0.541,1.633l0.002,14.386l6.022,-0.002l-0.953,-13.82c0,-1.214 -0.983,-2.199 -2.197,-2.199Zm16.902,11.785l21.696,-0.002l0,-4.227l-21.696,0.002l-0,4.227Zm48.225,-10.158c0,-0.665 -0.3,-1.253 -0.767,-1.656l-2.331,-0c-1.213,-0 -2.199,0.985 -2.199,2.201l-0.946,13.84l6.245,-0.002l-0.002,-14.383Zm-7.325,-1.656l-2.31,-0c-1.214,0.002 -2.197,0.987 -2.197,2.201l-0.949,13.84l6.022,0l-0.003,-14.404c0,-0.228 0.046,-0.444 0.109,-0.65c-0.125,-0.393 -0.368,-0.724 -0.672,-0.987Zm-3.775,-0.564l1.584,0l-0.621,-3.127l-55.228,0.007l-0.626,3.151l2.329,0c0.802,-0.002 1.497,0.434 1.88,1.076l0.409,-0c-0.086,0.142 -0.084,0.632 -0.092,1.121l0.002,14.384l-0.224,-0l6.245,-0l-0.952,-13.822c-0,-1.214 -0.984,-2.197 -2.197,-2.197l-2.37,-0c0.389,-0.35 0.903,-0.564 1.469,-0.564l2.365,0c0.803,0 1.498,0.434 1.883,1.076l0.407,-0c-0.086,0.144 -0.091,0.889 -0.091,1.121l0.003,14.386l6.535,-0.002l-0.516,-0l-0.951,-13.82c0,-1.214 -0.985,-2.197 -2.199,-2.197l-2.37,-0c0.389,-0.35 0.906,-0.564 1.469,-0.564l2.368,0c0.802,0 1.496,0.434 1.88,1.076l22.643,-0.002c0.383,-0.656 1.082,-1.101 1.893,-1.101l2.368,0c0.563,0 1.08,0.214 1.468,0.564l-2.372,-0c-1.213,-0 -2.197,0.985 -2.197,2.201l-0.946,13.841l6.019,-0.003l0,-14.402c0,-0.228 0.044,-0.444 0.107,-0.652c-0.051,-0.16 -0.138,-0.306 -0.224,-0.45l0.422,-0c0.38,-0.654 1.08,-1.099 1.892,-1.099l2.366,-0.002c0.566,0 1.08,0.214 1.469,0.566l-2.37,-0c-1.214,-0 -2.197,0.985 -2.197,2.201l-0.948,13.838l6.021,0l-0.002,-14.404c-0,-0.228 0.043,-0.442 0.109,-0.65c-0.054,-0.162 -0.14,-0.306 -0.226,-0.45l0.421,-0c0.381,-0.654 1.082,-1.101 1.893,-1.101Zm-37.125,6.741l21.696,-0.002l0,-4.227l-21.696,0.002l-0,4.227Zm11.476,-67.638l1.177,-7.653l-0.998,-2.977l-1.997,0l-0.998,2.977l1.179,7.653l1.637,-0Zm-12.947,35.769l-0.002,-12.579c-0.327,-0.494 -0.601,-1.123 -0.801,-1.808c-0.01,-0.033 -0.02,-0.066 -0.03,-0.101c-0.089,-0.319 -0.159,-0.644 -0.21,-0.975c-0.008,-0.052 -0.015,-0.103 -0.021,-0.157c-0.047,-0.333 -0.078,-0.668 -0.078,-0.993l0,-4.071c-2.156,-0.251 -4.03,-2.391 -4.544,-5.273c-0.07,-0.387 -0.111,-0.773 -0.126,-1.154c-0.043,-1.144 0.155,-2.244 0.585,-3.186c0.625,-1.375 1.711,-2.292 2.976,-2.516c0.208,-0.039 0.418,-0.056 0.626,-0.056c0.006,0 0.012,0.002 0.02,0.002c0.152,0 0.307,0.011 0.461,0.031l-0.018,-4.517c-3.963,3.55 -11.043,11.59 -13.302,25.128c-0.327,1.952 1.452,3.495 3.337,5.128c2.007,1.74 4.556,3.972 3.914,7.097l7.213,0Zm25.167,-15.77c-0.015,0.128 -0.029,0.255 -0.052,0.385c-0.016,0.101 -0.037,0.201 -0.057,0.302c-0.021,0.099 -0.041,0.2 -0.064,0.299c-0.029,0.117 -0.062,0.232 -0.095,0.349c-0.022,0.076 -0.043,0.153 -0.067,0.229c-0.042,0.127 -0.085,0.253 -0.13,0.376c-0.021,0.056 -0.041,0.109 -0.062,0.163c-0.053,0.135 -0.111,0.265 -0.171,0.39c-0.014,0.035 -0.032,0.07 -0.049,0.103c-0.066,0.136 -0.136,0.268 -0.208,0.391c-0.01,0.017 -0.02,0.031 -0.03,0.047c-0.081,0.134 -0.163,0.26 -0.249,0.373l-0,12.363l7.364,0c-0.646,-3.127 1.903,-5.361 3.915,-7.105c1.882,-1.631 3.662,-3.176 3.335,-5.127c-2.267,-13.554 -9.369,-21.597 -13.327,-25.14l0.002,4.674c0.348,-0.111 0.702,-0.165 1.054,-0.171c0.016,0 0.033,-0.004 0.049,-0.004c0.181,0 0.36,0.021 0.539,0.047c0.029,0.005 0.058,0.002 0.086,0.009c0.792,0.14 1.512,0.551 2.095,1.174c0.349,0.375 0.648,0.825 0.882,1.342c0.574,1.254 0.737,2.795 0.461,4.338c-0.547,3.071 -2.637,5.301 -4.97,5.301l-0.002,0c-0.064,0 -0.128,-0.002 -0.192,-0.006l0,4.053c0,0.201 -0.01,0.407 -0.028,0.613c-0.006,0.078 -0.019,0.154 -0.029,0.232Zm-23.279,-12.875c0.15,0.401 0.282,0.82 0.362,1.269c0.013,0.061 0.011,0.121 0.021,0.183c2.649,1.454 6.735,0.652 8.148,0.38c0.185,-2.001 0.171,-5.184 -0.938,-5.587c-3.39,-1.232 -7.786,0.161 -7.593,3.755Zm7.499,8.533l5.173,-0.003l-2.553,-7.298l-2.62,7.301Zm4.274,-6.703c1.434,0.276 5.62,1.103 8.266,-0.44c1.551,-4.622 -3.528,-6.527 -7.328,-5.145c-1.11,0.403 -1.123,3.586 -0.938,5.585Zm3.055,9.455c-1.646,-0.436 -2.806,-1.236 -4.832,-0.825c-2.024,-0.411 -3.185,0.389 -4.83,0.827l0.045,0.006c-0,0 2.73,-0.343 4.785,-0.343c2.234,-0 4.787,0.341 4.787,0.341l0.045,-0.006Zm0,0.019c0,-0 -1.849,0.551 -4.752,0.551c-2.691,-0 -4.91,-0.549 -4.91,-0.549c2.433,3.229 7.292,3.46 9.662,-0.002Zm-33.813,4.933c1.604,-19.881 14.875,-30.127 20.096,-30.531l0,0.011c1.747,-0.364 3.985,-0.321 5.256,-0.453c0.276,-0.029 0.603,-0.053 0.948,-0.072l-0.514,0.891l2.031,7.65l2.818,0l2.028,-7.652l-0.51,-0.881c0.278,0.019 0.537,0.04 0.763,0.062c1.274,0.132 3.51,0.091 5.256,0.453l0,-0.011c5.221,0.402 18.494,10.646 20.103,30.524c0.421,5.211 -9.204,7.272 -8.287,12.417l-0.462,0c-1.36,-5.145 8.086,-7.206 7.214,-12.417c-2.288,-13.682 -9.609,-22.879 -15.665,-27.421c0.082,0.465 0.129,0.938 0.129,1.37l0.003,6.28l-0,1.459c0.773,-0.766 1.713,-1.161 2.645,-0.994c1.89,0.337 3.026,2.829 2.538,5.565c-0.487,2.736 -2.415,4.682 -4.305,4.344c-0.319,-0.055 -0.607,-0.193 -0.878,-0.364l0.002,5.563c-0,1.388 -0.548,3.077 -1.222,3.772l-7.065,2.876l-7.566,0l-7.064,-2.871c-0.675,-0.696 -1.224,-2.385 -1.224,-3.775l-0,-5.283c-0.086,0.027 -0.167,0.07 -0.257,0.086c-1.889,0.338 -3.818,-1.606 -4.306,-4.344c-0.489,-2.736 0.648,-5.227 2.537,-5.565c0.695,-0.123 1.392,0.066 2.024,0.484l-0,-7.229c-0,-0.434 0.047,-0.907 0.132,-1.374c-6.059,4.544 -13.378,13.743 -15.663,27.43c-0.871,5.208 8.572,7.267 7.22,12.408l-0.465,0c0.909,-5.141 -8.71,-7.2 -8.29,-12.408Zm5.159,15.558l-0.107,0.537l47.975,-0.007l-0.107,-0.536c-0.202,-1.011 -1.434,-1.817 -2.757,-1.817l-42.249,0.006c-1.323,0 -2.555,0.807 -2.755,1.817Zm34.758,-3.15l-21.709,0l-0,-11.672l6.932,2.818l7.998,-0.002l6.779,-2.756l-0,11.612Z" style="fill:#a0c6a2;fill-rule:nonzero;"/><rect x="0" y="133.694" width="1080" height="45.502" style="fill:#a0c6a2;fill-rule:nonzero;"/></g></svg>