<?xml version="1.0" encoding="UTF-8" standalone="no"?><!DOCTYPE svg PUBLIC "-//W3C//DTD SVG 1.1//EN" "http://www.w3.org/Graphics/SVG/1.1/DTD/svg11.dtd"><svg width="100%" height="100%" viewBox="0 0 146 153" version="1.1" xmlns="http://www.w3.org/2000/svg" xmlns:xlink="http://www.w3.org/1999/xlink" xml:space="preserve" xmlns:serif="http://www.serif.com/" style="fill-rule:evenodd;clip-rule:evenodd;stroke-linecap:square;"><g><rect x="10.78" y="10.78" width="38.573" height="38.573" style="fill:none;stroke:#2298ff;stroke-width:5.23px;"/><path d="M119.36,94.781l-33.289,11.464l-0.079,25.991l33.368,10.325l-0,-47.78Z" style="fill:none;stroke:#2298ff;stroke-width:4.62px;"/><path d="M120.535,112.371l13.713,-0" style="fill:none;stroke:#2298ff;stroke-width:5.39px;"/><path d="M26.043,50.916c0.541,4.754 0.59,8.501 1.998,13.092c0.967,3.151 2.374,6.279 4.505,8.823c3.899,4.653 9.352,6.1 15.136,5.56c7.755,-0.724 16.105,-5.16 21.054,-9.003c5.141,-3.992 9.088,-9.231 13.887,-13.578c2.849,-2.579 7.178,-4.945 11.367,-5.571c3.507,-0.524 6.949,0.258 8.833,3.862c1.57,3.005 1.297,6.377 0.201,9.649c-1.881,5.62 -6.196,10.972 -9.782,14.33c-1.599,1.498 -3.293,2.923 -5.071,4.206c-11.109,8.018 -25.552,9.186 -38.671,11.484c-7.533,1.319 -16.69,2.871 -22.631,8.159c-9.832,8.751 -1.133,21.4 8.994,24.64c14.916,4.771 34.699,2.166 49.81,-2.145c1.575,-0.449 2.489,-2.093 2.039,-3.667c-0.449,-1.575 -2.092,-2.489 -3.667,-2.04c-14.072,4.015 -32.484,6.642 -46.374,2.199c-3.371,-1.078 -6.663,-3.644 -8.275,-6.693c-1.338,-2.531 -1.298,-5.443 1.419,-7.861c5.144,-4.579 13.186,-5.604 19.709,-6.747c13.978,-2.449 29.283,-3.974 41.12,-12.517c1.982,-1.43 3.872,-3.017 5.655,-4.686c4.187,-3.921 9.155,-10.217 11.352,-16.777c1.624,-4.847 1.757,-9.832 -0.569,-14.282c-3.227,-6.176 -8.96,-7.881 -14.969,-6.983c-5.326,0.796 -10.852,3.762 -14.473,7.042c-4.689,4.246 -8.521,9.389 -13.543,13.289c-4.232,3.286 -11.336,7.163 -17.967,7.782c-3.807,0.355 -7.468,-0.4 -10.035,-3.463c-1.624,-1.939 -2.643,-4.35 -3.38,-6.752c-1.292,-4.213 -1.279,-7.66 -1.776,-12.023c-0.185,-1.627 -1.657,-2.798 -3.284,-2.613c-1.627,0.186 -2.798,1.657 -2.612,3.284Z" style="fill:#2298ff;"/><path d="M120.535,126.815l13.713,-0" style="fill:none;stroke:#2298ff;stroke-width:5.39px;"/></g></svg>