<?xml version="1.0" encoding="UTF-8" standalone="no"?><!DOCTYPE svg PUBLIC "-//W3C//DTD SVG 1.1//EN" "http://www.w3.org/Graphics/SVG/1.1/DTD/svg11.dtd"><svg width="100%" height="100%" viewBox="0 0 290 292" version="1.1" xmlns="http://www.w3.org/2000/svg" xmlns:xlink="http://www.w3.org/1999/xlink" xml:space="preserve" xmlns:serif="http://www.serif.com/" style="fill-rule:evenodd;clip-rule:evenodd;stroke-linejoin:round;stroke-miterlimit:2;"><g><ellipse cx="196.718" cy="198.892" rx="93.15" ry="92.657" style="fill:#0093ff;fill-opacity:0.16;"/><circle cx="50.918" cy="227.617" r="6.679" style="fill:#ff972c;"/><g><path d="M123.223,7.612c-63.788,0 -115.684,51.889 -115.684,115.67c0,63.781 51.896,115.669 115.684,115.669c63.774,0 115.655,-51.888 115.655,-115.669c-0,-63.781 -51.881,-115.67 -115.655,-115.67Zm0,238.68c-67.836,0 -123.025,-55.185 -123.025,-123.01c0,-67.829 55.189,-123.01 123.025,-123.01c67.818,-0 122.996,55.181 122.996,123.01c-0,67.825 -55.178,123.01 -122.996,123.01Z" style="fill:#0093ff;fill-rule:nonzero;"/><path d="M123.216,7.341c-19.387,-0 -40.14,46.563 -40.14,115.875c0,69.308 20.753,115.871 40.14,115.871c19.383,0 40.136,-46.563 40.136,-115.871c-0,-69.312 -20.753,-115.875 -40.136,-115.875Zm-0,239.087c-26.625,-0 -47.481,-54.124 -47.481,-123.212c0,-69.092 20.856,-123.216 47.481,-123.216c26.621,0 47.477,54.124 47.477,123.216c-0,69.088 -20.856,123.212 -47.477,123.212Z" style="fill:#0093ff;fill-rule:nonzero;"/><rect x="119.545" y="3.67" width="7.341" height="239.087" style="fill:#0093ff;fill-rule:nonzero;"/><path d="M123.216,64.298c-63.895,0 -115.875,26.431 -115.875,58.918c-0,32.49 51.98,58.921 115.875,58.921c63.891,-0 115.871,-26.431 115.871,-58.921c0,-32.487 -51.98,-58.918 -115.871,-58.918Zm-0,125.18c-67.94,-0 -123.216,-29.72 -123.216,-66.262c0,-36.539 55.276,-66.259 123.216,-66.259c67.935,0 123.212,29.72 123.212,66.259c-0,36.542 -55.277,66.262 -123.212,66.262Z" style="fill:#0093ff;fill-rule:nonzero;"/><rect x="3.67" y="119.545" width="239.087" height="7.341" style="fill:#0093ff;fill-rule:nonzero;"/><path d="M123.216,7.341c-47.675,-0 -86.457,51.98 -86.457,115.875c0,63.891 38.782,115.871 86.457,115.871c47.667,0 86.449,-51.98 86.449,-115.871c0,-63.895 -38.782,-115.875 -86.449,-115.875Zm-0,239.087c-51.72,-0 -93.798,-55.273 -93.798,-123.212c0,-67.936 42.078,-123.216 93.798,-123.216c51.716,0 93.79,55.28 93.79,123.216c-0,67.939 -42.074,123.212 -93.79,123.212Z" style="fill:#0093ff;fill-rule:nonzero;"/><path d="M141.021,201.557c-8.361,-8.446 -10.123,-9.958 -10.384,-10.215c0,0 -0.257,-0.257 -0.407,-0.4c-1.105,-1.097 -2.881,-1.083 -3.975,0.019l-41.208,41.923c-1.079,1.09 -1.075,2.878 0.037,3.957c-0,-0 12.465,14.755 25.153,22.668c1.556,0.962 3.124,1.835 4.713,2.595c14.157,6.79 29.363,5.565 42.617,0.143c18.785,-7.674 55.306,-46.647 55.306,-46.647c-0,0 38.337,-37.178 45.7,-56.088c5.781,-14.846 6.335,-32.009 -3.549,-47.271c-8.115,-12.553 -23.08,-24.775 -23.08,-24.775c-1.104,-1.083 -2.873,-1.061 -3.96,0.022l-41.226,41.938c-1.083,1.098 -1.057,2.867 0.055,3.964c0.143,0.143 0.327,0.217 0.488,0.316c0,-0 1.74,2.055 10.31,10.295c10.909,10.501 17.974,8.901 17.974,8.901c-1.971,6.79 -30.864,35.019 -30.864,35.019c-0,0 -27.734,29.378 -34.491,31.445c0,-0 1.182,-7.304 -9.209,-17.809Z" style="fill:#0093ff;fill-rule:nonzero;"/><path d="M88.229,234.884c2.577,2.94 13.302,14.869 23.953,21.509c1.502,0.932 2.93,1.718 4.35,2.4c11.914,5.715 25.891,5.686 39.644,0.059c17.831,-7.293 53.658,-45.381 54.021,-45.759c0.499,-0.495 37.967,-36.965 44.959,-54.913c6.111,-15.702 4.97,-31.305 -3.211,-43.946c-6.989,-10.802 -19.512,-21.563 -21.92,-23.586l-39.96,40.65c0.011,0.015 0.022,0.018 0.033,0.033c0.062,0.073 1.898,2.18 10.057,10.024c7.675,7.392 12.898,7.965 14.315,7.965c0.209,-0 0.356,-0.015 0.429,-0.022c1.248,-0.202 2.551,0.257 3.377,1.196c0.826,0.947 1.182,2.232 0.837,3.428c-2.081,7.161 -24.886,29.845 -31.823,36.624c-6.563,6.955 -28.857,30.145 -35.988,32.325c-1.211,0.364 -2.533,0.092 -3.483,-0.738c-0.958,-0.84 -1.414,-2.11 -1.212,-3.354c-0.003,-0 0.444,-5.917 -8.196,-14.642c-3.329,-3.362 -7.781,-7.814 -10.09,-9.935c-0.011,-0.008 -0.033,-0.03 -0.055,-0.048l-40.037,40.73Zm47.418,35.552c-7.836,0 -15.334,-1.692 -22.286,-5.025c-1.663,-0.796 -3.315,-1.706 -5.054,-2.782c-13.041,-8.13 -25.506,-22.797 -26.027,-23.413c-1.006,-0.962 -1.692,-2.581 -1.711,-4.317c-0.014,-1.732 0.65,-3.362 1.865,-4.595l41.204,-41.916c2.466,-2.478 6.717,-2.493 9.18,-0.048l0.414,0.407c1.993,1.828 5.473,5.256 10.399,10.222c5.641,5.708 8.236,10.681 9.407,14.366c6.515,-5.138 18.774,-17.089 29.015,-27.935c10.713,-10.468 22.418,-22.889 27.487,-29.521c-3.7,-1.098 -8.658,-3.634 -14.472,-9.235c-6.559,-6.306 -9.187,-9.048 -10.123,-10.064c-0.217,-0.143 -0.488,-0.353 -0.76,-0.632c-2.496,-2.459 -2.54,-6.566 -0.044,-9.095l41.23,-41.938c2.474,-2.474 6.695,-2.474 9.146,-0.066c0.375,0.286 15.255,12.512 23.59,25.399c9.496,14.66 10.879,32.634 3.887,50.597c-7.568,19.435 -44.977,55.845 -46.563,57.387c-1.391,1.49 -37.17,39.523 -56.473,47.414c-7.77,3.175 -15.614,4.79 -23.311,4.79Z" style="fill:#f9fcff;fill-rule:nonzero;"/><path d="M195.391,145.492c-0.914,-0 -1.828,-0.338 -2.544,-1.021c-1.461,-1.402 -1.512,-3.725 -0.106,-5.19l44.893,-46.816c1.402,-1.457 3.725,-1.508 5.19,-0.11c1.464,1.406 1.515,3.729 0.11,5.19l-44.897,46.82c-0.719,0.745 -1.685,1.127 -2.646,1.127Z" style="fill:#fff;fill-rule:nonzero;"/><path d="M94.638,250.564c-0.914,0 -1.828,-0.337 -2.54,-1.02c-1.461,-1.402 -1.512,-3.725 -0.106,-5.19l44.863,-46.798c1.406,-1.453 3.725,-1.505 5.19,-0.106c1.464,1.406 1.516,3.729 0.11,5.19l-44.867,46.798c-0.719,0.745 -1.685,1.126 -2.65,1.126Z" style="fill:#fff;fill-rule:nonzero;"/></g><path d="M230.59,218.081l-8.664,-0c-1.576,-0 -2.856,1.28 -2.856,2.856c-0,1.577 1.28,2.857 2.856,2.857l8.664,-0l-0,8.663c-0,1.577 1.28,2.857 2.856,2.857c1.577,-0 2.857,-1.28 2.857,-2.857l-0,-8.663l8.663,-0c1.577,-0 2.857,-1.28 2.857,-2.857c-0,-1.576 -1.28,-2.856 -2.857,-2.856l-8.663,-0l-0,-8.664c-0,-1.576 -1.28,-2.856 -2.857,-2.856c-1.576,-0 -2.856,1.28 -2.856,2.856l-0,8.664Z" style="fill:#ff972c;"/><path d="M224.497,17.43c5.99,-0 10.854,4.863 10.854,10.854c-0,5.99 -4.864,10.854 -10.854,10.854c-5.991,-0 -10.854,-4.864 -10.854,-10.854c-0,-5.991 4.863,-10.854 10.854,-10.854Zm-0,5.427c2.995,-0 5.427,2.432 5.427,5.427c-0,2.995 -2.432,5.427 -5.427,5.427c-2.995,-0 -5.427,-2.432 -5.427,-5.427c-0,-2.995 2.432,-5.427 5.427,-5.427Z" style="fill:#ff972c;"/></g></svg>