<?xml version="1.0" encoding="UTF-8" standalone="no"?><!DOCTYPE svg PUBLIC "-//W3C//DTD SVG 1.1//EN" "http://www.w3.org/Graphics/SVG/1.1/DTD/svg11.dtd"><svg width="100%" height="100%" viewBox="0 0 2134 2134" version="1.1" xmlns="http://www.w3.org/2000/svg" xmlns:xlink="http://www.w3.org/1999/xlink" xml:space="preserve" xmlns:serif="http://www.serif.com/" style="fill-rule:evenodd;clip-rule:evenodd;stroke-linejoin:round;stroke-miterlimit:2;"><g id="Layer_2_00000042708517903041133670000011808547803457903236_"><g id="design_tool"><path d="M1509.58,990.417c38.334,11.25 80,13.333 120,19.166c290.417,-3.75 521.667,-247.5 502.5,-535.416c-1.666,-27.084 -16.666,-61.667 -37.5,-76.667c-30,-22.083 -56.25,7.083 -78.75,29.583c-53.75,54.167 -106.666,109.584 -162.916,161.25c-12.084,11.25 -38.334,17.084 -54.167,12.084c-196.667,-60.834 -196.667,-61.667 -263.75,-256.667c-1.25,-2.917 -2.5,-6.667 -3.333,-10c-0.834,-3.333 -12.084,-21.25 13.75,-53.75c46.666,-58.333 105,-106.667 157.916,-159.583c23.334,-22.917 55.417,-49.167 32.5,-82.084c-14.583,-20.416 -49.583,-35.416 -76.666,-37.083c-337.917,-20.833 -599.167,294.583 -516.25,622.917c8.75,35 1.25,55.833 -23.334,80.416c-341.25,340 -682.083,680.417 -1022.08,1021.67c-20.833,20.833 -41.667,41.667 -58.333,65.417c-60.417,87.5 -48.75,202.083 26.25,277.083c73.75,73.75 185.833,86.667 273.333,28.75c24.167,-15.833 45.417,-37.083 65.833,-57.5c342.084,-341.667 683.75,-683.333 1025,-1025.83c24.167,-24.584 45,-34.167 80,-23.75Z" style="fill:#fff;fill-rule:nonzero;"/><path d="M659.167,972.083c11.25,11.25 22.916,21.667 30.833,29.167c105,-104.167 205.833,-205 308.333,-306.25l2.084,-2.083l-7.5,-7.917c-200,-200.417 -400,-400.833 -600.417,-600.833c-31.667,-31.667 -62.917,-26.25 -93.333,4.166c-67.5,68.334 -135.834,135.834 -203.334,203.75c-47.5,47.917 -47.5,68.75 0.834,117.084c187.5,187.916 375,375.416 562.5,562.916Z" style="fill:#fff;fill-rule:nonzero;"/><path d="M1433.33,1138.75c-97.5,98.333 -197.916,199.583 -295.416,298.333l417.083,417.084l297.917,-295.834l-419.584,-419.583Z" style="fill:#fff;fill-rule:nonzero;"/><path d="M1935,1657.08c-3.75,-7.5 -8.333,-14.583 -13.333,-20.833l-287.917,287.5c9.583,5.833 19.583,11.25 30,15.833c96.25,39.584 192.5,78.334 288.75,117.917c35.833,14.583 70,18.333 99.167,-11.667c29.166,-30 25.833,-63.333 10.416,-99.166c-42.916,-95.834 -84.583,-192.917 -127.083,-289.584Z" style="fill:#fff;fill-rule:nonzero;"/></g></g></svg>