<?xml version="1.0" encoding="UTF-8" standalone="no"?><!DOCTYPE svg PUBLIC "-//W3C//DTD SVG 1.1//EN" "http://www.w3.org/Graphics/SVG/1.1/DTD/svg11.dtd"><svg width="100%" height="100%" viewBox="0 0 304 283" version="1.1" xmlns="http://www.w3.org/2000/svg" xmlns:xlink="http://www.w3.org/1999/xlink" xml:space="preserve" xmlns:serif="http://www.serif.com/" style="fill-rule:evenodd;clip-rule:evenodd;stroke-linecap:round;stroke-linejoin:round;"><g><g><circle cx="148.582" cy="123.636" r="123.636" style="fill:#0093ff;fill-opacity:0.16;"/><path d="M117.38,78.102l-8.552,-0c-1.557,-0 -2.82,1.263 -2.82,2.82c-0,1.556 1.263,2.82 2.82,2.82l8.552,-0l0,8.552c0,1.557 1.264,2.82 2.82,2.82c1.557,0 2.82,-1.263 2.82,-2.82l0,-8.552l8.553,-0c1.556,-0 2.82,-1.264 2.82,-2.82c0,-1.557 -1.264,-2.82 -2.82,-2.82l-8.553,-0l0,-8.553c0,-1.556 -1.263,-2.82 -2.82,-2.82c-1.556,0 -2.82,1.264 -2.82,2.82l0,8.553Z" style="fill:#08f;"/><circle cx="67.56" cy="247.272" r="4.121" style="fill:#08f;fill-opacity:0.46;"/><circle cx="171.488" cy="57.298" r="4.121" style="fill:#ff972c;fill-opacity:0.46;"/><path d="M47.172,95.114l0,88.515l70.92,-0" style="fill:none;stroke:#0093ff;stroke-width:15.98px;"/><path d="M60.999,89.407l0,107.263l71.154,-0" style="fill:none;stroke:#0093ff;stroke-opacity:0.3;stroke-width:17.78px;"/><clipPath id="_clip1"><rect id="phone-call_455705.svg" x="0" y="7.361" width="94.345" height="94.345"/></clipPath><g clip-path="url(#_clip1)"><g><g><path d="M80.523,21.172c-18.424,-18.419 -48.292,-18.414 -66.712,0.01c-18.419,18.425 -18.414,48.293 0.01,66.712c18.425,18.419 48.293,18.415 66.712,-0.01c8.846,-8.849 13.814,-20.849 13.812,-33.361c-0.003,-12.51 -4.975,-24.506 -13.822,-33.351Zm-9.082,51.899c-0.002,0.003 -0.004,0.005 -0.006,0.007l-0,-0.016l-2.391,2.374c-3.091,3.131 -7.592,4.418 -11.871,3.397c-4.311,-1.154 -8.409,-2.991 -12.139,-5.441c-3.466,-2.214 -6.677,-4.803 -9.576,-7.72c-2.668,-2.648 -5.064,-5.556 -7.155,-8.68c-2.286,-3.361 -4.096,-7.023 -5.377,-10.881c-1.47,-4.532 -0.252,-9.506 3.144,-12.847l2.799,-2.799c0.778,-0.781 2.043,-0.784 2.824,-0.006c0.002,0.002 0.005,0.004 0.007,0.006l8.837,8.837c0.781,0.779 0.784,2.043 0.006,2.824l-5.195,5.196c-1.489,1.472 -1.677,3.813 -0.441,5.503c1.877,2.576 3.954,5 6.211,7.249c2.517,2.528 5.254,4.827 8.177,6.872c1.689,1.178 3.979,0.979 5.44,-0.472l5.016,-5.095c0.778,-0.781 2.043,-0.784 2.824,-0.006c0.002,0.002 0.004,0.004 0.007,0.006l8.852,8.869c0.782,0.778 0.785,2.042 0.007,2.823Z" style="fill:#ff972c;fill-rule:nonzero;"/></g></g></g><circle cx="204.917" cy="183.629" r="98.909" style="fill:#0093ff;"/><g id="Capa-1" serif:id="Capa 1"><path d="M276.766,174.067c-0.019,0.05 -0.051,0.098 -0.056,0.15c-0.065,0.533 -0.119,1.067 -0.187,1.6c-0.079,0.615 -0.171,1.228 -0.257,1.842c-0.159,1.147 -0.373,2.284 -0.629,3.413c-0.538,2.38 -1.269,4.699 -2.219,6.948c-1.622,3.838 -3.814,7.319 -6.559,10.452c-0.06,0.069 -0.124,0.134 -0.187,0.202c-0.034,-0.019 -0.063,-0.027 -0.081,-0.046c-1.506,-1.507 -3.011,-3.016 -4.516,-4.525c-0.018,-0.018 -0.026,-0.046 -0.045,-0.081c0.031,-0.043 0.061,-0.089 0.096,-0.13c1.944,-2.275 3.426,-4.828 4.555,-7.592c0.824,-2.02 1.436,-4.104 1.872,-6.241c0.196,-0.962 0.357,-1.93 0.479,-2.903c0.113,-0.91 0.194,-1.823 0.249,-2.739c0.088,-1.453 0.093,-2.907 0.032,-4.361c-0.03,-0.684 -0.085,-1.368 -0.148,-2.05c-0.068,-0.71 -0.145,-1.419 -0.244,-2.125c-0.188,-1.329 -0.444,-2.647 -0.763,-3.951c-0.58,-2.372 -1.362,-4.673 -2.385,-6.891c-1.013,-2.195 -2.238,-4.262 -3.729,-6.168c-0.491,-0.629 -1.008,-1.234 -1.553,-1.817c-0.057,-0.06 -0.11,-0.123 -0.16,-0.18c0.003,-0.02 0.004,-0.029 0.007,-0.037c0.002,-0.008 0.006,-0.018 0.012,-0.024c1.416,-1.518 2.832,-3.034 4.249,-4.551c0.031,-0.034 0.064,-0.066 0.097,-0.099c0.006,-0.006 0.015,-0.011 0.024,-0.014c0.008,-0.003 0.017,-0.003 0.041,-0.006c0.025,0.025 0.058,0.055 0.088,0.09c0.277,0.323 0.551,0.649 0.832,0.97c3.661,4.193 6.507,8.879 8.488,14.084c0.714,1.871 1.282,3.787 1.677,5.751c0.16,0.799 0.285,1.604 0.412,2.409c0.134,0.85 0.251,1.703 0.373,2.556c0.031,0.219 0.049,0.441 0.073,0.662c0.007,0.064 0.001,0.131 0.062,0.176l0,5.226Z" style="fill:#fff;fill-rule:nonzero;"/><path d="M204.162,191.152c-0.064,-0.121 -0.049,-0.198 0.01,-0.268c0.054,-0.063 0.111,-0.124 0.167,-0.186c5.037,-5.464 10.073,-10.928 15.11,-16.392c1.092,-1.186 2.185,-2.372 3.278,-3.557c0.062,-0.068 0.12,-0.138 0.18,-0.206c-0.04,-0.124 -0.131,-0.193 -0.204,-0.274c-1.06,-1.152 -2.122,-2.303 -3.183,-3.455c-4.879,-5.294 -9.758,-10.589 -14.637,-15.884c-0.025,-0.027 -0.047,-0.058 -0.076,-0.081c-0.149,-0.118 -0.173,-0.273 -0.13,-0.464c0.047,-0.011 0.098,-0.029 0.149,-0.033c0.064,-0.007 0.129,-0.003 0.194,-0.003c3.503,0 7.007,-0 10.509,0.002c0.393,-0 0.292,-0.052 0.564,0.253c4.351,4.886 8.7,9.772 13.05,14.658c0.086,0.096 0.172,0.192 0.255,0.284c0.123,-0.038 0.174,-0.131 0.24,-0.206c1.036,-1.161 2.071,-2.324 3.106,-3.487c3.346,-3.758 6.692,-7.515 10.037,-11.273c0.031,-0.035 0.064,-0.068 0.091,-0.105c0.074,-0.097 0.168,-0.139 0.29,-0.126c0.056,0.006 0.111,0 0.167,0c3.494,0 6.988,0 10.481,0.002c0.119,-0 0.241,-0.023 0.352,0.027c0.077,0.205 -0.002,0.351 -0.14,0.5c-1.936,2.085 -3.867,4.174 -5.799,6.262c-4.047,4.373 -8.093,8.746 -12.14,13.119c-0.074,0.081 -0.162,0.152 -0.218,0.27c0.054,0.061 0.106,0.124 0.163,0.181c0.542,0.545 1.085,1.09 1.629,1.634c3.472,3.473 6.944,6.946 10.416,10.42c2.529,2.53 5.057,5.06 7.585,7.59c2.338,2.34 4.677,4.68 7.015,7.02c2.259,2.262 4.519,4.523 6.779,6.784c0.032,0.033 0.064,0.068 0.098,0.098c0.096,0.082 0.124,0.18 0.071,0.31c-0.067,0.004 -0.14,0.013 -0.213,0.014c-3.66,0 -7.321,-0.001 -10.982,0.003c-0.15,-0 -0.261,-0.04 -0.366,-0.15c-0.256,-0.267 -0.524,-0.524 -0.786,-0.786c-2.916,-2.915 -5.832,-5.831 -8.748,-8.746c-3.251,-3.249 -6.502,-6.498 -9.753,-9.747c-3.028,-3.026 -6.056,-6.052 -9.084,-9.078c-0.079,-0.078 -0.158,-0.154 -0.241,-0.236c-0.113,0.045 -0.167,0.135 -0.232,0.208c-0.796,0.879 -1.591,1.759 -2.387,2.639c-3.659,4.051 -7.319,8.102 -10.981,12.152c-0.338,0.374 -0.203,0.317 -0.705,0.318c-3.531,0.001 -7.062,0 -10.593,0c-0.129,0 -0.257,-0.003 -0.388,-0.005" style="fill:#fff;fill-rule:nonzero;"/><path d="M141.225,158.335c-0.012,0.089 -0.024,0.143 -0.026,0.196c-0.037,1.055 -0.014,14.614 0.025,14.864c0.088,0.071 0.194,0.047 0.294,0.047c3.882,0.001 7.764,0.003 11.646,-0c0.846,-0.001 1.683,-0.084 2.5,-0.317c1.911,-0.543 3.368,-1.667 4.332,-3.41c0.588,-1.064 0.884,-2.214 0.944,-3.424c0.051,-1.047 -0.087,-2.073 -0.442,-3.06c-0.798,-2.224 -2.302,-3.741 -4.556,-4.49c-0.896,-0.297 -1.824,-0.405 -2.764,-0.405c-3.882,-0.002 -7.765,-0.001 -11.647,-0.001l-0.306,-0Zm-0.025,22.479l0,9.947c-0.065,0.015 -0.116,0.033 -0.168,0.037c-0.083,0.006 -0.166,0.002 -0.25,0.002c-2.39,0 -4.781,0 -7.172,0l-0.372,0c-0.014,-0.065 -0.031,-0.116 -0.034,-0.168c-0.006,-0.083 -0.002,-0.166 -0.002,-0.25c-0,-13.063 -0,-26.126 0,-39.189c0,-0.128 -0.01,-0.257 0.018,-0.401c0.088,-0.007 0.169,-0.018 0.249,-0.019c0.519,-0.002 1.038,-0.002 1.557,-0.003c1.473,-0.005 2.947,-0.009 4.42,-0.014c4.457,-0.015 8.914,-0.03 13.371,-0.045c0.742,-0.002 1.483,0.004 2.222,0.071c2.432,0.22 4.732,0.866 6.837,2.129c2.584,1.551 4.454,3.735 5.668,6.484c0.556,1.261 0.923,2.577 1.131,3.939c0.178,1.169 0.227,2.343 0.144,3.52c-0.197,2.791 -1.032,5.373 -2.63,7.685c-1.726,2.496 -4.044,4.223 -6.895,5.246c-1.049,0.377 -2.129,0.631 -3.232,0.789c-0.975,0.139 -1.954,0.2 -2.937,0.201c-3.845,0.002 -7.691,0 -11.537,0.001c-0.118,0 -0.239,-0.018 -0.388,0.038" style="fill:#fff;fill-rule:nonzero;"/><path d="M179.682,183.161c0.114,0.006 0.205,0.015 0.296,0.015c3.872,0 7.744,0.002 11.616,-0.001c0.771,-0.001 1.535,-0.071 2.286,-0.259c1.411,-0.354 2.629,-1.039 3.604,-2.128c1.133,-1.266 1.727,-2.768 1.882,-4.448c0.105,-1.138 -0.012,-2.258 -0.391,-3.341c-0.788,-2.252 -2.302,-3.781 -4.579,-4.532c-0.879,-0.289 -1.788,-0.399 -2.709,-0.399c-3.873,-0.003 -7.745,-0.001 -11.617,-0.001c-0.083,-0 -0.167,-0.002 -0.25,0.002c-0.044,0.003 -0.088,0.018 -0.129,0.026c-0.011,0.038 -0.026,0.064 -0.026,0.09c-0.002,4.936 -0.003,9.872 -0.004,14.808c0,0.046 0.011,0.091 0.021,0.168m-7.996,7.579c-0.012,-0.08 -0.025,-0.125 -0.025,-0.169c0.001,-13.25 0.002,-26.499 0.005,-39.748c-0,-0.025 0.016,-0.051 0.03,-0.091c0.05,-0.007 0.103,-0.016 0.156,-0.019c0.056,-0.004 0.112,-0.002 0.167,-0.002c2.428,-0 4.856,-0 7.284,0c0.109,0 0.221,-0.016 0.328,0.029c0.045,0.104 0.028,0.207 0.028,0.307c0.002,0.89 0.001,1.779 0.001,2.669c-0,2.205 -0,4.41 -0,6.615l-0,0.368c0.069,0.015 0.121,0.033 0.173,0.036c0.092,0.006 0.185,0.003 0.278,0.003c3.688,-0 7.377,0.002 11.065,-0.002c0.881,-0.001 1.761,0.019 2.637,0.112c2.304,0.244 4.485,0.88 6.486,2.071c2.617,1.557 4.505,3.758 5.722,6.541c0.568,1.297 0.936,2.651 1.132,4.053c0.131,0.939 0.186,1.881 0.147,2.827c-0.118,2.884 -0.906,5.565 -2.505,7.982c-1.747,2.642 -4.142,4.459 -7.119,5.518c-1.095,0.39 -2.222,0.645 -3.373,0.796c-0.884,0.116 -1.771,0.167 -2.661,0.165c-3.383,-0.008 -6.765,-0.012 -10.148,-0.022c-3.169,-0.01 -6.338,-0.026 -9.508,-0.039c-0.091,0 -0.183,0 -0.3,0" style="fill:#fff;fill-rule:nonzero;"/><path d="M256.738,188.764c-1.586,-1.588 -3.157,-3.159 -4.731,-4.739c0.034,-0.071 0.056,-0.131 0.088,-0.184c1.295,-2.167 2.172,-4.496 2.699,-6.96c0.192,-0.896 0.325,-1.802 0.419,-2.715c0.134,-1.303 0.162,-2.608 0.087,-3.913c-0.196,-3.417 -1.016,-6.671 -2.596,-9.72c-0.551,-1.063 -1.191,-2.071 -1.922,-3.02c-0.051,-0.066 -0.102,-0.132 -0.151,-0.199c-0.011,-0.014 -0.017,-0.033 -0.025,-0.049c0,-0.009 -0,-0.018 0.002,-0.026c0.002,-0.009 0.006,-0.018 0.012,-0.025c1.473,-1.578 2.945,-3.156 4.419,-4.733c0.018,-0.02 0.042,-0.036 0.065,-0.052c0.006,-0.004 0.017,-0.003 0.039,-0.006c0.082,0.047 0.137,0.135 0.202,0.21c1.274,1.484 2.338,3.107 3.223,4.848c1.076,2.115 1.858,4.337 2.396,6.646c0.261,1.118 0.46,2.249 0.599,3.389c0.089,0.726 0.15,1.455 0.194,2.185c0.065,1.074 0.067,2.149 0.03,3.223c-0.023,0.675 -0.088,1.349 -0.141,2.022c-0.058,0.72 -0.163,1.435 -0.28,2.148c-0.337,2.062 -0.87,4.071 -1.618,6.023c-0.725,1.892 -1.64,3.687 -2.779,5.365c-0.062,0.09 -0.113,0.19 -0.231,0.282" style="fill:#fff;fill-rule:nonzero;"/><path d="M213.853,208.144c0.034,-0.01 0.068,-0.029 0.103,-0.029c0.907,-0.002 1.814,-0.001 2.727,-0.001c0.047,0.067 0.093,0.124 0.131,0.187c1.251,2.078 2.507,4.153 3.749,6.237c0.768,1.29 1.435,2.633 2.037,4.009c0.041,0.096 0.064,0.208 0.146,0.279c0.072,-0.032 0.057,-0.082 0.054,-0.126c-0.031,-0.471 -0.062,-0.942 -0.094,-1.413c-0.006,-0.084 -0.017,-0.166 -0.021,-0.249c-0.049,-1.037 -0.083,-2.074 -0.084,-3.111c-0.004,-1.825 -0.004,-3.65 -0.005,-5.474c0,-0.101 -0.018,-0.205 0.041,-0.309c0.028,-0.009 0.062,-0.029 0.097,-0.029c0.685,-0.002 1.371,-0.002 2.056,-0.001c0.035,0.001 0.07,0.018 0.11,0.029c0.009,0.041 0.023,0.076 0.023,0.111c0.001,4.612 0.001,9.224 0.001,13.848c-0.052,0.015 -0.094,0.038 -0.136,0.038c-0.806,0.001 -1.612,-0 -2.418,-0.002c-0.018,-0 -0.035,-0.009 -0.072,-0.018c-0.041,-0.066 -0.091,-0.143 -0.138,-0.222c-1.147,-1.925 -2.297,-3.848 -3.436,-5.778c-0.918,-1.555 -1.78,-3.141 -2.519,-4.791c-0.032,-0.071 -0.041,-0.166 -0.137,-0.193c-0.055,0.023 -0.058,0.069 -0.056,0.116c0.018,0.417 0.039,0.833 0.054,1.249c0.011,0.315 0.017,0.63 0.025,0.944c0.064,2.788 0.037,5.576 0.042,8.364c-0,0.101 0.015,0.204 -0.036,0.319c-0.179,0.031 -0.363,0.012 -0.546,0.015c-0.194,0.003 -0.388,0.001 -0.583,0.001c-0.185,-0 -0.371,0.001 -0.556,-0.001c-0.183,-0.002 -0.367,0.012 -0.564,-0.015c-0.009,-0.065 -0.021,-0.118 -0.024,-0.171c-0.004,-0.083 -0.002,-0.167 -0.002,-0.25c0,-4.391 -0,-8.781 0.002,-13.172c-0,-0.128 -0.023,-0.259 0.029,-0.391" style="fill:#fff;fill-rule:nonzero;"/><path d="M230.466,213.825c0.056,0.014 0.099,0.034 0.143,0.034c0.611,0.004 1.224,0.033 1.832,-0.041c0.389,-0.047 0.764,-0.149 1.109,-0.34c0.695,-0.383 1.058,-0.961 1.029,-1.766c-0.025,-0.714 -0.356,-1.23 -1.001,-1.541c-0.295,-0.142 -0.609,-0.216 -0.932,-0.261c-0.629,-0.087 -1.257,-0.05 -1.884,0.007c-0.101,0.009 -0.203,0.023 -0.3,0.088c-0.008,0.049 -0.02,0.102 -0.022,0.156c-0.027,0.68 -0.009,3.412 0.026,3.664m0.002,6.481c0.152,0.058 0.308,0.071 0.464,0.075c0.287,0.007 0.574,0.01 0.861,0.013c0.306,0.002 0.61,-0.011 0.913,-0.062c0.461,-0.077 0.901,-0.208 1.297,-0.464c0.456,-0.293 0.754,-0.703 0.886,-1.23c0.065,-0.262 0.09,-0.529 0.068,-0.799c-0.054,-0.678 -0.347,-1.222 -0.928,-1.59c-0.171,-0.109 -0.356,-0.198 -0.544,-0.274c-0.45,-0.182 -0.927,-0.256 -1.409,-0.274c-0.481,-0.018 -0.963,-0.007 -1.444,-0.007c-0.053,0 -0.106,0.015 -0.154,0.023c-0.015,0.042 -0.033,0.067 -0.033,0.092c-0.002,1.462 -0.003,2.925 -0.003,4.387c0,0.035 0.016,0.07 0.026,0.11m4.348,-5.745c0.022,0.036 0.031,0.07 0.05,0.078c0.077,0.031 0.158,0.053 0.237,0.079c0.708,0.241 1.321,0.623 1.792,1.212c0.442,0.552 0.678,1.183 0.719,1.889c0.034,0.59 -0.029,1.164 -0.256,1.715c-0.341,0.831 -0.934,1.437 -1.696,1.886c-0.516,0.303 -1.08,0.483 -1.662,0.608c-0.608,0.13 -1.222,0.212 -1.844,0.231c-0.453,0.014 -0.907,0.04 -1.36,0.036c-0.89,-0.009 -1.777,-0.061 -2.661,-0.161c-0.053,-0.006 -0.105,-0.028 -0.164,-0.044c-0.009,-0.06 -0.021,-0.113 -0.024,-0.167c-0.028,-0.733 -0.008,-13.351 0.022,-13.6c0.043,-0.016 0.091,-0.045 0.142,-0.054c0.475,-0.083 0.953,-0.133 1.433,-0.173c0.712,-0.059 1.424,-0.084 2.137,-0.088c0.593,-0.002 1.186,0.025 1.775,0.101c0.867,0.111 1.673,0.387 2.39,0.902c0.77,0.553 1.201,1.296 1.265,2.241c0.087,1.307 -0.491,2.264 -1.577,2.942c-0.172,0.107 -0.362,0.185 -0.544,0.277c-0.056,0.029 -0.112,0.058 -0.174,0.09" style="fill:#fff;fill-rule:nonzero;"/><path d="M253.211,215.917c-0.045,0.258 -0.049,3.859 -0.008,4.13c0.053,0.013 0.114,0.035 0.175,0.04c0.092,0.007 0.185,0.003 0.278,0.003c1.686,0 3.372,-0 5.058,0.001c0.119,-0 0.238,0.007 0.363,0.01c0.015,0.071 0.034,0.124 0.037,0.177c0.029,0.57 0.009,1.632 -0.036,1.845c-0.046,0.006 -0.099,0.018 -0.151,0.019c-0.139,0.003 -0.278,0.002 -0.417,0.002l-7.819,-0c-0.015,-0.066 -0.034,-0.117 -0.038,-0.169c-0.006,-0.083 -0.002,-0.167 -0.002,-0.25l-0,-13.199c-0,-0.12 0.002,-0.239 0.003,-0.368c0.066,-0.018 0.116,-0.039 0.168,-0.045c0.064,-0.007 0.13,-0.002 0.194,-0.002c2.474,-0 4.947,-0 7.421,0.001c0.109,-0 0.221,-0.018 0.341,0.034c0.033,0.163 0.013,0.329 0.016,0.494c0.004,0.166 0.001,0.333 0.001,0.5c0,0.166 0,0.333 -0,0.5c-0,0.165 -0.002,0.331 -0.003,0.481c-0.099,0.083 -0.196,0.059 -0.286,0.059c-0.583,0.002 -1.167,0.001 -1.751,0.001c-1.065,0 -2.13,-0 -3.196,0c-0.11,0 -0.22,0.004 -0.317,0.006c-0.096,0.101 -0.065,0.209 -0.065,0.307c-0.003,0.639 -0.002,1.278 -0.002,1.917c-0,0.37 -0.001,0.741 0,1.111c0,0.092 0.006,0.184 0.009,0.29c0.067,0.018 0.126,0.042 0.186,0.048c0.092,0.008 0.185,0.004 0.278,0.004c1.473,-0 2.946,-0 4.419,0c0.119,0 0.238,0.008 0.366,0.012c0.016,0.067 0.039,0.119 0.039,0.171c0.003,0.556 0.003,1.112 0.001,1.667c-0,0.053 -0.016,0.106 -0.025,0.158c-0.108,0.051 -0.211,0.034 -0.311,0.034c-0.963,0.002 -1.927,0.001 -2.89,0.001c-0.575,-0 -1.149,-0 -1.723,0c-0.101,0.001 -0.201,0.007 -0.313,0.01" style="fill:#fff;fill-rule:nonzero;"/><path d="M245.607,177.584c-0.169,-0.125 -4.708,-4.653 -5.085,-5.075c0.055,-0.713 0.113,-1.44 0.077,-2.172c-0.036,-0.723 -0.122,-1.437 -0.256,-2.149c1.579,-1.687 3.147,-3.364 4.717,-5.04c0.025,-0.026 0.058,-0.044 0.087,-0.066c0.351,0.566 1.001,2.622 1.253,3.904c0.481,2.453 0.514,4.911 0.09,7.373c-0.22,1.279 -0.666,2.867 -0.883,3.225" style="fill:#fff;fill-rule:nonzero;"/><path d="M238.392,210.179c-0.037,-0.24 -0.041,-1.763 -0.006,-2.028c0.047,-0.012 0.097,-0.032 0.149,-0.038c0.065,-0.007 0.13,-0.002 0.195,-0.002c3.29,-0 6.579,-0 9.869,0.001c0.108,-0 0.222,-0.022 0.327,0.033c0.009,0.03 0.022,0.056 0.022,0.082c0.002,0.611 0.003,1.222 0.003,1.834c-0.001,0.035 -0.012,0.071 -0.018,0.107c-0.098,0.064 -0.202,0.049 -0.301,0.05c-0.445,0.001 -0.89,0.001 -1.335,0.001c-0.676,-0 -1.353,-0.001 -2.029,0.001c-0.11,-0 -0.219,0.011 -0.34,0.017c-0.013,0.069 -0.028,0.12 -0.03,0.173c-0.005,0.092 -0.002,0.185 -0.002,0.278c-0,3.687 -0,7.374 -0.001,11.061c0,0.119 -0.004,0.238 -0.007,0.369c-0.283,0.049 -0.55,0.019 -0.815,0.024c-0.278,0.006 -0.556,0.002 -0.835,0.002l-0.816,-0c-0.018,-0.063 -0.042,-0.112 -0.046,-0.163c-0.008,-0.092 -0.003,-0.185 -0.003,-0.278c-0.001,-3.696 0,-7.393 -0.001,-11.089c-0.001,-0.119 0.023,-0.241 -0.03,-0.356c-0.116,-0.056 -0.238,-0.038 -0.357,-0.039c-1.075,-0.001 -2.15,0 -3.225,-0.001c-0.119,-0 -0.241,0.017 -0.368,-0.039" style="fill:#fff;fill-rule:nonzero;"/><path d="M261.449,208.138c0.064,-0.009 0.126,-0.024 0.189,-0.026c0.995,-0.029 2.023,-0.014 2.26,0.036c0.01,0.045 0.029,0.097 0.032,0.149c0.005,0.102 0.003,0.204 0.003,0.306c0,3.668 0,7.336 0.001,11.005c0,0.136 -0.025,0.278 0.045,0.407c0.109,0.053 0.221,0.032 0.331,0.032c1.677,0.002 3.354,0.001 5.031,0.002c0.109,-0 0.219,0.006 0.307,0.009c0.087,0.088 0.07,0.176 0.073,0.257c0.027,1.05 0.013,1.596 -0.047,1.794c-0.007,0.006 -0.014,0.014 -0.022,0.018c-0.008,0.004 -0.017,0.006 -0.026,0.007c-0.055,0.003 -0.111,0.009 -0.166,0.009c-2.632,-0 -5.263,-0.001 -7.894,-0.002c-0.028,0 -0.055,-0.007 -0.083,-0.012c-0.008,-0.002 -0.014,-0.011 -0.041,-0.031c-0.005,-0.035 -0.017,-0.088 -0.02,-0.141c-0.004,-0.083 -0.002,-0.167 -0.002,-0.25c0,-4.391 0,-8.782 0.001,-13.173c-0,-0.128 -0.016,-0.258 0.028,-0.396" style="fill:#fff;fill-rule:nonzero;"/><path d="M217.666,194.396c0.211,-0.044 0.961,-0.054 1.406,-0.02c0.041,0.059 0.091,0.125 0.135,0.194c1.076,1.697 2.153,3.395 3.226,5.094c0.595,0.94 1.141,1.907 1.622,2.91c0.032,0.066 0.069,0.129 0.103,0.19c0.081,-0.012 0.061,-0.067 0.058,-0.106c-0.018,-0.296 -0.048,-0.592 -0.058,-0.888c-0.032,-0.907 -0.072,-1.814 -0.08,-2.721c-0.013,-1.455 -0.004,-2.909 -0.002,-4.364c-0,-0.099 -0.025,-0.204 0.033,-0.296c0.21,-0.036 0.884,-0.04 1.174,-0.007c0.01,0.048 0.025,0.1 0.029,0.153c0.005,0.065 0.001,0.13 0.001,0.195c0,3.159 0.001,6.318 0,9.477c0,0.11 -0.004,0.22 -0.007,0.34c-0.155,0.057 -0.302,0.027 -0.447,0.032c-0.139,0.005 -0.278,0.001 -0.417,0.001l-0.443,0c-0.045,-0.063 -0.085,-0.114 -0.119,-0.168c-1.183,-1.892 -2.368,-3.783 -3.547,-5.679c-0.519,-0.834 -0.997,-1.692 -1.425,-2.576c-0.023,-0.046 -0.055,-0.088 -0.091,-0.145c-0.068,0.069 -0.042,0.135 -0.042,0.194c0.001,0.074 0.008,0.148 0.012,0.222c0.005,0.064 0.012,0.129 0.016,0.193c0.004,0.074 0.007,0.149 0.01,0.223c0.003,0.064 0.004,0.129 0.006,0.194c0.002,0.074 0.004,0.148 0.005,0.222c0.002,0.065 0.004,0.13 0.006,0.195c0.001,0.074 0.003,0.148 0.005,0.222c0.003,0.065 0.005,0.13 0.008,0.194c0.003,0.075 0.007,0.149 0.01,0.223c0.003,0.064 0.005,0.129 0.007,0.194c0.001,0.074 0.002,0.148 0.004,0.222c0,0.065 0.002,0.13 0.003,0.195c0,0.074 0.001,0.148 0.002,0.222c0.001,0.065 0.001,0.13 0.001,0.195c0.001,0.074 0.001,0.148 0.002,0.222c-0,0.065 -0.001,0.13 -0,0.195c0,0.074 0.002,0.148 0.002,0.222c0,0.065 0,0.13 0,0.194l0,4.169c0,0.074 0.001,0.148 -0,0.223c-0.002,0.063 -0.008,0.127 -0.013,0.203c-0.203,0.06 -0.407,0.023 -0.607,0.028c-0.192,0.005 -0.385,0.013 -0.573,-0.009c-0.016,-0.045 -0.033,-0.07 -0.033,-0.095c-0.002,-3.326 -0.003,-6.651 -0.003,-9.977c-0,-0.035 0.014,-0.07 0.021,-0.101" style="fill:#fff;fill-rule:nonzero;"/><path d="M208.335,208.146c0.233,-0.044 1.638,-0.063 2.294,-0.034c0.054,0.003 0.106,0.02 0.164,0.031c0.008,0.054 0.019,0.099 0.019,0.144c-0,4.583 -0.001,9.166 -0.004,13.749c-0,0.025 -0.016,0.051 -0.029,0.086c-0.034,0.006 -0.069,0.019 -0.104,0.019c-0.769,0.001 -1.537,0 -2.322,0c-0.018,-0.066 -0.043,-0.124 -0.049,-0.184c-0.01,-0.083 -0.005,-0.167 -0.005,-0.25c-0,-4.389 -0,-8.777 0.001,-13.166c-0,-0.128 -0.018,-0.259 0.035,-0.395" style="fill:#fff;fill-rule:nonzero;"/><path d="M159.429,199.43c-0.006,-0.335 -0.032,-0.695 -0.099,-1.051c-0.129,-0.69 -0.366,-1.338 -0.79,-1.905c-0.511,-0.687 -1.183,-1.108 -2.045,-1.195c-1.039,-0.104 -1.915,0.217 -2.604,1.012c-0.306,0.354 -0.527,0.761 -0.682,1.2c-0.382,1.083 -0.443,2.189 -0.2,3.308c0.133,0.613 0.373,1.182 0.757,1.683c0.534,0.696 1.227,1.112 2.112,1.183c0.909,0.072 1.698,-0.195 2.35,-0.842c0.374,-0.371 0.635,-0.816 0.827,-1.303c0.261,-0.663 0.358,-1.356 0.374,-2.09m-7.96,0.122c0,-0.91 0.151,-1.789 0.528,-2.621c0.493,-1.09 1.266,-1.907 2.377,-2.377c0.794,-0.336 1.623,-0.426 2.478,-0.32c0.416,0.051 0.819,0.152 1.204,0.316c0.827,0.353 1.468,0.923 1.941,1.684c0.357,0.574 0.582,1.199 0.7,1.86c0.196,1.102 0.149,2.195 -0.158,3.273c-0.145,0.511 -0.361,0.991 -0.663,1.43c-0.757,1.102 -1.809,1.72 -3.128,1.903c-0.689,0.095 -1.369,0.055 -2.035,-0.145c-1.222,-0.368 -2.093,-1.153 -2.658,-2.286c-0.338,-0.68 -0.511,-1.406 -0.564,-2.162c-0.012,-0.185 -0.015,-0.37 -0.022,-0.555" style="fill:#fff;fill-rule:nonzero;"/><path d="M139.379,194.361l1.239,-0c0.014,0.064 0.032,0.115 0.036,0.167c0.006,0.073 0.003,0.148 0.003,0.222c-0,3.149 -0,6.298 -0.001,9.448c0,0.117 0.017,0.238 -0.023,0.349c-0.215,0.04 -0.941,0.048 -1.256,0.015c-0.072,-0.087 -0.043,-0.194 -0.043,-0.292c-0.003,-0.769 -0.002,-1.537 -0.002,-2.306c0,-0.612 0.001,-1.223 -0,-1.834c-0,-0.101 -0.005,-0.201 -0.008,-0.318c-0.084,-0.01 -0.155,-0.024 -0.225,-0.024c-0.445,-0.003 -0.89,-0.002 -1.335,-0.002c-1.019,0 -2.038,-0 -3.057,0.001c-0.1,0.001 -0.203,-0.02 -0.302,0.029c-0.058,0.093 -0.034,0.198 -0.034,0.297c-0.002,0.852 -0.001,1.705 -0.001,2.557c-0,0.537 0,1.074 -0.001,1.611c-0,0.09 -0.009,0.181 -0.014,0.265c-0.229,0.042 -0.913,0.049 -1.25,0.014c-0.011,-0.045 -0.028,-0.096 -0.033,-0.147c-0.006,-0.074 -0.002,-0.148 -0.002,-0.223c-0,-3.149 -0.001,-6.298 0,-9.447c0,-0.118 -0.016,-0.239 0.023,-0.349c0.219,-0.04 0.894,-0.048 1.243,-0.015c0.01,0.046 0.03,0.097 0.031,0.149c0.005,0.185 0.003,0.37 0.003,0.555c-0,1.075 -0.001,2.149 0,3.224c0,0.1 -0.012,0.202 0.025,0.304c0.102,0.046 0.205,0.029 0.304,0.03c0.982,0.001 1.964,0 2.947,0l1.649,0c0.014,-0.068 0.033,-0.119 0.035,-0.171c0.005,-0.129 0.002,-0.259 0.002,-0.388c0,-1.13 -0,-2.26 0.001,-3.391c0,-0.099 -0.021,-0.203 0.046,-0.33" style="fill:#fff;fill-rule:nonzero;"/><path d="M241.203,200.264c-0.057,-0.29 -0.053,-0.819 0.003,-1.035c0.048,-0.005 0.102,-0.015 0.156,-0.016c0.974,-0.025 2.854,-0.012 3.129,0.025c0.007,0.064 0.022,0.134 0.022,0.204c0.003,0.491 0.002,0.982 0.002,1.473l0,3.202c-0.108,0.04 -0.201,0.08 -0.296,0.11c-1.006,0.319 -2.035,0.487 -3.091,0.456c-0.585,-0.016 -1.164,-0.09 -1.723,-0.27c-1.36,-0.435 -2.34,-1.292 -2.858,-2.634c-0.522,-1.352 -0.571,-2.731 -0.111,-4.108c0.513,-1.534 1.568,-2.55 3.089,-3.079c0.916,-0.318 1.862,-0.394 2.824,-0.308c0.463,0.041 0.918,0.115 1.363,0.249c0.158,0.048 0.318,0.094 0.473,0.187c0.001,0.193 -0.082,0.362 -0.131,0.536c-0.047,0.167 -0.077,0.342 -0.173,0.51c-0.102,-0.036 -0.196,-0.07 -0.29,-0.102c-1.042,-0.361 -2.107,-0.429 -3.175,-0.17c-1.475,0.359 -2.404,1.294 -2.76,2.774c-0.232,0.967 -0.199,1.934 0.126,2.875c0.472,1.371 1.456,2.152 2.873,2.392c0.71,0.12 1.421,0.089 2.127,-0.055c0.081,-0.017 0.162,-0.04 0.241,-0.065c0.061,-0.02 0.119,-0.049 0.189,-0.078c0.009,-0.052 0.028,-0.105 0.028,-0.158c0.001,-0.916 0.001,-1.833 0,-2.75c0,-0.037 -0.008,-0.073 -0.011,-0.103c-0.069,-0.083 -0.158,-0.06 -0.238,-0.061c-0.491,-0.002 -0.982,-0.001 -1.473,-0.001l-0.315,-0Z" style="fill:#fff;fill-rule:nonzero;"/><path d="M194.489,216.816c0.05,0.007 0.113,0.025 0.176,0.025c0.38,0.002 0.76,0.007 1.139,-0.002c0.308,-0.007 0.607,-0.078 0.887,-0.206c0.346,-0.158 0.63,-0.388 0.796,-0.741c0.17,-0.357 0.197,-0.728 0.094,-1.109c-0.099,-0.368 -0.317,-0.642 -0.653,-0.823c-0.181,-0.097 -0.37,-0.173 -0.57,-0.214c-0.523,-0.109 -1.05,-0.075 -1.578,-0.047c-0.054,0.003 -0.108,0.026 -0.163,0.032c-0.122,0.014 -0.179,0.06 -0.2,0.223c-0.004,0.037 -0.006,0.074 -0.006,0.111c-0,0.815 -0.001,1.63 0,2.445c0,0.101 0.003,0.204 0.078,0.306m-0.079,2.649c-0,0.481 -0.001,0.963 0.001,1.444c-0,0.083 0.005,0.166 0.016,0.248c0.009,0.081 0.057,0.138 0.139,0.154c0.081,0.016 0.163,0.03 0.246,0.031c0.351,0.003 0.704,0.016 1.055,-0.002c0.418,-0.021 0.822,-0.117 1.195,-0.321c0.363,-0.2 0.629,-0.485 0.761,-0.881c0.046,-0.14 0.088,-0.286 0.099,-0.432c0.047,-0.662 -0.146,-1.223 -0.718,-1.611c-0.361,-0.245 -0.77,-0.355 -1.195,-0.411c-0.405,-0.052 -0.813,-0.05 -1.22,-0.045c-0.349,0.003 -0.376,0.03 -0.378,0.383c-0.003,0.481 -0.001,0.962 -0.001,1.443m2.803,-2.298c0.062,0.105 0.161,0.111 0.247,0.141c0.428,0.151 0.795,0.394 1.094,0.736c0.315,0.36 0.498,0.779 0.512,1.26c0.007,0.248 0.015,0.505 -0.036,0.746c-0.185,0.873 -0.719,1.463 -1.544,1.791c-0.415,0.165 -0.851,0.24 -1.294,0.295c-0.592,0.073 -1.184,0.047 -1.776,0.043c-0.277,-0.002 -0.553,-0.036 -0.83,-0.058c-0.046,-0.004 -0.09,-0.018 -0.134,-0.032c-0.069,-0.02 -0.112,-0.065 -0.117,-0.138c-0.004,-0.065 -0.006,-0.13 -0.006,-0.195c0,-2.805 0.001,-5.611 -0,-8.417c-0,-0.305 0.021,-0.318 0.294,-0.353c0.293,-0.038 0.585,-0.087 0.882,-0.096c0.36,-0.011 0.721,-0.053 1.081,-0.044c0.451,0.012 0.905,0.044 1.347,0.157c0.39,0.101 0.749,0.264 1.067,0.516c0.378,0.3 0.626,0.679 0.703,1.159c0.097,0.602 0.002,1.161 -0.385,1.652c-0.211,0.266 -0.475,0.465 -0.772,0.624c-0.081,0.044 -0.169,0.077 -0.249,0.123c-0.034,0.021 -0.058,0.061 -0.084,0.09" style="fill:#fff;fill-rule:nonzero;"/><path d="M171.148,204.077c0.081,-0.366 0.205,-0.71 0.314,-1.08c0.109,0.056 0.19,0.099 0.272,0.139c0.718,0.357 1.475,0.543 2.28,0.509c0.374,-0.016 0.734,-0.094 1.069,-0.268c0.454,-0.237 0.758,-0.6 0.852,-1.104c0.128,-0.689 -0.034,-1.293 -0.611,-1.735c-0.197,-0.151 -0.413,-0.283 -0.635,-0.395c-0.256,-0.129 -0.525,-0.233 -0.792,-0.337c-0.337,-0.132 -0.669,-0.272 -0.984,-0.45c-0.243,-0.137 -0.47,-0.295 -0.684,-0.475c-1.267,-1.066 -1.112,-2.98 0.052,-3.925c0.458,-0.372 0.983,-0.594 1.557,-0.693c0.826,-0.141 1.644,-0.08 2.445,0.163c0.168,0.051 0.328,0.128 0.489,0.197c0.041,0.017 0.075,0.048 0.12,0.079c-0.108,0.352 -0.219,0.692 -0.352,1.038c-0.092,-0.04 -0.168,-0.072 -0.243,-0.106c-0.657,-0.293 -1.344,-0.407 -2.06,-0.339c-0.28,0.027 -0.546,0.104 -0.792,0.241c-0.983,0.544 -0.974,1.787 -0.32,2.388c0.185,0.171 0.387,0.319 0.612,0.429c0.299,0.147 0.603,0.284 0.911,0.411c0.394,0.164 0.787,0.326 1.156,0.543c0.288,0.17 0.557,0.365 0.792,0.605c0.41,0.421 0.636,0.925 0.697,1.508c0.042,0.401 0.022,0.796 -0.089,1.184c-0.211,0.732 -0.664,1.272 -1.325,1.641c-0.435,0.243 -0.906,0.376 -1.396,0.44c-0.898,0.117 -1.775,0.019 -2.63,-0.271c-0.192,-0.065 -0.376,-0.156 -0.562,-0.239c-0.048,-0.022 -0.089,-0.061 -0.143,-0.098" style="fill:#fff;fill-rule:nonzero;"/><path d="M191.514,204.542c-0.237,0.046 -0.906,0.055 -1.29,0.022c-0.011,-0.046 -0.029,-0.097 -0.032,-0.149c-0.006,-0.092 -0.002,-0.185 -0.002,-0.277c-0,-2.769 -0,-5.538 -0.001,-8.307c0,-0.109 0.013,-0.22 -0.023,-0.334c-0.102,-0.044 -0.205,-0.028 -0.304,-0.028c-0.815,-0.002 -1.63,-0.001 -2.445,-0.002c-0.1,0 -0.201,-0.005 -0.296,-0.007c-0.052,-0.202 -0.061,-0.74 -0.019,-1.074c0.047,-0.008 0.099,-0.02 0.152,-0.024c0.055,-0.004 0.111,-0.001 0.166,-0.001c2.288,-0 4.576,-0 6.863,-0l0.315,-0c0.014,0.053 0.036,0.095 0.036,0.138c0.003,0.277 0.002,0.555 0,0.833c0,0.035 -0.011,0.07 -0.02,0.123c-0.105,0.005 -0.205,0.012 -0.304,0.012c-0.816,0.001 -1.631,0.001 -2.446,0.001c-0.1,0 -0.201,0.004 -0.315,0.006c-0.013,0.063 -0.029,0.114 -0.033,0.166c-0.006,0.083 -0.002,0.167 -0.002,0.25l-0,8.652Z" style="fill:#fff;fill-rule:nonzero;"/><path d="M200.351,224.227c0.108,-0.049 0.191,-0.086 0.274,-0.126c0.861,-0.411 1.445,-1.079 1.815,-1.947c0.053,-0.125 0.067,-0.248 0.015,-0.377c-0.038,-0.094 -0.063,-0.194 -0.101,-0.288c-0.754,-1.883 -1.509,-3.765 -2.263,-5.647c-0.03,-0.075 -0.084,-0.145 -0.055,-0.252c0.035,-0.01 0.077,-0.033 0.119,-0.034c0.277,-0.003 0.555,-0 0.834,-0.004c0.128,-0.001 0.209,0.052 0.253,0.173c0.075,0.209 0.155,0.416 0.233,0.624c0.354,0.955 0.714,1.908 1.061,2.865c0.154,0.426 0.28,0.863 0.426,1.292c0.034,0.101 0.032,0.224 0.158,0.3c0.034,-0.042 0.079,-0.077 0.095,-0.122c0.057,-0.166 0.101,-0.337 0.156,-0.504c0.207,-0.633 0.415,-1.266 0.626,-1.899c0.27,-0.808 0.544,-1.614 0.814,-2.422c0.107,-0.324 0.11,-0.306 0.429,-0.307c0.194,-0.001 0.389,-0.001 0.584,0.001c0.063,0.001 0.126,0.012 0.183,0.018c0.053,0.1 0.001,0.174 -0.027,0.249c-0.267,0.701 -0.535,1.401 -0.804,2.101c-0.44,1.14 -0.878,2.281 -1.325,3.419c-0.258,0.655 -0.551,1.295 -0.911,1.903c-0.379,0.64 -0.86,1.181 -1.505,1.565c-0.208,0.124 -0.426,0.224 -0.659,0.29c-0.126,0.036 -0.176,0.016 -0.214,-0.102c-0.078,-0.245 -0.168,-0.488 -0.211,-0.769" style="fill:#fff;fill-rule:nonzero;"/><path d="M204.929,194.397c0.222,-0.048 1.001,-0.05 1.25,-0.004c0.007,0.023 0.022,0.048 0.022,0.073c0.002,3.326 0.002,6.652 0.002,9.977c0,0.035 -0.012,0.07 -0.017,0.101c-0.231,0.049 -1.018,0.049 -1.25,0.003c-0.008,-0.023 -0.026,-0.048 -0.026,-0.073c-0.003,-3.326 -0.004,-6.651 -0.004,-9.977c0,-0.034 0.015,-0.069 0.023,-0.1" style="fill:#fff;fill-rule:nonzero;"/></g></g></g></svg>