<?xml version="1.0" encoding="UTF-8" standalone="no"?><!DOCTYPE svg PUBLIC "-//W3C//DTD SVG 1.1//EN" "http://www.w3.org/Graphics/SVG/1.1/DTD/svg11.dtd"><svg width="100%" height="100%" viewBox="0 0 512 512" version="1.1" xmlns="http://www.w3.org/2000/svg" xmlns:xlink="http://www.w3.org/1999/xlink" xml:space="preserve" xmlns:serif="http://www.serif.com/" style="fill-rule:evenodd;clip-rule:evenodd;stroke-linejoin:round;stroke-miterlimit:2;"><g id="Layer_x0020_1"><path d="M302.001,501.13c-3.543,0 -7.205,-0.945 -10.63,-2.716c-9.212,-4.725 -13.936,-14.764 -11.811,-24.803l31.771,-154.957l-75.116,-66.494c-4.724,-4.134 -7.323,-9.567 -7.677,-15.827c-0.354,-6.26 1.654,-12.047 5.905,-16.653l181.768,-201.255c7.086,-7.795 18.07,-9.803 27.401,-4.961c9.33,4.725 14.173,14.882 12.047,25.039l-33.779,159.8l80.904,67.557c4.96,4.134 7.795,9.803 8.149,16.299c0.354,6.496 -1.772,12.401 -6.26,17.125l-186.137,194.76c-4.488,4.606 -10.512,7.086 -16.535,7.086Z" style="fill:#fff;"/><path d="M372.275,87.045l-134.525,0c-4.488,0 -8.031,-3.543 -8.031,-8.031c0,-4.37 3.543,-7.913 8.031,-7.913l134.525,-0c4.37,-0 7.913,3.543 7.913,7.913c0,4.488 -3.543,8.031 -7.913,8.031Zm-188.263,0l-67.322,0c-4.37,0 -8.031,-3.543 -8.031,-8.031c-0,-4.37 3.661,-7.913 8.031,-7.913l67.322,-0c4.369,-0 7.913,3.543 7.913,7.913c-0,4.488 -3.544,8.031 -7.913,8.031Z" style="fill:#fff;"/><path d="M319.008,146.099l-278.025,-0c-4.37,-0 -7.913,-3.661 -7.913,-8.031c0,-4.488 3.543,-8.032 7.913,-8.032l278.025,0c4.37,0 7.914,3.544 7.914,8.032c-0,4.37 -3.544,8.031 -7.914,8.031Z" style="fill:#fff;"/><path d="M265.624,205.035l-72.873,-0c-4.488,-0 -8.031,-3.662 -8.031,-8.032c0,-4.37 3.543,-8.031 8.031,-8.031l72.873,0c4.488,0 8.031,3.661 8.031,8.031c0,4.37 -3.543,8.032 -8.031,8.032Zm-114.21,-0l-34.724,-0c-4.37,-0 -8.031,-3.662 -8.031,-8.032c-0,-4.37 3.661,-8.031 8.031,-8.031l34.724,0c4.488,0 8.031,3.661 8.031,8.031c0,4.37 -3.543,8.032 -8.031,8.032Z" style="fill:#fff;"/><path d="M252.632,263.97l-243.656,0c-4.37,0 -8.031,-3.543 -8.031,-8.031c-0,-4.37 3.661,-7.913 8.031,-7.913l243.656,-0c4.37,-0 7.913,3.543 7.913,7.913c0,4.488 -3.543,8.031 -7.913,8.031Z" style="fill:#fff;"/><path d="M319.126,323.024l-98.974,0c-4.37,0 -7.913,-3.661 -7.913,-8.031c0,-4.37 3.543,-8.032 7.913,-8.032l98.974,0c4.489,0 8.032,3.662 8.032,8.032c-0,4.37 -3.543,8.031 -8.032,8.031Zm-146.453,0l-55.983,0c-4.37,0 -8.031,-3.661 -8.031,-8.031c-0,-4.37 3.661,-8.032 8.031,-8.032l55.983,0c4.488,0 8.031,3.662 8.031,8.032c0,4.37 -3.543,8.031 -8.031,8.031Z" style="fill:#fff;"/><path d="M308.142,381.96l-267.159,-0c-4.37,-0 -7.913,-3.544 -7.913,-8.032c0,-4.37 3.543,-8.031 7.913,-8.031l267.159,0c4.37,0 8.032,3.661 8.032,8.031c-0,4.488 -3.662,8.032 -8.032,8.032Z" style="fill:#fff;"/><path d="M295.977,440.895l-103.226,0c-4.488,0 -8.031,-3.543 -8.031,-7.913c0,-4.488 3.543,-8.031 8.031,-8.031l103.226,-0c4.489,-0 8.032,3.543 8.032,8.031c-0,4.37 -3.543,7.913 -8.032,7.913Zm-138.303,0l-40.984,0c-4.37,0 -8.031,-3.543 -8.031,-7.913c-0,-4.488 3.661,-8.031 8.031,-8.031l40.984,-0c4.488,-0 8.031,3.543 8.031,8.031c-0,4.37 -3.543,7.913 -8.031,7.913Z" style="fill:#fff;"/></g></svg>