<?xml version="1.0" encoding="UTF-8" standalone="no"?><!DOCTYPE svg PUBLIC "-//W3C//DTD SVG 1.1//EN" "http://www.w3.org/Graphics/SVG/1.1/DTD/svg11.dtd"><svg width="100%" height="100%" viewBox="0 0 1726 1726" version="1.1" xmlns="http://www.w3.org/2000/svg" xmlns:xlink="http://www.w3.org/1999/xlink" xml:space="preserve" xmlns:serif="http://www.serif.com/" style="fill-rule:evenodd;clip-rule:evenodd;stroke-linejoin:round;stroke-miterlimit:2;"><g><g><path d="M1133.31,932.279l172.537,34.246c1.787,84.629 71.846,151.788 156.475,150c84.629,-1.787 151.787,-71.846 150,-156.475c-1.787,-84.629 -71.846,-151.788 -156.475,-150c-59.433,1.254 -112.783,36.767 -136.879,91.112l-177.013,-35.133c-0.183,-64.775 -25.396,-126.975 -70.362,-173.6l229.112,-323.658c96.638,45.95 212.225,4.858 258.175,-91.779c45.95,-96.638 4.859,-212.225 -91.779,-258.175c-96.637,-45.95 -212.225,-4.859 -258.175,91.779c-35.075,73.771 -20.121,161.612 37.396,219.617l-226.9,320.529c-104.35,-62.671 -238.6,-41.609 -318.75,50l-297.879,-231.338c39.1,-75.262 9.787,-167.975 -65.475,-207.075c-75.263,-39.1 -167.975,-9.787 -207.075,65.475c-39.1,75.263 -9.788,167.975 65.475,207.075c52.883,27.475 116.887,21.875 164.191,-14.366l303.625,235.795c-50.45,103.071 -24.737,227.221 62.5,301.775l-184.52,260.888c-97.688,-59.284 -224.942,-28.15 -284.225,69.542c-59.284,97.687 -28.15,224.941 69.541,284.225c97.688,59.283 224.942,28.15 284.225,-69.542c46.071,-75.921 38.559,-172.775 -18.675,-240.679l189.5,-268c64.834,30.825 139.742,32.508 205.892,4.621l224.846,332.15c-66.129,69.916 -63.059,180.204 6.858,246.333c69.917,66.129 180.204,63.058 246.334,-6.859c66.129,-69.916 63.058,-180.204 -6.859,-246.333c-51.554,-48.762 -127.529,-61.391 -192.083,-31.925l-221.604,-327.366c42.912,-33.626 73.804,-80.23 88.045,-132.859Z" style="fill:#fdfffe;fill-rule:nonzero;"/></g></g></svg>