<?xml version="1.0" encoding="UTF-8" standalone="no"?><!DOCTYPE svg PUBLIC "-//W3C//DTD SVG 1.1//EN" "http://www.w3.org/Graphics/SVG/1.1/DTD/svg11.dtd"><svg width="100%" height="100%" viewBox="0 0 2134 2134" version="1.1" xmlns="http://www.w3.org/2000/svg" xmlns:xlink="http://www.w3.org/1999/xlink" xml:space="preserve" xmlns:serif="http://www.serif.com/" style="fill-rule:evenodd;clip-rule:evenodd;stroke-linejoin:round;stroke-miterlimit:2;"><path d="M1066.67,66.667c-551.334,-0 -1000,448.666 -1000,1000c-0,551.333 448.666,1000 1000,1000c551.333,-0 1000,-448.667 1000,-1000c-0,-551.334 -448.667,-1000 -1000,-1000Zm754,1266.67l-154,0c-10,0 -19.667,4.667 -26,12.667l-74.667,93.333c-10.333,-3.666 -21.333,-6 -32.667,-6c-55,0 -100,45 -100,100c0,55 45,100 100,100c55,0 100,-45 100,-100c0,-19.333 -5.666,-37.333 -15.333,-52.666l64.667,-80.667l111,0c-126.667,275 -404.667,466.667 -727,466.667c-322,-0 -600.334,-191.667 -727,-466.667l111,0l64.666,80.667c-9.666,15.333 -15.333,33.333 -15.333,52.666c0,55 45,100 100,100c55,0 100,-45 100,-100c0,-55 -45,-100 -100,-100c-11.333,0 -22.333,2.334 -32.667,6l-74.666,-93.333c-6.334,-8 -16,-12.667 -26,-12.667l-154,0c-26.334,-73.333 -41.667,-152 -45,-233.333l238.333,0c14,38.667 50.667,66.667 94,66.667c55,-0 100,-45 100,-100c0,-55 -45,-100 -100,-100c-43.333,-0 -80,28 -94,66.666l-238.333,0c3.333,-81.333 18.666,-160 45,-233.333l187.333,0c11.667,0 22.667,-6 28.667,-16.333l51.333,-85.667c6.667,1.333 13.333,2 20,2c55,0 100,-45 100,-100c0,-55 -45,-100 -100,-100c-55,0 -100,45 -100,100c0,24 9,46 23.333,63.333l-42.333,70l-141.333,0c126.666,-275 405,-466.666 727,-466.666c322.333,-0 600.333,191.666 727,466.666l-141.334,0l-42,-70c14,-17.333 23,-39.333 23,-63.333c0,-55 -45,-100 -100,-100c-55,0 -100,45 -100,100c0,55 45,100 100,100c7,0 13.334,-0.667 20,-2l51.334,85.667c6,10.333 17,16.333 28.666,16.333l187.334,0c26.333,73.333 41.666,152 45.333,233.333l-238.667,0c-14,-38.666 -50.666,-66.666 -94,-66.666c-55,-0 -100,45 -100,100c0,55 45,100 100,100c43.334,-0 80,-28 94,-66.667l238.667,0c-3.667,81.333 -19,160 -45.333,233.333Zm-254,200c-0,18.334 -15,33.334 -33.334,33.334c-18.333,-0 -33.333,-15 -33.333,-33.334c0,-18.333 15,-33.333 33.333,-33.333c18.334,0 33.334,15 33.334,33.333Zm-1000,0c-0,-18.333 15,-33.333 33.333,-33.333c18.333,0 33.333,15 33.333,33.333c0,18.334 -15,33.334 -33.333,33.334c-18.333,-0 -33.333,-15 -33.333,-33.334Zm-0,-466.666c-0,-18.334 15,-33.334 33.333,-33.334c18.333,0 33.333,15 33.333,33.334c0,18.333 -15,33.333 -33.333,33.333c-18.333,0 -33.333,-15 -33.333,-33.333Zm-0,-466.667c-0,-18.333 15,-33.333 33.333,-33.333c18.333,-0 33.333,15 33.333,33.333c0,18.333 -15,33.333 -33.333,33.333c-18.333,0 -33.333,-15 -33.333,-33.333Zm1000,0c-0,18.333 -15,33.333 -33.334,33.333c-18.333,0 -33.333,-15 -33.333,-33.333c0,-18.333 15,-33.333 33.333,-33.333c18.334,-0 33.334,15 33.334,33.333Zm-0,466.667c-0,18.333 -15,33.333 -33.334,33.333c-18.333,0 -33.333,-15 -33.333,-33.333c0,-18.334 15,-33.334 33.333,-33.334c18.334,0 33.334,15 33.334,33.334Z" style="fill:#fff;fill-rule:nonzero;"/><path d="M1066.67,700c73.666,0 133.333,59.667 133.333,133.333c0,55 45,100 100,100c55,0 100,-45 100,-100c0,-145 -96.667,-274.333 -233.333,-317.666l-0,-82.334c-0,-55 -45,-100 -100,-100c-55,0 -100,45 -100,100l-0,82.334c-136.667,43.333 -233.334,172.666 -233.334,317.666c0,183.667 149.667,333.334 333.334,333.334c73.666,-0 133.333,59.666 133.333,133.333c0,73.667 -59.667,133.333 -133.333,133.333c-73.667,0 -133.334,-59.666 -133.334,-133.333c0,-55 -45,-100 -100,-100c-55,0 -100,45 -100,100c0,145 96.667,274.333 233.334,317.667l-0,82.333c-0,55 45,100 100,100c55,0 100,-45 100,-100l-0,-82.333c136.666,-43.334 233.333,-172.667 233.333,-317.667c0,-183.667 -149.667,-333.333 -333.333,-333.333c-73.667,-0 -133.334,-59.667 -133.334,-133.334c0,-73.666 59.667,-133.333 133.334,-133.333Z" style="fill:#fff;fill-rule:nonzero;"/></svg>