<?xml version="1.0" encoding="UTF-8" standalone="no"?><!DOCTYPE svg PUBLIC "-//W3C//DTD SVG 1.1//EN" "http://www.w3.org/Graphics/SVG/1.1/DTD/svg11.dtd"><svg width="100%" height="100%" viewBox="0 0 254 232" version="1.1" xmlns="http://www.w3.org/2000/svg" xmlns:xlink="http://www.w3.org/1999/xlink" xml:space="preserve" xmlns:serif="http://www.serif.com/" style="fill-rule:evenodd;clip-rule:evenodd;stroke-linejoin:round;stroke-miterlimit:2;"><g><ellipse cx="94.872" cy="93.14" rx="94.872" ry="93.14" style="fill:#0093ff;fill-opacity:0.16;"/><path d="M101.991,130.027l16.683,-7.815c9.875,5.787 17.842,8.166 27.17,8.166l1.564,-0c-0.527,7.394 -3.032,14.661 -6.802,19.833c-1.309,-1.039 -2.959,-1.664 -4.756,-1.664l-5.233,-0c-4.228,-0 -7.668,3.44 -7.668,7.668c0,0.863 0.15,1.691 0.415,2.467c-14.518,-0.94 -20.597,-16.968 -21.373,-28.655Zm18.346,-13.562c8.045,4.877 15.462,8.125 25.507,8.125l1.669,-0l0,-4.125c0,-12.571 -10.227,-22.799 -22.799,-22.799c-12.578,0 -22.811,10.228 -22.811,22.799l0,3.21l15.706,-7.356c0.877,-0.41 1.901,-0.355 2.728,0.146Zm10.28,37.869c-1.037,0 -1.88,0.844 -1.88,1.88c-0,1.019 0.861,1.88 1.88,1.88l5.232,0c1.02,0 1.88,-0.861 1.88,-1.88c0,-1.018 -0.861,-1.88 -1.88,-1.88l-5.232,0Zm-16.089,30.129l6.707,-5.945l-8.68,-9.236c-0.837,0.106 -1.663,0.224 -2.481,0.351l4.454,14.83Zm19.544,-19.238l-0,-1.342l-3.455,-0c-0.064,-0 -0.125,-0.008 -0.188,-0.01c-1.822,0.424 -3.742,0.642 -5.714,0.642c-2.831,0 -5.515,-0.434 -8.03,-1.287l-0,1.996l8.698,9.257l8.689,-9.256Zm-9.357,-73.346c15.762,-0 28.586,12.824 28.586,28.587l0,4.13c0.939,0.019 1.853,0.14 2.731,0.354l0,-4.484c0,-17.269 -14.049,-31.318 -31.317,-31.318c-17.275,0 -31.33,14.049 -31.33,31.318l0,4.472c0.879,-0.21 1.792,-0.328 2.731,-0.343l-0,-4.129c-0.001,-15.763 12.829,-28.587 28.599,-28.587Zm23.504,98.416c0.562,6.395 2.401,12.405 5.257,17.783c-0.384,-0.189 -0.814,-0.297 -1.271,-0.297c-1.598,-0 -2.894,1.295 -2.894,2.894l0,15.185l-49.205,-0l-0,-15.185c-0,-1.599 -1.296,-2.894 -2.894,-2.894c-1.599,-0 -2.894,1.295 -2.894,2.894l-0,15.185l-13.172,-0l0,-36.885c0,-5.083 3.09,-9.462 9.182,-13.015c3.731,-2.176 8.548,-3.957 14.033,-5.228l5.926,19.732c0.284,0.946 1.031,1.682 1.981,1.952c0.26,0.074 0.527,0.11 0.791,0.11c0.698,0 1.384,-0.253 1.92,-0.728l10.405,-9.222l10.393,9.221c0.536,0.476 1.222,0.729 1.921,0.729c0.264,0 0.529,-0.036 0.79,-0.11c0.95,-0.269 1.697,-1.005 1.981,-1.95l5.899,-19.605c4.358,1.002 8.262,2.327 11.591,3.939c-0.842,2.711 -1.389,5.549 -1.608,8.478l-1.702,0c-1.857,0 -3.503,0.723 -4.777,2.108c-1.237,1.369 -1.809,3.063 -1.653,4.909Zm-20.467,23.443c0,-1.687 -1.376,-3.063 -3.062,-3.063c-1.687,0 -3.063,1.376 -3.063,3.063c0,1.686 1.376,3.062 3.063,3.062c1.686,0 3.062,-1.376 3.062,-3.062Zm0,-13.616c0,-1.686 -1.376,-3.062 -3.062,-3.062c-1.687,-0 -3.063,1.376 -3.063,3.062c0,1.687 1.376,3.063 3.063,3.063c1.686,0 3.062,-1.376 3.062,-3.063Zm-38.248,-62.929c-0,3.758 3.057,6.815 6.815,6.815l2.775,-0c-1.575,-4.299 -2.579,-8.996 -2.88,-13.625c-3.709,0.057 -6.71,3.087 -6.71,6.81Zm70.359,-0c0,-3.706 -2.974,-6.724 -6.66,-6.808c-0.275,4.236 -1.157,9.002 -2.845,13.623l2.69,-0c3.758,0 6.815,-3.057 6.815,-6.815Zm-14.348,16.127l2.201,0c1.693,0 3.071,-1.377 3.071,-3.07l0,-0.454l-3.05,0c-0.67,1.214 -1.41,2.393 -2.222,3.524Zm81.705,32.84c-0,16.998 -13.081,30.99 -29.713,32.459l-0,-1c-0,-3.068 -2.096,-5.664 -5.099,-6.314l-7.078,-1.524c-2.16,-0.467 -4.304,0.155 -5.875,1.704l-0.982,0.964c-4.138,-2.544 -7.592,-5.999 -10.136,-10.136l0.957,-0.977c1.555,-1.577 2.178,-3.72 1.711,-5.878l-1.525,-7.082c-0.65,-3.001 -3.246,-5.097 -6.313,-5.097l-1.002,-0c1.464,-16.634 15.459,-29.726 32.461,-29.726c17.972,0 32.594,14.628 32.594,32.607Zm-42.274,6.27l-0,-2.017c-0,-0.924 0.781,-1.706 1.706,-1.706c4.272,0 7.494,-3.35 7.494,-7.792c0,-4.132 -3.362,-7.494 -7.494,-7.494l-4.6,0c-1.599,0 -2.894,1.296 -2.894,2.894c-0,1.598 1.295,2.894 2.894,2.894l4.6,0c0.925,0 1.706,0.781 1.706,1.706c0,0.335 -0.082,2.004 -1.706,2.004c-4.133,0 -7.494,3.362 -7.494,7.494l-0,4.911c-0,1.598 1.295,2.894 2.894,2.894l9.2,-0c1.599,-0 2.894,-1.296 2.894,-2.894c0,-1.599 -1.295,-2.894 -2.894,-2.894l-6.306,-0Zm26.635,-16.115c-0,-1.599 -1.296,-2.894 -2.894,-2.894c-1.599,-0 -2.894,1.295 -2.894,2.894l-0,6.604l-3.089,0l0.979,-6.149c0.252,-1.579 -0.824,-3.062 -2.402,-3.313c-1.578,-0.25 -3.062,0.824 -3.314,2.403l-1.512,9.498c-0.134,0.836 0.106,1.689 0.656,2.334c0.55,0.644 1.355,1.015 2.202,1.015l6.48,0l-0,6.617c-0,1.598 1.295,2.894 2.894,2.894c1.598,0 2.894,-1.296 2.894,-2.894l-0,-19.009Zm-70.931,-6.542c-0.846,-0.13 -1.703,-0.25 -2.574,-0.358l-8.545,9.103l6.7,5.944l4.419,-14.689Zm66.951,-62.287c-0.933,-0.198 -1.707,-0.843 -2.072,-1.723l-8.655,-20.906c-0.364,-0.881 -0.272,-1.885 0.247,-2.684l10.925,-16.82l-21.697,-21.697l-16.833,10.926c-0.799,0.518 -1.802,0.611 -2.683,0.246l-20.906,-8.655c-0.881,-0.365 -1.526,-1.14 -1.724,-2.074l-4.163,-19.629l-30.689,0l-4.175,19.631c-0.198,0.932 -0.843,1.708 -1.724,2.072l-20.906,8.655c-0.881,0.364 -1.884,0.273 -2.684,-0.247l-16.82,-10.924l-21.697,21.696l10.926,16.82c0.518,0.799 0.611,1.803 0.246,2.684l-8.655,20.906c-0.364,0.881 -1.139,1.525 -2.072,1.724l-19.63,4.174l-0,30.689l19.629,4.164c0.933,0.198 1.709,0.843 2.074,1.724l8.655,20.906c0.364,0.88 0.272,1.884 -0.247,2.683l-10.926,16.833l21.697,21.697l12.316,-7.999l0,-13.383c0,-4.588 1.702,-8.785 4.982,-12.418c-14.118,-12.634 -22.156,-30.513 -22.156,-49.556c0,-36.672 29.834,-66.506 66.506,-66.506c36.678,0 66.518,29.834 66.518,66.506c-0,7.364 -1.187,14.537 -3.524,21.395c2.252,-0.413 4.571,-0.631 6.941,-0.631c3.638,0 7.159,0.509 10.496,1.459l0.408,-0.985c0.364,-0.882 1.14,-1.527 2.073,-1.725l19.618,-4.164l-0,-30.689l-19.619,-4.175Zm-16.415,109.477l-7.078,-1.524c-0.25,-0.055 -0.411,-0.008 -0.595,0.173l-2.547,2.498c-0.898,0.881 -2.262,1.081 -3.375,0.494c-6.604,-3.478 -11.932,-8.806 -15.41,-15.41c-0.586,-1.112 -0.386,-2.477 0.494,-3.375l2.493,-2.541c0.186,-0.19 0.234,-0.35 0.18,-0.598l-1.526,-7.084c-0.07,-0.326 -0.322,-0.53 -0.655,-0.53l-8.519,0c-0.229,0 -0.345,0.051 -0.499,0.218c-0.139,0.155 -0.183,0.284 -0.164,0.514c1.731,19.703 17.288,35.268 36.992,37.002c0.235,0.02 0.355,-0.021 0.525,-0.177c0.165,-0.151 0.217,-0.272 0.217,-0.498l0,-8.506c-0,-0.334 -0.204,-0.585 -0.533,-0.656Zm-36.087,-6.082l0,14.979l15.086,-0c-6.116,-3.76 -11.284,-8.891 -15.086,-14.979Zm25.654,-60.52c3.095,-7.399 4.666,-15.251 4.666,-23.361c0,-33.479 -27.243,-60.717 -60.73,-60.717c-33.479,-0 -60.717,27.238 -60.717,60.717c-0,17.615 7.534,34.139 20.742,45.7c0.845,-0.603 1.743,-1.184 2.697,-1.74c6.046,-3.526 14.126,-6.029 23.484,-7.297l0,-3.337c-3.164,-2.168 -5.945,-5.16 -8.272,-8.936c-0.319,-0.516 -0.623,-1.051 -0.921,-1.594l-5.384,0c-6.949,0 -12.603,-5.653 -12.603,-12.603c0,-3.566 1.492,-6.789 3.881,-9.084l0,-7.643c0,-20.46 16.651,-37.106 37.118,-37.106c20.46,0 37.105,16.646 37.105,37.106l0,7.69c2.361,2.291 3.832,5.495 3.832,9.037c-0,5.725 -3.839,10.568 -9.077,12.098l0,0.96c0,4.884 -3.974,8.858 -8.858,8.858l-4.77,-0c-0.62,1.512 -1.71,2.78 -3.087,3.629l-0,1.075c7.761,1.053 14.655,2.96 20.234,5.595c4.223,-8.673 11.615,-15.528 20.66,-19.047Z" style="fill:#08f;fill-rule:nonzero;"/><path d="M239.554,157.18l-6.788,0c-1.236,0 -2.239,1.003 -2.239,2.239c0,1.235 1.003,2.238 2.239,2.238l6.788,-0l-0,6.788c-0,1.236 1.003,2.239 2.238,2.239c1.236,-0 2.239,-1.003 2.239,-2.239l-0,-6.788l6.788,-0c1.235,-0 2.238,-1.003 2.238,-2.238c0,-1.236 -1.003,-2.239 -2.238,-2.239l-6.788,0l-0,-6.788c-0,-1.236 -1.003,-2.238 -2.239,-2.238c-1.235,-0 -2.238,1.002 -2.238,2.238l-0,6.788Z" style="fill:#ff972c;"/><path d="M31.649,162.08l-3.154,-0c-0.573,-0 -1.039,0.639 -1.039,1.426c-0,0.787 0.466,1.426 1.039,1.426l3.154,-0l0,4.325c0,0.787 0.466,1.427 1.04,1.427c0.574,-0 1.04,-0.64 1.04,-1.427l0,-4.325l3.154,-0c0.574,-0 1.04,-0.639 1.04,-1.426c0,-0.787 -0.466,-1.426 -1.04,-1.426l-3.154,-0l0,-4.326c0,-0.787 -0.466,-1.426 -1.04,-1.426c-0.574,-0 -1.04,0.639 -1.04,1.426l0,4.326Z" style="fill:#08f;"/><path d="M233.706,67.169c9.556,0 17.314,7.758 17.314,17.314c0,9.556 -7.758,17.314 -17.314,17.314c-9.556,-0 -17.314,-7.758 -17.314,-17.314c0,-9.556 7.758,-17.314 17.314,-17.314Zm0,8.657c4.778,0 8.657,3.879 8.657,8.657c0,4.778 -3.879,8.657 -8.657,8.657c-4.778,-0 -8.657,-3.879 -8.657,-8.657c0,-4.778 3.879,-8.657 8.657,-8.657Z" style="fill:#ff972c;"/><circle cx="32.689" cy="87.906" r="5.234" style="fill:#ff972c;"/></g></svg>