<?xml version="1.0" encoding="UTF-8" standalone="no"?><!DOCTYPE svg PUBLIC "-//W3C//DTD SVG 1.1//EN" "http://www.w3.org/Graphics/SVG/1.1/DTD/svg11.dtd"><svg width="100%" height="100%" viewBox="0 0 2134 2134" version="1.1" xmlns="http://www.w3.org/2000/svg" xmlns:xlink="http://www.w3.org/1999/xlink" xml:space="preserve" xmlns:serif="http://www.serif.com/" style="fill-rule:evenodd;clip-rule:evenodd;stroke-linejoin:round;stroke-miterlimit:2;"><g><path d="M1711.8,361.654c-54.367,0 -98.596,44.329 -98.596,98.821l0,1213.03c4.975,131.138 192.625,130.667 197.567,0l-0,-1213.03c-0,-54.487 -44.396,-98.821 -98.971,-98.821Z" style="fill:#fff;fill-rule:nonzero;"/><path d="M1066.67,361.654c-54.575,0 -98.971,44.329 -98.971,98.821l-0,1213.03c4.987,130.954 193.004,130.85 197.946,0l-0,-1213.03c-0,-54.487 -44.4,-98.821 -98.975,-98.821Z" style="fill:#fff;fill-rule:nonzero;"/><path d="M1389.23,722.988c-54.362,-0 -98.587,44.329 -98.587,98.82l-0,490.363c4.975,131.146 192.621,130.658 197.562,-0l0,-490.363c0,-54.491 -44.4,-98.82 -98.975,-98.82Z" style="fill:#fff;fill-rule:nonzero;"/><path d="M2034.36,903.658c-54.363,0 -98.592,44.33 -98.592,98.821l-0,129.025c4.975,131.142 192.621,130.663 197.562,0l0,-129.025c0,-54.492 -44.395,-98.821 -98.97,-98.821Z" style="fill:#fff;fill-rule:nonzero;"/><path d="M98.975,903.658c-54.575,0 -98.975,44.33 -98.975,98.817l0,129.025c4.992,130.758 192.637,131.046 197.563,0l-0.001,-129.025c0,-54.487 -44.225,-98.817 -98.587,-98.817Z" style="fill:#fff;fill-rule:nonzero;"/><path d="M421.538,542.321c-54.575,-0 -98.976,44.329 -98.976,98.821l0,851.691c4.992,130.767 192.642,131.042 197.571,0l0,-851.691c0,-54.492 -44.229,-98.821 -98.596,-98.821Z" style="fill:#fff;fill-rule:nonzero;"/><path d="M744.104,0.321c-54.575,-0 -98.971,44.329 -98.971,98.821l0,1935.69c4.988,130.763 192.634,131.042 197.563,0l-0,-1935.69c-0,-54.492 -44.229,-98.821 -98.592,-98.821Z" style="fill:#fff;fill-rule:nonzero;"/></g></svg>